<svg width="62" height="62" viewBox="0 0 62 62" fill="none" xmlns="http://www.w3.org/2000/svg">
<g filter="url(#filter0_i_18013_2229)">
<circle cx="31" cy="31" r="31" fill="#FAFAFA"/>
</g>
<path fill-rule="evenodd" clip-rule="evenodd" d="M30.5898 40.3899C30.043 40.9366 29.1566 40.9366 28.6099 40.3899L20.2099 31.9899C19.6631 31.4432 19.6631 30.5567 20.2099 30.01L28.6099 21.61C29.1566 21.0633 30.043 21.0633 30.5898 21.61C31.1365 22.1567 31.1365 23.0432 30.5898 23.5899L24.5797 29.6H40.7998C41.573 29.6 42.1998 30.2268 42.1998 31C42.1998 31.7732 41.573 32.4 40.7998 32.4L24.5797 32.4L30.5898 38.41C31.1365 38.9567 31.1365 39.8432 30.5898 40.3899Z" fill="#1F2937"/>
<defs>
<filter id="filter0_i_18013_2229" x="0" y="0" width="62" height="68" filterUnits="userSpaceOnUse" color-interpolation-filters="sRGB">
<feFlood flood-opacity="0" result="BackgroundImageFix"/>
<feBlend mode="normal" in="SourceGraphic" in2="BackgroundImageFix" result="shape"/>
<feColorMatrix in="SourceAlpha" type="matrix" values="0 0 0 0 0 0 0 0 0 0 0 0 0 0 0 0 0 0 127 0" result="hardAlpha"/>
<feMorphology radius="2" operator="dilate" in="SourceAlpha" result="effect1_innerShadow_18013_2229"/>
<feOffset dy="6"/>
<feGaussianBlur stdDeviation="7.5"/>
<feComposite in2="hardAlpha" operator="arithmetic" k2="-1" k3="1"/>
<feColorMatrix type="matrix" values="0 0 0 0 0.0627451 0 0 0 0 0.0941176 0 0 0 0 0.156863 0 0 0 0.08 0"/>
<feBlend mode="normal" in2="shape" result="effect1_innerShadow_18013_2229"/>
</filter>
</defs>
</svg>
