<svg width="258" height="339" viewBox="0 0 258 339" fill="none" xmlns="http://www.w3.org/2000/svg">
<path d="M22.4621 157.585C20.9434 159.835 20.2122 161.354 20.2122 161.354L40.4617 271.602C40.4617 271.602 46.3679 273.289 55.6489 275.708C32.9244 259.396 24.0933 175.191 22.4621 157.585Z" fill="#2893D0"/>
<path d="M22.9121 157.529C22.9121 157.304 22.7434 157.135 22.5746 157.079C22.3496 157.023 22.1809 157.135 22.0684 157.248C20.5497 159.498 19.8184 161.017 19.7622 161.073C19.7059 161.185 19.7059 161.298 19.7059 161.354L39.9555 271.602C40.0117 271.771 40.1242 271.939 40.293 271.995C40.3492 271.995 46.3116 273.739 55.4802 276.102C55.5364 276.102 55.5364 276.102 55.5927 276.102C55.7614 276.102 55.9302 275.989 56.0427 275.82C56.1552 275.595 56.0989 275.37 55.8739 275.202C33.3182 259.114 24.4871 174.348 22.9121 157.529ZM20.7184 161.41C20.8872 161.073 21.3372 160.229 22.1246 158.992C22.6871 165.01 23.8121 175.416 25.5558 187.735L20.7184 161.41ZM40.8555 271.152L32.4744 225.421C38.3805 250.846 45.4679 267.327 53.5677 274.583C46.7054 272.839 42.0367 271.489 40.8555 271.152Z" fill="#2893D0"/>
<path d="M74.661 280.433C95.8105 285.495 122.754 291.12 143.566 292.751C183.727 295.845 238.289 158.485 235.645 147.292C233.058 136.098 185.696 138.686 185.696 138.686L104.135 145.323C104.135 145.323 71.511 136.661 50.6427 139.136C39.3367 140.486 31.2932 146.898 26.3433 152.523C29.4932 151.792 34.1056 151.904 39.1117 156.067C48.224 163.773 65.0987 189.085 74.436 223.172C83.7733 257.258 107.06 259.958 107.06 259.958C107.06 259.958 93.4481 278.745 74.661 280.433ZM186.877 175.641C186.877 175.641 194.808 193.022 197.508 182.222C200.208 171.423 216.014 154.323 216.014 154.323C216.014 154.323 207.521 206.128 192.558 210.066C177.54 214.003 186.877 175.641 186.877 175.641ZM127.985 213.609C128.266 206.353 135.185 206.747 133.891 202.978C132.597 199.21 132.316 190.772 132.316 190.772C140.528 183.91 157.572 252.027 157.572 252.027C157.572 252.027 144.691 260.352 138.672 257.708C132.653 255.065 127.704 220.865 127.985 213.609Z" fill="#2893D0"/>
<path d="M215.564 154.042C214.889 154.717 199.646 171.366 196.946 182.166C196.608 183.572 195.933 185.204 194.921 185.316C194.865 185.316 194.865 185.316 194.808 185.316C192.558 185.316 189.015 179.297 187.271 175.472C187.159 175.304 186.99 175.191 186.765 175.191C186.54 175.191 186.371 175.36 186.315 175.585C186.034 176.71 179.79 202.753 186.54 209.391C187.609 210.403 188.846 210.909 190.421 210.909C191.096 210.909 191.827 210.797 192.558 210.628C207.633 206.634 216.014 156.629 216.408 154.492C216.464 154.267 216.352 154.098 216.127 153.985C215.958 153.817 215.733 153.873 215.564 154.042ZM192.333 209.616C190.196 210.178 188.509 209.841 187.271 208.603C181.759 203.203 185.809 182.616 186.99 177.104C188.396 179.972 191.883 186.272 194.808 186.272C194.865 186.272 194.921 186.272 194.977 186.272C196.327 186.16 197.227 184.866 197.902 182.391C200.096 173.504 211.514 160.117 215.17 155.954C213.539 164.841 205.327 206.184 192.333 209.616Z" fill="#2893D0"/>
<path d="M74.6048 279.983C74.3798 279.983 74.1548 280.208 74.1548 280.433C74.1548 280.658 74.2673 280.883 74.5485 280.939C94.2356 285.664 122.191 291.626 143.566 293.258C144.016 293.314 144.466 293.314 144.972 293.314C153.916 293.314 164.097 286.733 175.29 273.739C207.577 236.165 238.176 155.729 236.208 147.236C233.564 135.817 187.721 138.18 185.752 138.292L104.304 144.93C102.448 144.423 70.9486 136.323 50.7553 138.742C39.1118 140.148 30.9557 146.842 26.1183 152.242C25.9496 152.411 25.9495 152.636 26.062 152.804C26.1745 152.973 26.3995 153.086 26.5683 153.029C29.4932 152.354 34.0494 152.354 38.943 156.517C47.3803 163.604 64.4237 188.072 74.0985 223.34C82.4233 253.715 102.054 259.396 106.329 260.296C103.685 263.502 91.0294 278.464 74.6048 279.983ZM107.51 260.24C107.623 260.127 107.623 259.902 107.567 259.733C107.51 259.565 107.342 259.452 107.173 259.452C106.948 259.396 84.1108 256.358 74.9985 223.059C65.2675 187.566 48.0553 162.929 39.5618 155.729C35.0619 151.961 30.8994 151.398 27.8058 151.792C32.5869 146.729 40.2367 140.936 50.8678 139.642C71.3986 137.167 103.854 145.717 104.135 145.829C104.192 145.829 104.248 145.829 104.304 145.829L185.809 139.192C185.921 139.192 197.733 138.573 209.771 139.305C225.408 140.261 234.239 143.073 235.251 147.404C237.22 155.842 206.677 235.659 174.559 273.064C163.028 286.508 152.622 292.976 143.678 292.245C123.26 290.67 96.823 285.158 77.3609 280.545C94.7981 277.508 107.398 260.408 107.51 260.24Z" fill="#2893D0"/>
<path d="M131.697 206.241C130.01 207.591 127.647 209.391 127.479 213.609C127.197 220.584 131.978 255.29 138.503 258.158C139.403 258.552 140.416 258.721 141.541 258.721C148.122 258.721 157.403 252.758 157.909 252.477C158.078 252.365 158.19 252.14 158.134 251.971C158.078 251.802 154.422 237.065 149.697 222.159C143.341 202.022 138.222 191.166 134.453 189.985C133.61 189.703 132.822 189.872 132.147 190.435C132.035 190.547 131.979 190.66 131.979 190.828C131.979 191.166 132.26 199.378 133.553 203.147C133.891 204.441 133.216 205.059 131.697 206.241ZM134.341 202.809C133.216 199.491 132.878 192.403 132.822 190.997C133.216 190.772 133.61 190.716 134.06 190.828C136.422 191.616 140.866 197.691 148.684 222.384C152.959 235.996 156.447 249.496 157.009 251.802C155.097 252.983 144.072 259.508 138.841 257.258C133.216 254.783 128.097 221.315 128.435 213.666C128.604 209.897 130.629 208.322 132.26 207.028C133.722 205.903 135.072 204.834 134.341 202.809Z" fill="#2893D0"/>
<path d="M74.661 280.433C67.5174 278.745 60.9926 277.058 55.649 275.652C56.3239 276.158 56.9989 276.552 57.7302 276.945C63.6363 280.039 69.3174 280.883 74.661 280.433Z" fill="#4461AB"/>
<path d="M55.7614 275.202C55.5364 275.146 55.3114 275.258 55.1989 275.483C55.0864 275.708 55.1427 275.933 55.3677 276.102C56.0989 276.664 56.8301 277.058 57.5051 277.396C62.23 279.814 67.0674 281.052 72.0173 281.052C72.9173 281.052 73.8173 280.995 74.7173 280.939C74.9423 280.939 75.1672 280.714 75.1672 280.489C75.1672 280.264 75.0548 280.039 74.7735 279.983C68.3611 278.464 62.005 276.833 55.7614 275.202ZM58.9113 277.058C62.905 278.07 66.8987 279.083 70.9486 280.095C66.8987 279.927 62.8488 278.914 58.9113 277.058Z" fill="#4461AB"/>
<path d="M39.2243 156.067C34.2181 151.848 29.6057 151.736 26.4558 152.523C24.8246 154.379 23.4746 156.123 22.5184 157.586C24.1496 175.191 32.9806 259.396 55.7052 275.652C61.0488 277.058 67.5737 278.689 74.7173 280.433C93.5606 278.745 107.173 259.902 107.173 259.902C107.173 259.902 83.8858 257.202 74.5485 223.115C65.155 189.085 48.3366 163.773 39.2243 156.067Z" fill="#4461AB"/>
<path d="M107.173 259.452C106.948 259.452 84.1108 256.414 74.9985 223.059C65.2675 187.566 48.0554 162.929 39.5618 155.729C34.3306 151.342 29.4932 151.286 26.3433 152.073C26.2308 152.073 26.1746 152.129 26.1183 152.242C24.6559 153.873 23.3059 155.617 22.1247 157.36C22.0684 157.473 22.0122 157.585 22.0684 157.698C22.9684 167.26 25.5558 192.235 30.787 217.265C37.4806 249.327 45.7491 269.127 55.4802 276.102C55.5364 276.158 55.5927 276.158 55.6489 276.158C61.8926 277.789 68.3049 279.364 74.661 280.939C74.7173 280.939 74.7173 280.939 74.7735 280.939H74.8298C93.6731 279.251 107.51 260.408 107.679 260.239C107.792 260.127 107.792 259.902 107.735 259.733C107.51 259.564 107.342 259.452 107.173 259.452ZM74.661 279.927C68.3612 278.408 62.0051 276.833 55.8177 275.202C33.3744 258.946 24.5434 174.91 22.9121 157.698C24.0371 156.067 25.2746 154.435 26.6246 152.917C29.5495 152.242 33.9931 152.354 38.8305 156.404C47.2679 163.491 64.3112 187.96 73.986 223.228C82.3109 253.602 101.942 259.339 106.217 260.183C103.685 263.502 91.0857 278.464 74.661 279.927Z" fill="#4461AB"/>
<path d="M127.985 213.609C127.704 220.865 132.653 255.065 138.672 257.708C144.691 260.352 157.572 252.027 157.572 252.027C157.572 252.027 140.528 183.91 132.316 190.772C132.316 190.772 132.597 199.21 133.891 202.978C135.185 206.747 128.266 206.353 127.985 213.609Z" fill="#4461AB"/>
<path d="M131.697 206.241C130.01 207.591 127.647 209.391 127.479 213.609C127.197 220.584 131.979 255.29 138.503 258.158C139.403 258.552 140.416 258.721 141.541 258.721C148.122 258.721 157.403 252.758 157.909 252.477C158.078 252.365 158.19 252.14 158.134 251.971C157.515 249.552 143.285 192.853 134.453 189.985C133.61 189.703 132.822 189.872 132.147 190.435C132.035 190.547 131.979 190.66 131.979 190.828C131.979 191.166 132.26 199.378 133.553 203.147C133.891 204.441 133.216 205.059 131.697 206.241ZM134.341 202.809C133.216 199.491 132.879 192.403 132.822 190.997C133.216 190.772 133.61 190.716 134.06 190.828C140.697 192.966 151.891 231.44 157.009 251.802C155.097 252.983 144.072 259.565 138.841 257.258C133.216 254.783 128.097 221.315 128.435 213.666C128.604 209.897 130.629 208.322 132.26 207.028C133.722 205.903 135.072 204.834 134.341 202.809Z" fill="#4461AB"/>
<path d="M186.877 175.641C186.877 175.641 177.54 214.003 192.502 210.066C207.464 206.128 215.958 154.323 215.958 154.323C215.958 154.323 200.152 171.423 197.452 182.222C194.752 193.078 186.877 175.641 186.877 175.641Z" fill="#4461AB"/>
<path d="M215.564 154.042C214.889 154.717 199.646 171.366 196.946 182.166C196.608 183.572 195.933 185.204 194.921 185.316C194.865 185.316 194.865 185.316 194.808 185.316C192.558 185.316 189.015 179.297 187.271 175.472C187.159 175.304 186.99 175.191 186.765 175.191C186.54 175.191 186.371 175.36 186.315 175.585C186.034 176.71 179.79 202.753 186.54 209.391C187.609 210.403 188.846 210.909 190.421 210.909C191.096 210.909 191.827 210.797 192.558 210.628C207.633 206.634 216.014 156.629 216.408 154.492C216.464 154.267 216.352 154.098 216.127 153.985C215.958 153.817 215.733 153.873 215.564 154.042ZM192.334 209.616C190.196 210.178 188.509 209.841 187.271 208.603C181.759 203.203 185.809 182.616 186.99 177.104C188.396 179.972 191.884 186.272 194.808 186.272C194.865 186.272 194.921 186.272 194.977 186.272C196.327 186.16 197.227 184.866 197.902 182.391C200.096 173.504 211.514 160.117 215.171 155.954C213.539 164.841 205.327 206.184 192.334 209.616Z" fill="#4461AB"/>
<path d="M118.31 183.516C128.435 189.141 149.922 192.235 147.897 171.873C146.435 157.36 125.904 162.423 116.623 173.054C120.504 173.166 124.16 174.46 125.847 176.935C125.904 176.879 122.641 178.623 118.31 183.516Z" fill="#244698"/>
<path d="M117.973 183.179C117.86 183.291 117.86 183.46 117.86 183.572C117.86 183.741 117.973 183.854 118.085 183.91C122.641 186.385 128.66 188.128 134.116 188.128C137.547 188.128 140.81 187.454 143.285 185.766C147.335 183.122 149.078 178.397 148.403 171.704C147.953 167.204 145.647 164.167 141.766 162.873C134.566 160.567 122.866 165.01 116.285 172.604C116.173 172.773 116.116 172.941 116.229 173.11C116.285 173.279 116.454 173.391 116.679 173.391C120.335 173.504 123.598 174.685 125.229 176.654C124.104 177.441 121.348 179.298 117.973 183.179ZM126.129 177.329C126.241 177.272 126.354 177.16 126.354 176.991C126.41 176.879 126.354 176.71 126.297 176.597C124.723 174.348 121.573 172.885 117.691 172.604C124.216 165.742 134.847 161.804 141.485 163.941C144.972 165.066 147.053 167.823 147.447 171.929C148.066 178.173 146.491 182.616 142.778 185.035C136.816 188.972 126.241 187.172 119.098 183.404C123.091 178.96 126.072 177.329 126.129 177.329Z" fill="#244698"/>
<path d="M103.573 182.166C102.504 192.741 106.498 203.991 106.498 203.991C110.267 194.203 114.654 187.735 118.31 183.516C115.273 181.829 113.248 179.972 113.192 178.397C113.979 176.485 115.16 174.685 116.623 172.998C110.66 172.885 104.192 175.698 103.573 182.166Z" fill="#4461AB"/>
<path d="M117.073 172.829C117.016 172.66 116.848 172.548 116.623 172.548C116.51 172.548 116.341 172.548 116.229 172.548C110.267 172.548 103.742 175.473 103.067 182.11C101.998 192.685 105.992 203.991 105.992 204.103C106.048 204.272 106.217 204.441 106.442 204.441C106.667 204.441 106.835 204.328 106.892 204.103C110.042 195.947 114.035 189.085 118.648 183.797C118.76 183.685 118.76 183.516 118.76 183.404C118.76 183.235 118.648 183.122 118.535 183.066C115.61 181.491 113.81 179.747 113.642 178.454C114.373 176.71 115.498 174.966 116.96 173.335C117.129 173.223 117.185 172.998 117.073 172.829ZM112.742 178.229C112.685 178.285 112.685 178.397 112.685 178.454C112.798 180.535 115.61 182.504 117.579 183.629C113.304 188.635 109.592 194.991 106.554 202.528C105.598 199.322 103.235 190.491 104.079 182.222C104.642 176.429 110.267 173.729 115.61 173.56C114.373 175.079 113.417 176.654 112.742 178.229Z" fill="#4461AB"/>
<path d="M113.192 178.398C113.304 179.972 115.329 181.829 118.31 183.516C122.585 178.622 125.904 176.879 125.904 176.879C124.16 174.404 120.504 173.11 116.679 172.998C115.16 174.685 113.979 176.485 113.192 178.398Z" fill="#283A84"/>
<path d="M116.679 172.548C116.566 172.548 116.398 172.604 116.285 172.716C114.71 174.516 113.529 176.373 112.742 178.229C112.685 178.285 112.685 178.397 112.685 178.454C112.798 180.704 116.116 182.841 118.085 183.966C118.141 184.022 118.254 184.022 118.31 184.022C118.423 184.022 118.591 183.966 118.648 183.854C122.81 179.073 126.073 177.385 126.073 177.329C126.185 177.272 126.298 177.16 126.298 176.991C126.354 176.879 126.298 176.71 126.241 176.597C124.554 174.179 120.954 172.66 116.679 172.548ZM118.198 182.897C115.498 181.379 113.81 179.747 113.642 178.51C114.373 176.823 115.441 175.191 116.848 173.56C120.448 173.673 123.541 174.91 125.173 176.823C124.104 177.385 121.516 179.241 118.198 182.897Z" fill="#283A84"/>
<path d="M85.292 103.249C85.292 103.249 102.954 110.224 111.673 104.824C120.391 99.4243 171.465 53.6939 171.465 53.6939C171.465 53.6939 188.902 56.6189 199.927 48.2941C210.952 39.9693 192.221 33.1069 192.221 33.1069C217.758 9.03242 171.465 13.8135 171.465 13.8135C172.871 11.5636 173.828 8.75114 173.321 6.27619C165.278 -4.86107 126.579 11.1136 126.579 11.1136L126.747 9.53865C126.129 9.87614 125.791 10.0449 125.791 10.0449C125.791 10.0449 126.41 6.44495 125.06 3.97C111.504 3.29502 89.5669 26.6383 89.5669 26.6383L89.7356 24.6696C88.9481 25.6258 88.5544 26.2445 88.5544 26.2445C88.5544 26.2445 89.3419 20.5634 88.3294 17.3009C84.3357 19.2134 76.0109 25.3445 76.2922 42.8941C76.2922 42.8941 63.4112 36.3693 59.53 41.0379C55.6488 45.7066 71.0048 56.4502 70.5548 61.2313C76.6859 68.8249 81.1858 93.0681 85.292 103.249Z" fill="#191446"/>
<path d="M88.8356 17.1884C88.7794 17.0759 88.7231 16.9634 88.5544 16.9072C88.4419 16.8509 88.2731 16.8509 88.1607 16.9072C84.392 18.7071 75.7859 24.7257 75.8422 42.1628C73.0297 40.8128 62.7924 36.4817 59.1925 40.7566C56.7176 43.7378 60.8237 48.4627 64.8174 53.0189C67.4611 56.0563 70.2173 59.2626 70.161 61.1188C70.161 61.2313 70.161 61.4 70.2735 61.5125C74.0985 66.2936 77.3046 77.9371 80.1733 88.2307C81.8045 94.1368 83.3795 99.7053 84.8982 103.474C84.9545 103.587 85.067 103.699 85.1795 103.755C85.6857 103.98 94.6293 107.411 102.898 107.411C106.217 107.411 109.479 106.849 112.01 105.274C120.504 100.043 167.921 57.6312 171.746 54.2563C173.884 54.5376 189.971 56.5626 200.321 48.744C203.077 46.6628 204.258 44.5254 203.921 42.2754C203.189 37.4943 195.652 34.0068 193.233 33.0505C199.308 27.1444 201.615 22.4758 200.04 19.0446C196.721 11.7885 177.09 12.9697 172.478 13.3635C173.828 10.9448 174.334 8.41356 173.94 6.33236C173.94 6.27611 173.884 6.2199 173.884 6.16365C166.29 -4.41112 132.991 8.24483 127.366 10.4948L127.479 9.76359C127.479 9.59484 127.422 9.42607 127.254 9.31357C127.085 9.20107 126.916 9.20109 126.747 9.25734C126.691 9.25734 126.635 9.31357 126.579 9.31357C126.691 8.01985 126.691 5.71366 125.679 3.9137C125.622 3.74495 125.454 3.6887 125.285 3.63246C113.135 3.12622 94.7418 20.957 90.3544 25.4569L90.4106 24.8382C90.4106 24.6132 90.2981 24.4445 90.1294 24.332C89.9044 24.2757 89.6794 24.332 89.5669 24.5007C89.5106 24.557 89.4544 24.6695 89.3981 24.7258C89.4544 22.6446 89.5669 19.4384 88.8356 17.1884ZM89.4544 27.1444C89.6231 27.2569 89.8481 27.2007 90.0169 27.0319C90.2419 26.8069 111.335 4.47619 124.61 4.47619C124.722 4.47619 124.779 4.47619 124.891 4.47619C125.96 6.78239 125.454 9.93228 125.454 9.98853C125.397 10.1573 125.51 10.3823 125.679 10.4385C125.847 10.551 126.016 10.551 126.185 10.4385C126.185 10.4385 126.241 10.4386 126.297 10.3823L126.241 11.001C126.241 11.1698 126.297 11.3386 126.41 11.4511C126.522 11.5635 126.747 11.5635 126.916 11.5073C127.31 11.3385 165.165 -4.12988 172.984 6.4449C173.378 8.46985 172.703 11.0573 171.128 13.476C171.015 13.6447 171.015 13.8135 171.128 13.9822C171.24 14.151 171.409 14.2072 171.578 14.2072C171.803 14.2072 195.708 11.7885 199.083 19.2696C200.49 22.3633 198.127 26.9195 191.94 32.7131C191.827 32.8256 191.771 32.9943 191.771 33.163C191.827 33.3318 191.94 33.4443 192.052 33.5006C192.165 33.5568 202.121 37.2693 202.852 42.2754C203.133 44.1316 202.064 46.044 199.59 47.844C188.902 55.9438 171.69 53.1876 171.521 53.1313C171.353 53.1313 171.24 53.1314 171.128 53.2439C170.621 53.6939 119.997 99.0304 111.391 104.318C103.46 109.211 87.5982 103.474 85.6295 102.799C84.167 99.1429 82.6483 93.6867 81.017 87.8931C78.1484 77.6558 74.9422 66.0123 71.061 61.0062C71.1173 58.7562 68.3611 55.6063 65.4924 52.2876C61.9487 48.2377 57.955 43.6254 59.9237 41.2629C63.5237 36.9318 75.9547 43.1754 76.1234 43.2316C76.2922 43.2879 76.4609 43.2879 76.5734 43.2316C76.7421 43.1191 76.7984 43.0067 76.7984 42.8379C76.5171 26.1883 84.167 20.0009 87.9919 17.9759C88.7231 21.1821 88.0481 26.132 88.0481 26.1882C87.9919 26.4132 88.1606 26.6382 88.3294 26.6945C88.5544 26.7507 88.7794 26.6944 88.8919 26.5257C88.8919 26.5257 88.9481 26.4132 89.0606 26.2444L89.0044 26.5819C89.1731 26.8632 89.2856 27.0319 89.4544 27.1444Z" fill="#191446"/>
<path d="M113.191 4.4762C101.21 11.2261 92.8292 20.9571 89.8481 24.7258L89.6793 26.6945C89.6793 26.6945 111.616 3.3512 125.172 4.02618C123.879 1.60748 120.672 0.25754 113.191 4.4762Z" fill="#E46790"/>
<path d="M122.81 1.49501C120.504 0.820024 117.185 1.66374 112.966 4.08244C100.985 10.8323 92.5481 20.5634 89.4544 24.4445C89.3981 24.5008 89.3419 24.6133 89.3419 24.7258L89.1731 26.6945C89.1731 26.9195 89.2856 27.0883 89.4544 27.2008C89.5106 27.257 89.5669 27.257 89.6794 27.257C89.7919 27.257 89.9606 27.2007 90.0169 27.0882C90.2419 26.8632 111.335 4.53246 124.61 4.53246C124.779 4.53246 125.004 4.53246 125.172 4.53246C125.341 4.53246 125.51 4.4762 125.622 4.30745C125.735 4.1387 125.735 3.96994 125.622 3.8012C124.947 2.61997 123.991 1.8325 122.81 1.49501ZM90.2419 25.4007L90.2981 24.8945C93.3918 21.0133 101.66 11.5073 113.416 4.86994C117.41 2.61999 120.447 1.77624 122.529 2.39498C123.204 2.61997 123.822 2.95746 124.272 3.51995C112.066 3.85745 94.573 21.0133 90.2419 25.4007Z" fill="#E46790"/>
<path d="M157.403 0.707505C141.822 2.28247 130.179 7.85114 126.86 9.53861L126.691 11.1135C126.691 11.1135 165.39 -4.86111 173.434 6.27615C172.646 2.56373 168.54 -0.417471 157.403 0.707505Z" fill="#E46790"/>
<path d="M157.347 0.257543C141.653 1.83251 129.897 7.45735 126.635 9.14481C126.466 9.20106 126.41 9.36985 126.354 9.53859L126.185 11.1135C126.185 11.2823 126.241 11.451 126.354 11.5635C126.466 11.6198 126.522 11.676 126.635 11.676C126.691 11.676 126.747 11.676 126.804 11.6198C127.197 11.451 165.222 -4.0736 172.928 6.66992C173.04 6.83867 173.321 6.89487 173.49 6.83862C173.715 6.72613 173.828 6.50113 173.771 6.27614C173.209 2.78871 169.778 -1.03618 157.347 0.257543ZM127.254 10.3823L127.31 9.87607C130.797 8.07611 142.272 2.73246 157.403 1.21374C164.884 0.426262 169.834 1.49502 171.915 4.19496C161.903 -2.94864 132.541 8.24487 127.254 10.3823Z" fill="#E46790"/>
<path d="M88.3856 17.3009C87.6544 14.9384 86.0232 13.7572 82.4795 16.9072C74.0422 24.3883 74.2672 39.7443 74.2672 39.7443C74.2672 39.7443 63.0737 35.5818 57.8425 39.7443C52.6676 43.9067 62.8486 54.0876 69.486 59.9375C69.8797 60.275 70.2172 60.6687 70.611 61.175C71.061 56.3938 55.7051 45.7066 59.5862 40.9817C63.4674 36.313 76.3484 42.8379 76.3484 42.8379C76.0671 25.3446 84.3919 19.2696 88.3856 17.3009Z" fill="#E46790"/>
<path d="M88.6107 17.751C88.8357 17.6385 88.9482 17.4135 88.8919 17.1885C88.4419 15.7822 87.7669 14.8823 86.8107 14.6573C85.5732 14.3198 84.1108 14.9385 82.1983 16.626C74.6047 23.3196 73.9297 36.0319 73.8172 39.1818C71.286 38.3381 62.2862 35.7506 57.5613 39.463C56.5489 40.3068 55.9864 41.3755 55.9301 42.6692C55.8176 46.6066 60.2613 52.569 69.1486 60.3876C69.4861 60.6688 69.8236 61.0626 70.2173 61.5125C70.3298 61.625 70.4423 61.6813 70.5548 61.6813C70.5548 61.6813 70.5548 61.6813 70.611 61.6813C70.7235 61.6813 70.836 61.625 70.9485 61.5125C71.0048 61.4563 71.061 61.3438 71.1173 61.2313C71.3423 58.9813 68.5298 55.7751 65.5487 52.344C62.005 48.294 58.0113 43.6816 59.98 41.3191C63.5799 36.988 76.0109 43.2316 76.1797 43.2879C76.3484 43.3441 76.5172 43.3441 76.6297 43.2879C76.7984 43.1754 76.8547 43.0629 76.8547 42.8941C76.5734 25.457 84.9545 19.4947 88.6107 17.751ZM75.8984 42.1067C73.086 40.7567 62.8487 36.4256 59.2488 40.7005C56.7739 43.6817 60.88 48.4066 64.8737 52.9628C66.8986 55.3252 68.9798 57.6876 69.8236 59.5438C61.33 52.0065 56.8863 46.1566 56.9988 42.6129C56.9988 41.6004 57.4488 40.7567 58.2363 40.138C59.8675 38.8443 62.1175 38.3942 64.4799 38.3942C69.2048 38.3942 74.0985 40.1942 74.1547 40.1942C74.3235 40.2504 74.4922 40.2505 74.6047 40.138C74.7172 40.0255 74.8297 39.913 74.8297 39.7443C74.8297 39.5755 74.7172 24.5008 82.8733 17.2447C84.4483 15.8385 85.6857 15.276 86.5295 15.501C87.092 15.6697 87.4857 16.176 87.8232 17.0197C83.8858 19.1009 75.8422 25.2883 75.8984 42.1067Z" fill="#E46790"/>
<path d="M91.8732 138.461C88.4982 141.892 90.9732 151.229 91.8732 156.123C92.7731 161.017 115.216 154.267 115.385 148.192C115.554 142.117 107.117 128.28 107.117 128.28C100.873 130.417 95.1918 135.03 91.8732 138.461Z" fill="#504566"/>
<path d="M106.948 127.774C99.3542 130.417 93.2231 136.323 91.4794 138.067C88.3295 141.273 89.9044 149.148 90.9732 154.323C91.0857 154.998 91.2544 155.617 91.3669 156.179C91.5357 157.135 92.4919 158.26 95.6418 158.26C96.0355 158.26 96.4855 158.26 96.9918 158.204C103.404 157.698 115.723 153.086 115.891 148.136C116.06 142.005 107.904 128.505 107.567 127.942C107.398 127.83 107.173 127.717 106.948 127.774ZM114.879 148.192C114.766 152.129 103.573 156.742 96.8793 157.304C94.1793 157.529 92.4919 157.079 92.3231 156.067C92.2106 155.504 92.0981 154.886 91.9294 154.211C90.9169 149.204 89.3982 141.667 92.1544 138.798C93.7856 137.111 99.6355 131.486 106.835 128.842C108.185 130.98 115.048 142.848 114.879 148.192Z" fill="#504566"/>
<path d="M99.073 140.711C98.398 145.38 108.073 147.573 108.073 147.573L104.754 133.848C104.754 133.848 99.8042 136.042 99.073 140.711Z" fill="#191446"/>
<path d="M104.979 133.399C104.867 133.342 104.698 133.342 104.585 133.399C104.36 133.511 99.3542 135.761 98.623 140.655C97.8918 145.717 107.567 147.967 108.017 148.079C108.073 148.079 108.073 148.079 108.129 148.079C108.242 148.079 108.41 148.023 108.467 147.911C108.579 147.798 108.635 147.63 108.579 147.461L105.26 133.736C105.204 133.623 105.148 133.455 104.979 133.399ZM99.5792 140.767C100.085 137.28 103.179 135.255 104.473 134.524L107.454 146.842C105.204 146.279 99.073 144.255 99.5792 140.767Z" fill="#191446"/>
<path d="M178.215 77.0371C178.89 76.8121 179.396 76.8685 179.79 77.1497C178.553 66.1812 175.684 53.3563 168.54 44.694C168.54 44.694 170.228 49.7002 163.14 51.3314C162.747 51.4439 162.24 51.5002 161.734 51.5565C155.434 53.244 140.641 52.4002 136.535 52.119C137.266 54.2564 137.041 58.0812 128.322 60.4437C124.666 63.4249 110.267 64.2124 106.104 64.3249C107.567 72.706 113.023 107.018 104.304 101.562C104.304 101.562 94.9669 90.1431 86.0233 97.8491C77.0798 105.555 85.4046 130.249 102.223 122.149C102.223 122.149 107.004 122.767 103.235 147.686C103.235 147.686 114.316 170.016 124.61 175.585C125.397 171.816 126.747 163.379 124.329 157.81C121.123 150.498 123.541 139.642 123.541 139.642C113.079 135.198 113.023 126.93 113.023 126.93C116.398 132.442 126.354 132.78 126.354 132.78C131.979 121.474 164.49 108.48 168.034 105.443C171.69 102.293 173.659 98.2991 172.759 93.3492C171.859 88.4556 175.796 84.2933 175.796 84.2933C174.165 79.7934 178.215 77.0371 178.215 77.0371Z" fill="#F9C09D"/>
<path d="M178.44 77.4872C178.89 77.3747 179.228 77.3746 179.565 77.5996C179.734 77.7121 179.903 77.7121 180.071 77.5996C180.24 77.4871 180.353 77.3185 180.296 77.1497C178.665 62.5813 174.84 51.6127 168.99 44.4691C168.822 44.3004 168.597 44.2442 168.372 44.3567C168.147 44.4692 168.09 44.6942 168.147 44.9192C168.147 44.9192 168.653 46.494 167.753 48.069C166.965 49.419 165.39 50.4315 163.084 50.9377C162.69 51.0502 162.24 51.1065 161.678 51.219C155.491 52.8502 140.978 52.0627 136.647 51.7815C136.478 51.7252 136.31 51.8378 136.253 51.9503C136.141 52.0627 136.141 52.2315 136.197 52.4003C136.591 53.5252 136.478 54.5939 135.972 55.6064C134.96 57.5189 132.372 59.0376 128.322 60.1063C128.266 60.1063 128.21 60.1625 128.154 60.2188C125.341 62.525 114.991 63.7062 106.217 63.9874C106.104 63.9874 105.935 64.0437 105.879 64.1562C105.767 64.2687 105.767 64.3812 105.767 64.5499C108.467 80.1871 110.379 99.2555 106.892 101.562C106.667 101.674 106.104 102.068 104.81 101.28C104.248 100.605 99.6355 95.3181 93.7856 94.8118C90.9169 94.5868 88.3295 95.4867 85.9108 97.568C81.5796 101.28 80.2859 110.449 85.292 118.043C89.2857 124.174 95.6981 125.917 102.448 122.711C103.067 123.105 106.217 126.255 103.01 147.629C103.01 147.742 103.01 147.854 103.067 147.911C103.517 148.811 114.373 170.466 124.666 175.979C124.722 176.035 124.835 176.035 124.891 176.035C124.947 176.035 125.004 176.035 125.116 175.979C125.229 175.923 125.341 175.81 125.397 175.641C126.297 171.254 127.479 163.098 125.06 157.529C121.966 150.442 124.272 139.811 124.329 139.698C124.385 139.473 124.272 139.248 124.047 139.136C116.848 136.098 114.71 131.205 114.091 128.617C118.198 132.892 126.297 133.173 126.635 133.173C126.804 133.173 126.972 133.061 127.085 132.892C131.079 124.905 149.247 115.793 160.103 110.337C164.434 108.143 167.584 106.568 168.653 105.724C172.703 102.237 174.446 97.9056 173.546 93.1807C172.703 88.5683 176.415 84.6308 176.471 84.5746C176.584 84.4621 176.64 84.237 176.584 84.0682C174.896 80.2996 177.99 77.8246 178.44 77.4872ZM175.403 84.2933C174.559 85.2495 171.634 89.0182 172.421 93.5181C173.209 97.9617 171.69 101.843 167.809 105.162C166.853 105.949 163.59 107.58 159.484 109.661C148.628 115.118 130.572 124.117 126.185 132.386C124.497 132.274 116.398 131.486 113.585 126.817C113.473 126.649 113.248 126.536 113.023 126.592C112.798 126.649 112.685 126.817 112.685 127.042C112.685 127.155 112.91 135.48 123.147 140.036C122.754 142.061 121.123 151.398 124.047 158.092C126.297 163.267 125.172 171.198 124.441 174.966C114.991 169.285 104.81 149.598 103.91 147.742C106.61 129.855 104.867 124.342 103.573 122.655C103.01 121.924 102.504 121.811 102.448 121.811C102.335 121.811 102.279 121.811 102.167 121.868C93.0544 126.255 87.8795 120.349 86.0795 117.593C82.3671 111.911 81.5796 102.574 86.5295 98.3555C88.7232 96.4993 91.1419 95.6556 93.6731 95.8243C99.3542 96.3306 104.079 101.955 104.079 102.012C104.135 102.068 104.135 102.068 104.192 102.124C105.429 102.912 106.498 103.024 107.398 102.405C112.066 99.2555 108.635 75.6309 106.835 64.9436C111.673 64.7186 124.947 63.9312 128.716 61.0062C132.991 59.825 135.747 58.1376 136.872 56.0564C137.435 55.044 137.603 53.9189 137.378 52.7377C142.385 53.0752 155.997 53.7502 161.959 52.119C162.465 52.0628 162.972 51.9503 163.422 51.8378C166.065 51.219 167.809 50.0941 168.709 48.4629C169.103 47.7316 169.271 46.9441 169.328 46.3254C174.446 53.1877 177.765 63.3125 179.34 76.4185C179.003 76.3622 178.609 76.4185 178.159 76.531C178.103 76.531 178.046 76.5873 178.046 76.5873C177.934 76.6998 173.771 79.5684 175.403 84.2933Z" fill="#F9C09D"/>
<path d="M180.859 95.3179C180.803 93.1805 180.746 90.1431 180.578 86.5994C179.903 91.4368 178.44 97.7367 176.471 104.768C179.228 101.055 180.915 97.7366 180.859 95.3179Z" fill="#F9C09D"/>
<path d="M180.578 86.1495C180.353 86.1495 180.128 86.3182 180.071 86.5432C179.396 91.0994 178.046 97.1742 175.965 104.655C175.909 104.88 176.021 105.105 176.246 105.218C176.303 105.274 176.359 105.274 176.471 105.274C176.64 105.274 176.753 105.218 176.865 105.049C179.959 100.83 181.421 97.6242 181.365 95.2618L181.309 93.6305C181.253 91.6618 181.196 89.2993 181.084 86.5994C181.028 86.3744 180.859 86.1495 180.578 86.1495ZM177.653 102.18C178.721 98.0743 179.621 94.4181 180.24 91.2119C180.24 92.1119 180.296 92.8993 180.296 93.6305L180.353 95.2618C180.409 97.0055 179.509 99.3117 177.653 102.18Z" fill="#F9C09D"/>
<path d="M180.578 86.6557C181.309 81.5933 181.196 78.1621 179.846 77.2059C180.184 80.5808 180.409 83.787 180.578 86.6557Z" fill="#F9AE82"/>
<path d="M179.565 76.7559C179.396 76.8684 179.284 77.0372 179.34 77.2059C179.678 80.2434 179.903 83.3933 180.071 86.5994C180.071 86.8244 180.296 87.0495 180.521 87.0495C180.746 87.0495 180.971 86.8807 181.028 86.6558C181.871 80.9184 181.534 77.7684 180.071 76.7559C179.959 76.6997 179.734 76.6997 179.565 76.7559Z" fill="#F9AE82"/>
<path d="M176.471 104.824C178.384 97.793 179.903 91.4931 180.578 86.6557C180.465 83.787 180.184 80.5808 179.846 77.2059C179.453 76.9246 178.89 76.8684 178.271 77.0934C178.271 77.0934 174.222 79.8497 176.022 84.4621C176.022 84.4621 172.084 88.5681 172.984 93.518C173.884 98.4117 171.915 102.462 168.259 105.612C164.716 108.649 132.204 121.642 126.579 132.948C126.579 132.948 116.623 132.611 113.248 127.099C113.248 127.099 113.304 135.367 123.766 139.811C123.766 139.811 121.348 150.611 124.554 157.979C126.973 163.548 125.623 172.041 124.835 175.754C127.31 177.104 129.672 177.441 131.922 176.316C143.341 170.523 139.797 140.373 139.797 140.373C139.797 140.373 165.897 119.28 176.471 104.824Z" fill="#F9AE82"/>
<path d="M176.865 105.105C176.921 105.049 176.921 104.993 176.921 104.937C179.003 97.3993 180.353 91.2681 181.028 86.5995C180.859 83.337 180.634 80.1872 180.296 77.1498C180.296 77.0373 180.184 76.8685 180.071 76.8122C179.509 76.4185 178.834 76.3623 178.046 76.5873C177.99 76.5873 177.934 76.6434 177.934 76.6434C177.878 76.6997 173.771 79.5684 175.403 84.2933C174.559 85.2496 171.634 89.0182 172.421 93.5181C173.209 97.9617 171.69 101.843 167.809 105.162C166.853 105.949 163.59 107.58 159.484 109.661C148.628 115.118 130.572 124.117 126.185 132.386C124.498 132.274 116.398 131.486 113.585 126.817C113.473 126.649 113.248 126.536 113.023 126.592C112.798 126.649 112.685 126.817 112.685 127.042C112.685 127.155 112.91 135.48 123.148 140.036C122.754 142.061 121.123 151.398 124.048 158.092C126.466 163.604 125.004 172.154 124.329 175.585C124.273 175.81 124.385 176.035 124.554 176.091C126.185 176.935 127.647 177.385 129.11 177.385C130.179 177.385 131.135 177.16 132.091 176.654C143.228 170.973 140.641 143.692 140.247 140.486C142.722 138.461 166.853 118.774 176.865 105.105ZM139.403 139.923C139.291 140.036 139.178 140.205 139.235 140.373C139.291 140.655 142.61 170.241 131.585 175.81C129.785 176.71 127.647 176.598 125.285 175.416C126.185 170.973 127.254 163.098 124.891 157.698C121.798 150.611 124.104 139.98 124.16 139.867C124.216 139.642 124.104 139.417 123.879 139.305C116.679 136.267 114.541 131.373 113.923 128.786C118.029 133.061 126.129 133.342 126.466 133.342C126.635 133.342 126.804 133.23 126.916 133.061C130.91 125.074 149.078 115.961 159.934 110.505C164.265 108.311 167.415 106.737 168.484 105.893C172.534 102.405 174.278 98.0742 173.378 93.3493C172.534 88.7369 176.246 84.7996 176.303 84.7434C176.415 84.6309 176.471 84.4058 176.415 84.237C174.896 80.2996 177.99 77.8247 178.44 77.4872C178.778 77.3747 179.115 77.3747 179.34 77.4872C179.678 80.4121 179.903 83.5058 180.071 86.5433C179.396 91.0994 178.046 97.1181 176.021 104.543C165.559 118.886 139.685 139.698 139.403 139.923Z" fill="#F9AE82"/>
<path d="M128.435 60.5563C123.766 61.85 116.679 62.6937 105.879 62.6375C105.879 62.6375 105.992 63.3125 106.217 64.4937C110.379 64.325 124.723 63.5375 128.435 60.5563Z" fill="#F9AE82"/>
<path d="M128.266 60.1063C123.091 61.5125 115.554 62.2437 105.879 62.1874C105.71 62.1874 105.598 62.2437 105.485 62.3562C105.373 62.4687 105.373 62.6374 105.373 62.7499C105.373 62.7499 105.485 63.4249 105.71 64.5499C105.767 64.7749 105.935 64.9436 106.16 64.9436C110.492 64.7748 124.891 63.9874 128.66 60.95C128.829 60.7812 128.885 60.5562 128.772 60.3312C128.716 60.1062 128.491 60.05 128.266 60.1063ZM106.61 63.9312C106.554 63.5937 106.498 63.3125 106.442 63.0875C112.854 63.0875 118.423 62.8061 122.923 62.1311C118.479 63.1436 112.235 63.7062 106.61 63.9312Z" fill="#F9AE82"/>
<path d="M136.647 52.2315C140.697 52.5127 155.491 53.3565 161.847 51.669C153.859 52.794 135.804 50.6002 135.804 50.6002C135.804 50.6002 136.31 51.219 136.647 52.2315Z" fill="#F9AE82"/>
<path d="M161.734 51.1626C153.859 52.2876 136.028 50.094 135.86 50.094C135.635 50.094 135.466 50.1502 135.354 50.3189C135.241 50.4877 135.297 50.7126 135.41 50.8814C135.41 50.8814 135.86 51.5002 136.197 52.3439C136.254 52.5127 136.422 52.6815 136.647 52.6815C138.953 52.8502 144.185 53.1313 149.472 53.1313C154.197 53.1313 158.978 52.9065 161.959 52.119C162.184 52.0627 162.353 51.7815 162.297 51.5565C162.24 51.3315 161.959 51.1626 161.734 51.1626ZM136.985 51.7251C136.928 51.5001 136.816 51.3314 136.703 51.1626C138.616 51.3876 143.06 51.8376 147.897 52.1751C143.397 52.1189 139.178 51.8939 136.985 51.7251Z" fill="#F9AE82"/>
<path d="M111.504 126.255C115.441 137.673 134.06 147.573 133.722 146.504C133.722 146.504 140.866 133.286 131.022 133.567C121.179 133.848 111.504 126.255 111.504 126.255Z" fill="#E68262"/>
<path d="M130.966 133.061C130.797 133.061 130.572 133.061 130.404 133.061C121.01 133.061 111.841 125.917 111.785 125.861C111.616 125.749 111.391 125.749 111.223 125.861C111.054 125.974 110.998 126.199 111.054 126.424C114.71 136.886 131.36 147.067 133.722 147.067C133.779 147.067 133.835 147.067 133.891 147.067C134.003 147.011 134.172 146.898 134.229 146.729C134.51 146.223 138.335 138.911 136.085 135.198C135.072 133.68 133.385 133.005 130.966 133.061ZM133.385 145.998C131.191 145.211 117.016 137.223 112.573 127.605C115.61 129.686 123.204 134.242 131.022 134.017C133.047 133.961 134.453 134.524 135.128 135.649C136.985 138.63 134.06 144.761 133.385 145.998Z" fill="#E68262"/>
<path d="M91.3669 113.993C91.5356 114.33 91.8731 114.555 92.2668 114.555C92.3793 114.555 92.5481 114.499 92.6606 114.443L100.76 110.73C101.042 110.618 101.267 110.336 101.323 109.999C101.379 109.661 101.267 109.38 101.042 109.155L92.5481 101.224C92.1543 100.887 91.5356 100.887 91.1981 101.28C90.8606 101.674 90.8606 102.293 91.2544 102.63L98.7355 109.605L91.9294 112.755C91.3669 112.98 91.1419 113.543 91.3669 113.993Z" fill="#62392C"/>
<path d="M167.809 91.8869C167.753 91.8869 165.165 92.6743 162.522 90.9868C162.072 90.7056 161.453 90.8181 161.172 91.2681C160.89 91.718 161.003 92.3369 161.453 92.6181C163.197 93.7431 164.94 94.0243 166.234 94.0243C167.415 94.0243 168.203 93.7993 168.203 93.7993C175.234 92.7305 179.846 84.7995 178.553 76.1372C177.259 67.4749 170.453 61.2874 163.422 62.2999C159.99 62.8062 157.178 64.9437 155.491 68.2624C153.859 71.4123 153.353 75.4622 153.972 79.6809C154.028 80.1871 154.534 80.5808 155.097 80.4683C155.603 80.4121 155.997 79.9058 155.884 79.3433C155.322 75.5184 155.772 71.8623 157.178 69.1061C158.584 66.2936 160.834 64.6062 163.647 64.1562C169.609 63.2562 175.403 68.7123 176.528 76.3621C177.821 84.012 173.884 90.9869 167.809 91.8869Z" fill="#F9AE82"/>
<path d="M108.467 85.6432C110.042 85.6432 117.804 81.2559 121.066 79.3997L120.11 77.7122C115.16 80.5809 109.423 83.6183 108.467 83.6745V85.6432Z" fill="#F9AE82"/>
<path d="M129.954 66.3498C122.304 67.5311 117.185 75.7997 118.591 84.7995C119.266 89.1306 121.291 93.0119 124.329 95.7118C126.916 98.018 130.01 99.1992 133.103 99.1992C133.722 99.1992 134.341 99.143 134.96 99.0867C138.672 98.5243 141.935 96.2743 144.072 92.7306C146.209 89.2432 146.997 84.9683 146.322 80.6371C144.972 71.5811 137.603 65.1686 129.954 66.3498ZM142.385 91.7181C140.528 94.7555 137.772 96.668 134.622 97.1742C131.472 97.6804 128.266 96.6118 125.566 94.3056C122.866 91.9431 121.01 88.4557 120.447 84.5745C119.21 76.5872 123.597 69.331 130.179 68.3185C130.685 68.2623 131.191 68.2061 131.697 68.2061C137.716 68.2061 143.228 73.6059 144.353 80.9745C144.972 84.7994 144.297 88.6244 142.385 91.7181Z" fill="#F9AE82"/>
<path d="M168.934 88.7369C168.934 88.7369 166.29 89.5244 163.647 87.837C163.197 87.5557 162.578 87.6682 162.297 88.1182C162.015 88.5682 162.128 89.1869 162.578 89.4681C164.322 90.5931 166.122 90.8744 167.359 90.8744C168.54 90.8744 169.328 90.6494 169.328 90.6494C176.359 89.5807 180.971 81.6495 179.621 72.9872C179.003 68.8248 177.09 65.1124 174.278 62.4687C171.409 59.825 167.922 58.6439 164.49 59.1501C157.459 60.2188 152.847 68.1498 154.141 76.8122C154.309 77.8246 155.266 83.0558 157.909 83.9557C158.415 84.1245 158.978 83.8433 159.147 83.3371C159.315 82.8308 159.034 82.2682 158.528 82.0995C157.403 81.7058 156.391 78.5558 156.053 76.4746C154.872 68.8248 158.809 61.9062 164.772 61.0062C167.584 60.5562 170.509 61.5687 172.928 63.8186C175.403 66.1248 177.09 69.4436 177.653 73.2123C178.946 80.8621 175.065 87.7807 168.934 88.7369Z" fill="#191446"/>
<path d="M131.247 63.1437C127.535 63.7061 124.272 65.9561 122.135 69.4998C119.998 72.9872 119.21 77.2621 119.885 81.5933C121.123 89.9181 127.479 95.993 134.453 95.993C135.072 95.993 135.635 95.9367 136.253 95.8804C143.903 94.6992 149.022 86.4307 147.616 77.4309C146.209 68.3749 138.897 61.9624 131.247 63.1437ZM135.916 93.968C129.335 94.9805 122.979 89.2994 121.741 81.312C121.179 77.4309 121.854 73.5497 123.766 70.5123C125.622 67.4749 128.379 65.5624 131.529 65.0562C132.035 64.9999 132.541 64.9436 133.047 64.9436C139.066 64.9436 144.578 70.3436 145.703 77.7122C146.884 85.6995 142.497 92.9555 135.916 93.968Z" fill="#191446"/>
<path d="M157.628 92.2243C157.178 92.5055 157.009 93.0681 157.291 93.5743C157.459 93.9118 157.797 94.0805 158.134 94.0805C158.303 94.0805 158.472 94.0243 158.64 93.968C158.922 93.7993 165.84 89.7494 165.222 85.0245C164.94 82.8308 162.803 82.662 161.059 82.5495C159.315 82.437 157.459 82.2682 156.278 80.862C155.041 79.3996 154.647 76.5872 155.041 72.6498C155.097 72.1435 154.703 71.6372 154.197 71.581C153.634 71.5247 153.184 71.9185 153.128 72.4247C152.622 76.9809 153.184 80.187 154.816 82.0995C156.503 84.1807 159.034 84.3494 160.89 84.5182C162.803 84.6869 163.253 84.7995 163.309 85.3058C163.647 88.0619 159.315 91.2118 157.628 92.2243Z" fill="#62392C"/>
<path d="M149.641 102.405C149.191 102.687 149.022 103.249 149.303 103.755C149.472 104.037 149.809 104.205 150.147 104.205C150.316 104.205 150.484 104.149 150.653 104.093C150.653 104.093 153.241 102.63 156.503 102.968C157.009 103.024 157.515 102.63 157.572 102.124C157.628 101.618 157.234 101.112 156.728 101.055C152.734 100.605 149.753 102.293 149.641 102.405Z" fill="#62392C"/>
<path d="M156.897 55.8314C156.447 56.0564 156.222 56.6751 156.503 57.1251C156.672 57.4626 157.009 57.6313 157.347 57.6313C157.516 57.6313 157.684 57.5751 157.797 57.5188C157.853 57.5188 162.184 55.2127 166.628 56.3377C167.134 56.4502 167.697 56.1688 167.809 55.6626C167.922 55.1564 167.64 54.5939 167.134 54.4814C162.015 53.1877 157.122 55.7189 156.897 55.8314Z" fill="#62392C"/>
<path d="M132.935 56.9563C132.429 57.1813 132.26 57.8001 132.485 58.2501C132.654 58.5876 132.991 58.8126 133.329 58.8126C133.497 58.8126 133.61 58.7563 133.778 58.7001C136.141 57.5189 140.528 58.1375 140.585 58.1938C141.091 58.25 141.597 57.9126 141.71 57.4064C141.766 56.9001 141.428 56.3939 140.922 56.2814C140.697 56.2251 135.916 55.4939 132.935 56.9563Z" fill="#62392C"/>
<path d="M144.86 72.1997C144.353 72.3685 144.072 72.9309 144.297 73.4372C144.466 73.8309 144.803 74.056 145.197 74.056C145.31 74.056 145.422 74.0559 145.535 73.9997C147.278 73.3809 152.453 71.9748 155.097 73.2122C155.603 73.4372 156.166 73.2122 156.391 72.7622C156.616 72.256 156.391 71.6935 155.941 71.4685C152.003 69.6685 145.141 72.0872 144.86 72.1997Z" fill="#191446"/>
<path d="M108.354 83.1683C112.235 82.2121 120.729 78.1058 121.123 77.8808L120.279 76.1372C120.166 76.1934 111.617 80.3558 107.904 81.2558L108.354 83.1683Z" fill="#191446"/>
<path d="M133.88 88.4745C137.505 87.9239 139.842 83.5181 139.1 78.6341C138.358 73.7501 134.818 70.2373 131.193 70.7879C127.569 71.3386 125.232 75.7441 125.974 80.6282C126.716 85.5122 130.256 89.0251 133.88 88.4745Z" fill="white"/>
<path d="M131.135 70.231C127.254 70.8498 124.722 75.5184 125.51 80.6371C125.904 83.112 126.972 85.3056 128.547 86.8806C129.897 88.2306 131.529 88.9619 133.16 88.9619C133.441 88.9619 133.722 88.9619 134.003 88.9056C135.916 88.6244 137.547 87.3306 138.616 85.3619C139.628 83.3932 140.022 80.9745 139.628 78.4996C138.841 73.3247 135.016 69.6685 131.135 70.231ZM137.716 84.9119C136.816 86.6556 135.41 87.7244 133.835 87.9494C132.26 88.1744 130.572 87.5556 129.222 86.2056C127.816 84.7994 126.804 82.7745 126.466 80.5246C125.791 75.9122 127.929 71.7498 131.304 71.2435C131.529 71.1873 131.754 71.1872 131.979 71.1872C135.072 71.1872 137.997 74.3934 138.672 78.6684C139.01 80.9183 138.672 83.1119 137.716 84.9119Z" fill="white"/>
<path d="M165.784 66.7437C162.69 67.1937 160.722 71.0747 161.34 75.3496C161.959 79.6246 164.997 82.7183 168.09 82.2683C171.184 81.8183 173.153 77.9371 172.534 73.6622C171.915 69.331 168.878 66.2375 165.784 66.7437Z" fill="white"/>
<path d="M165.728 66.2374C162.353 66.7436 160.215 70.8498 160.89 75.4059C161.228 77.5996 162.128 79.5121 163.478 80.9184C164.659 82.1558 166.065 82.7746 167.472 82.7746C167.697 82.7746 167.922 82.7745 168.203 82.7183C169.834 82.4933 171.24 81.3683 172.196 79.5683C173.096 77.8808 173.378 75.7434 173.04 73.5497C172.365 68.9935 169.047 65.7311 165.728 66.2374ZM171.353 79.1184C170.565 80.5809 169.44 81.537 168.09 81.7058C166.74 81.9308 165.39 81.3683 164.209 80.1871C162.972 78.9496 162.184 77.2059 161.847 75.2372C161.228 71.2435 163.028 67.5873 165.84 67.1936C166.009 67.1373 166.234 67.1374 166.403 67.1374C169.047 67.1374 171.521 69.9497 172.084 73.6622C172.421 75.6871 172.14 77.5997 171.353 79.1184Z" fill="white"/>
<path d="M128.772 73.2684C126.522 73.6059 125.172 76.7559 125.679 80.2433C126.241 83.787 128.435 86.3182 130.685 85.9807C132.935 85.6432 134.285 82.4932 133.778 79.0058C133.216 75.5183 131.022 72.9309 128.772 73.2684Z" fill="#191446"/>
<path d="M128.716 72.7623C127.479 72.931 126.41 73.8871 125.791 75.3496C125.172 76.7558 125.004 78.4996 125.285 80.2995C125.847 83.8995 127.985 86.4869 130.347 86.4869C130.516 86.4869 130.685 86.487 130.854 86.4307C132.091 86.262 133.16 85.3057 133.778 83.8432C134.397 82.437 134.566 80.6933 134.285 78.8933C134.003 77.0934 133.328 75.4622 132.316 74.3372C131.247 73.156 129.954 72.5935 128.716 72.7623ZM132.822 83.5057C132.316 84.6869 131.529 85.362 130.629 85.5307C128.604 85.8119 126.691 83.4495 126.185 80.1871C125.96 78.5559 126.129 76.9809 126.635 75.7435C127.141 74.5622 127.929 73.8872 128.829 73.7185C128.941 73.7185 129.054 73.7185 129.166 73.7185C129.954 73.7185 130.797 74.1685 131.529 75.0122C132.429 76.0247 133.047 77.4872 133.272 79.1184C133.553 80.6934 133.385 82.2682 132.822 83.5057Z" fill="#191446"/>
<path d="M163.872 69.6123C162.015 69.8935 160.834 72.4248 161.284 75.2935C161.734 78.1622 163.59 80.2434 165.446 79.9622C167.303 79.6809 168.484 77.1497 168.034 74.281C167.584 71.4685 165.728 69.3311 163.872 69.6123Z" fill="#191446"/>
<path d="M163.815 69.1623C162.747 69.3311 161.847 70.1186 161.284 71.2998C160.778 72.481 160.609 73.9435 160.834 75.406C161.059 76.8685 161.678 78.2184 162.522 79.1747C163.309 80.0746 164.209 80.5247 165.165 80.5247C165.278 80.5247 165.447 80.5247 165.559 80.4684C166.628 80.2997 167.528 79.5121 168.09 78.3309C168.596 77.1497 168.765 75.6872 168.54 74.2247C168.315 72.7623 167.697 71.4123 166.853 70.4561C165.953 69.4436 164.828 68.9936 163.815 69.1623ZM167.19 77.9372C166.797 78.8372 166.122 79.4559 165.39 79.5684C164.659 79.6809 163.872 79.3435 163.197 78.556C162.465 77.7685 161.959 76.5873 161.79 75.2935C161.565 73.9998 161.734 72.7623 162.184 71.7498C162.634 70.8499 163.253 70.2312 163.984 70.1187C164.097 70.1187 164.153 70.1187 164.265 70.1187C164.94 70.1187 165.615 70.4561 166.178 71.131C166.909 71.9185 167.415 73.0998 167.584 74.3935C167.753 75.6872 167.64 76.9247 167.19 77.9372Z" fill="#191446"/>
<path d="M132.541 78.3309C132.541 79.0621 133.104 79.6246 133.835 79.6246C134.566 79.6246 135.128 79.0621 135.128 78.3309C135.128 77.5996 134.566 77.0371 133.835 77.0371C133.104 77.0371 132.541 77.6559 132.541 78.3309Z" fill="white"/>
<path d="M132.091 78.3308C132.091 79.2871 132.879 80.1308 133.891 80.1308C134.903 80.1308 135.691 79.3433 135.691 78.3308C135.691 77.3184 134.903 76.5309 133.891 76.5309C132.879 76.5309 132.091 77.3746 132.091 78.3308ZM134.678 78.3308C134.678 78.7808 134.341 79.1184 133.891 79.1184C133.441 79.1184 133.104 78.7808 133.104 78.3308C133.104 77.8808 133.441 77.5434 133.891 77.5434C134.341 77.5434 134.678 77.8808 134.678 78.3308Z" fill="white"/>
<path d="M166.965 73.606C166.965 74.281 167.528 74.8434 168.203 74.8434C168.878 74.8434 169.44 74.281 169.44 73.606C169.44 72.931 168.878 72.3686 168.203 72.3686C167.528 72.3686 166.965 72.931 166.965 73.606Z" fill="white"/>
<path d="M166.515 73.606C166.515 74.5622 167.303 75.2935 168.203 75.2935C169.159 75.2935 169.89 74.506 169.89 73.606C169.89 72.6498 169.103 71.9185 168.203 71.9185C167.247 71.9185 166.515 72.6498 166.515 73.606ZM168.934 73.606C168.934 73.9997 168.597 74.3373 168.203 74.3373C167.809 74.3373 167.472 73.9997 167.472 73.606C167.472 73.2123 167.809 72.8747 168.203 72.8747C168.597 72.8747 168.934 73.2123 168.934 73.606Z" fill="white"/>
<path d="M207.746 90.087C204.764 83.6746 202.008 81.4809 200.096 80.8059C202.008 88.3433 201.446 107.524 201.446 107.524C201.446 107.524 201.896 88.512 198.521 80.5247C197.846 80.5247 197.508 80.7496 197.508 80.7496C196.552 78.5559 189.24 70.2873 183.671 70.6248C180.071 70.8498 179.284 73.3248 179.227 75.1247C197.227 72.1435 194.358 109.718 194.358 109.718C194.358 109.718 197.002 74.1685 179.284 76.5309C179.284 76.6997 179.34 76.8685 179.34 76.8685C175.684 79.4559 177.09 83.5057 178.271 85.7557C190.083 83.1683 184.571 109.324 184.571 109.324C184.571 109.324 188.227 84.462 178.89 86.7682C179.171 87.2182 179.34 87.4432 179.34 87.4432C172.196 89.9181 175.628 97.118 172.478 103.812C169.384 110.505 137.716 119.561 128.829 133.23C119.885 146.954 135.072 176.035 135.072 176.035L185.415 167.204C185.415 167.204 182.602 154.098 182.49 148.811C182.377 143.523 190.365 138.686 198.183 128.392C205.889 118.155 208.814 92.4494 207.746 90.087Z" fill="#F9C09D"/>
<path d="M182.716 87.219C182.658 87.1617 182.658 87.1617 182.716 87.219C182.658 87.1617 182.658 87.219 182.716 87.219Z" fill="#F9C09D"/>
<path d="M198.465 128.73C206.227 118.493 209.489 92.7306 208.196 89.9182C205.721 84.5745 203.021 81.3683 200.265 80.412C200.096 80.3558 199.927 80.4121 199.758 80.5246C199.646 80.6371 199.59 80.8058 199.59 81.0308C199.871 82.212 200.096 83.6746 200.321 85.3058C199.927 83.5058 199.477 81.8183 198.915 80.4683C198.858 80.2996 198.633 80.1871 198.465 80.1871C198.127 80.1871 197.902 80.2433 197.677 80.2996C196.158 77.6559 189.409 70.2872 183.896 70.2872C183.784 70.2872 183.671 70.2872 183.559 70.2872C179.509 70.5122 178.721 73.4934 178.609 75.2372C178.609 75.4059 178.665 75.5184 178.777 75.6309C178.89 75.7434 179.059 75.7435 179.171 75.7435C182.265 75.2372 184.965 75.9684 187.102 77.9371C187.721 78.4996 188.227 79.1184 188.734 79.7934C188.452 79.4559 188.171 79.1747 187.834 78.8372C185.471 76.5872 182.49 75.6871 179.059 76.1934C178.946 76.1934 178.834 76.3059 178.721 76.3621C178.665 76.4746 178.609 76.5872 178.609 76.6997C178.609 76.6997 178.609 76.6996 178.609 76.7559C174.953 79.5683 176.415 83.787 177.653 86.0932C177.765 86.262 177.99 86.3744 178.159 86.3181C180.015 85.9244 181.421 86.2058 182.546 87.2745C182.546 87.2745 182.49 87.2744 182.49 87.2182C181.421 86.262 180.071 85.9807 178.496 86.3745C178.328 86.4307 178.215 86.5432 178.159 86.6557C178.103 86.8244 178.103 86.9932 178.215 87.1057C178.271 87.162 178.271 87.2182 178.328 87.2745C174.109 89.0182 173.771 92.6181 173.378 96.3868C173.153 98.7492 172.928 101.224 171.803 103.643C170.565 106.343 163.984 109.661 156.39 113.486C146.097 118.661 133.328 125.074 128.154 133.061C124.385 138.855 124.272 147.911 127.872 160.004C130.516 168.948 134.341 176.26 134.397 176.316C134.51 176.485 134.622 176.597 134.847 176.597C134.903 176.597 134.903 176.597 134.903 176.597L185.246 167.766C185.359 167.766 185.471 167.654 185.584 167.541C185.64 167.429 185.696 167.317 185.64 167.148C185.64 167.035 182.827 154.042 182.771 148.867C182.715 145.829 185.584 142.848 189.577 138.686C192.39 135.873 195.427 132.723 198.465 128.73ZM181.927 148.811C182.04 153.592 184.234 164.335 184.74 166.81L135.241 175.472C133.666 172.266 120.954 146.054 129.166 133.511C134.228 125.749 146.884 119.393 157.009 114.274C165.053 110.224 171.465 107.018 172.871 103.98C174.053 101.393 174.334 98.7492 174.559 96.3868C174.953 92.4494 175.234 89.3556 179.452 87.8931C179.621 87.8369 179.734 87.7245 179.734 87.5557C179.79 87.387 179.734 87.2182 179.677 87.1057C180.634 86.9932 181.421 87.2744 182.096 87.8931C186.54 91.9431 184.065 109.043 184.065 109.212C184.009 109.493 184.177 109.718 184.459 109.774C184.74 109.83 184.965 109.661 185.021 109.38C185.19 108.649 188.677 91.6618 183.502 86.4869C182.209 85.2494 180.577 84.7433 178.553 85.137C177.315 82.6621 176.584 79.3433 179.621 77.2059C179.734 77.1496 179.79 77.0371 179.79 76.9246C182.715 76.6434 185.246 77.4872 187.327 79.3997C195.427 86.9932 193.908 109.268 193.908 109.661C193.908 109.943 194.077 110.168 194.358 110.168C194.64 110.224 194.865 109.999 194.865 109.718C194.921 108.705 196.665 85.0244 187.89 77.0371C185.64 75.0121 182.94 74.1684 179.79 74.5059C180.071 72.3684 181.421 71.1873 183.727 71.0748C189.127 70.7936 196.271 78.8934 197.115 80.9183C197.171 81.0308 197.283 81.1433 197.396 81.1996C197.508 81.2558 197.677 81.2558 197.79 81.1996C197.79 81.1996 197.958 81.0871 198.296 81.0871C201.446 89.0744 201.052 107.355 201.052 107.58C201.052 107.861 201.277 108.087 201.502 108.087C201.783 108.087 202.008 107.862 202.008 107.637C202.008 106.905 202.515 89.7494 200.883 81.7621C202.571 82.7183 204.877 85.0245 207.408 90.3682C208.421 92.5619 205.496 117.986 197.79 128.167C194.752 132.161 191.771 135.255 189.127 138.011C184.852 142.286 181.871 145.379 181.927 148.811Z" fill="#F9C09D"/>
<path d="M178.159 85.7557C178.384 86.1494 178.609 86.4869 178.778 86.7682C188.115 84.462 184.459 109.324 184.459 109.324C184.459 109.324 189.971 83.1682 178.159 85.7557Z" fill="#DA6249"/>
<path d="M182.716 87.219C182.658 87.1617 182.658 87.1617 182.716 87.219C182.658 87.1617 182.658 87.219 182.716 87.219Z" fill="#DA6249"/>
<path d="M184.346 109.83C184.402 109.83 184.402 109.83 184.459 109.83C184.684 109.83 184.909 109.661 184.909 109.436C185.077 108.705 188.565 91.7181 183.39 86.5432C182.04 85.1932 180.24 84.7994 178.046 85.2494C177.878 85.3057 177.765 85.3619 177.709 85.5307C177.653 85.6432 177.653 85.8119 177.709 85.9807C177.934 86.3744 178.159 86.7681 178.328 87.0494C178.44 87.2181 178.665 87.3307 178.834 87.2744C180.071 86.9369 181.14 87.1619 181.984 87.9494C186.427 91.9993 183.952 109.099 183.952 109.268C183.952 109.493 184.121 109.774 184.346 109.83ZM182.659 87.1618C181.871 86.4868 180.971 86.1495 179.959 86.1495C179.678 86.1495 179.34 86.2057 179.003 86.2619C179.003 86.2057 178.946 86.2057 178.946 86.1495C180.465 85.9245 181.702 86.2618 182.659 87.1618C182.715 87.2181 182.659 87.2181 182.659 87.1618Z" fill="#DA6249"/>
<path d="M179.115 75.1247C179.059 75.7434 179.115 76.2496 179.171 76.5309C196.89 74.1684 194.246 109.718 194.246 109.718C194.246 109.718 197.115 72.1435 179.115 75.1247Z" fill="#DA6249"/>
<path d="M193.796 109.661C193.796 109.943 193.965 110.168 194.246 110.168C194.246 110.168 194.246 110.168 194.302 110.168C194.527 110.168 194.752 109.999 194.808 109.718C194.865 108.705 196.608 85.0245 187.833 77.0371C185.471 74.8434 182.546 74.0561 179.115 74.6186C178.89 74.6748 178.721 74.8434 178.721 75.0684C178.665 75.7434 178.721 76.306 178.777 76.5873C178.834 76.8685 179.059 77.0372 179.34 76.981C182.49 76.531 185.19 77.3748 187.327 79.3997C195.315 87.0495 193.796 109.324 193.796 109.661ZM187.89 78.7246C185.921 76.8684 183.559 75.9122 180.859 75.9122C180.465 75.9122 180.071 75.9122 179.621 75.9685C179.621 75.856 179.621 75.6872 179.621 75.5185C182.546 75.1247 185.077 75.856 187.158 77.7684C187.777 78.3309 188.283 78.9497 188.79 79.6246C188.508 79.3434 188.227 79.0059 187.89 78.7246Z" fill="#DA6249"/>
<path d="M200.096 80.8059C199.477 80.5809 198.915 80.5246 198.465 80.5246C201.84 88.512 201.39 107.524 201.39 107.524C201.39 107.524 202.008 88.3432 200.096 80.8059Z" fill="#DA6249"/>
<path d="M201.446 108.03C201.727 108.03 201.952 107.805 201.952 107.58C201.952 106.793 202.515 88.2307 200.602 80.6933C200.546 80.5246 200.433 80.4122 200.321 80.3559C199.702 80.1309 199.083 80.0184 198.521 80.0747C198.352 80.0747 198.24 80.1871 198.127 80.2996C198.015 80.4121 198.015 80.5809 198.071 80.7496C201.39 88.512 200.996 107.355 200.996 107.58C200.94 107.805 201.165 108.03 201.446 108.03ZM199.252 81.0872C199.421 81.1434 199.59 81.1434 199.702 81.1997C199.983 82.3246 200.208 83.6745 200.377 85.1932C200.04 83.6745 199.646 82.2684 199.252 81.0872Z" fill="#DA6249"/>
<path d="M129.56 174.573C127.816 176.766 135.803 208.434 139.347 205.959C142.891 203.485 193.571 191.447 193.571 191.447C193.571 191.447 191.096 166.135 189.015 164.448C186.877 162.704 145.535 154.548 129.56 174.573Z" fill="#504566"/>
<path d="M164.49 160.848C153.072 161.073 137.716 163.604 129.222 174.235C127.31 176.654 134.06 202.022 137.603 205.791C138.11 206.353 138.56 206.522 138.953 206.522C139.235 206.522 139.516 206.409 139.628 206.297C142.385 204.384 176.19 196.003 193.683 191.841C193.908 191.785 194.077 191.56 194.077 191.335C193.683 187.06 191.434 165.685 189.352 163.998C187.946 162.985 176.696 160.623 164.49 160.848ZM193.009 190.997C187.834 192.235 142.497 203.091 139.066 205.51C139.01 205.566 138.841 205.678 138.335 205.172C134.229 200.953 128.941 176.204 129.954 174.854C138.222 164.504 153.691 161.748 166.684 161.748C178.103 161.748 187.609 163.829 188.677 164.729C190.027 165.854 191.996 181.266 193.009 190.997Z" fill="#504566"/>
<path d="M79.2734 257.765C73.6485 234.365 50.3053 144.367 25.7245 155.223C-2.51236 167.71 -8.36225 305.801 14.9248 326.669C33.7681 343.544 130.516 339.607 173.434 327.851C149.753 313.62 139.572 264.683 136.085 254.783C120.729 254.952 95.8105 256.415 80.5109 263.221C80.5109 263.221 80.4546 262.883 80.2859 262.208C75.786 264.008 66.1674 267.777 58.0676 276.271C58.4613 273.346 69.8799 255.458 79.2734 257.765Z" fill="#FCD375"/>
<path d="M71.1736 260.408C74.0985 258.383 76.7985 257.652 79.1609 258.271C79.3297 258.327 79.4984 258.271 79.6109 258.158C79.7234 258.046 79.7797 257.877 79.7234 257.708C74.6048 236.334 56.2114 165.685 35.1181 155.223C31.8557 153.592 28.5933 153.479 25.4996 154.829C12.7873 160.454 6.43122 189.085 3.84378 205.678C-3.52481 251.858 -0.487375 313.563 14.5873 327.063C23.6434 335.219 50.474 338.594 80.6796 338.594C113.754 338.594 150.991 334.544 173.603 328.357C173.771 328.301 173.94 328.132 173.94 327.963C173.94 327.794 173.884 327.569 173.715 327.457C153.859 315.532 143.622 279.252 138.728 261.814C137.828 258.664 137.153 256.19 136.591 254.671C136.535 254.502 136.366 254.333 136.141 254.333C122.191 254.502 96.5981 255.796 80.9046 262.602L80.7921 262.152C80.7359 262.039 80.6796 261.871 80.5671 261.814C80.4546 261.758 80.2859 261.758 80.1734 261.814L79.9484 261.927C75.6735 263.614 67.0674 267.046 59.4176 274.358C61.2175 270.758 65.8862 264.008 71.1736 260.408ZM57.6176 276.27C57.6176 276.495 57.6739 276.664 57.8989 276.777C58.0676 276.889 58.2926 276.833 58.4614 276.664C66.1674 268.564 75.336 264.796 79.9484 262.939L80.0609 263.389C80.1171 263.558 80.1734 263.671 80.3421 263.727C80.4546 263.783 80.6234 263.783 80.7359 263.727C96.0918 256.865 121.685 255.515 135.747 255.346C136.253 256.865 136.928 259.227 137.716 262.152C142.61 279.42 152.622 315.138 172.196 327.794C150.934 333.475 116.904 337.3 85.067 337.638C49.0116 338.032 23.5309 333.925 15.1498 326.444C8.28744 320.313 3.50629 303.27 1.65008 278.464C-0.037385 255.627 1.08759 228.515 4.68751 205.959C9.13117 178.06 16.8373 159.779 25.7808 155.842C27.0745 155.279 28.4245 154.998 29.7182 154.998C31.2932 154.998 32.9244 155.392 34.5556 156.235C55.0302 166.36 73.1423 235.209 78.4859 257.314C76.0672 256.977 73.3673 257.765 70.4986 259.733C63.9737 264.121 57.9551 273.852 57.6176 276.27Z" fill="#FCD375"/>
<path d="M136.085 254.783C139.516 264.683 149.697 313.676 173.434 327.851C183.502 325.094 190.646 321.888 193.121 318.401C206.002 300.176 149.528 254.896 149.528 254.896C149.528 254.896 144.128 254.727 136.085 254.783Z" fill="#E8AE37"/>
<path d="M149.809 254.558C149.753 254.502 149.641 254.446 149.528 254.446C149.472 254.446 144.016 254.221 136.141 254.277C135.972 254.277 135.86 254.333 135.747 254.502C135.635 254.615 135.635 254.783 135.691 254.952C136.197 256.471 136.928 258.946 137.772 262.039C142.722 279.589 153.016 316.151 173.209 328.244C173.265 328.301 173.378 328.301 173.434 328.301C173.49 328.301 173.546 328.301 173.546 328.301C184.346 325.319 191.04 322.113 193.458 318.682C198.971 310.92 193.233 297.701 176.471 279.477C164.097 266.089 149.922 254.671 149.809 254.558ZM192.727 318.176C190.477 321.326 183.84 324.532 173.546 327.344C153.803 315.307 143.622 279.195 138.728 261.814C137.941 259.058 137.322 256.808 136.816 255.29C143.622 255.233 148.403 255.402 149.359 255.458C152.228 257.821 204.877 300.907 192.727 318.176Z" fill="#E8AE37"/>
<path d="M58.1238 276.327C66.1674 267.833 75.8422 264.064 80.3421 262.265C80.1171 261.365 79.7796 259.846 79.2733 257.765C69.8798 255.458 58.4613 273.346 58.1238 276.327Z" fill="#E8AE37"/>
<path d="M79.3859 257.315C76.7422 256.64 73.8173 257.427 70.6111 259.621C63.9737 264.121 57.8989 273.852 57.6176 276.271C57.6176 276.496 57.6739 276.664 57.8989 276.777C57.9551 276.833 58.0114 276.833 58.1239 276.833C58.2363 276.833 58.4051 276.777 58.4613 276.664C66.3362 268.339 75.7297 264.627 80.2859 262.827L80.5109 262.715C80.7359 262.602 80.8484 262.377 80.7921 262.152C80.5671 261.252 80.2296 259.677 79.7234 257.652C79.6671 257.483 79.5546 257.371 79.3859 257.315ZM59.4176 274.358C61.2738 270.758 65.9424 264.008 71.1736 260.408C73.4798 258.833 75.6172 258.046 77.5297 258.046C77.9797 258.046 78.4297 258.102 78.8797 258.158C79.2734 259.79 79.5546 261.083 79.7796 261.927C75.3922 263.671 66.9549 267.102 59.4176 274.358Z" fill="#E8AE37"/>
<path d="M235.645 279.983C235.645 279.983 235.533 285.27 223.833 282.964C213.877 281.052 200.096 218.615 196.102 199.659C191.884 221.147 172.028 331.619 207.971 326.501C247.739 320.819 255.838 275.652 256.682 245.334C257.526 215.016 256.288 153.142 232.608 145.886C212.808 139.867 201.165 178.904 197.846 191.897C205.439 191.447 222.989 215.972 226.589 221.878C230.751 228.74 231.314 239.259 231.314 239.259C233.733 249.777 237.276 280.77 235.645 279.983Z" fill="#FCD375"/>
<path d="M235.42 279.589C235.308 279.645 235.195 279.814 235.195 279.983C235.195 280.039 235.139 280.995 234.07 281.783C232.833 282.795 230.076 283.695 223.945 282.514C216.295 281.052 204.821 238.696 196.608 199.603C196.552 199.378 196.383 199.21 196.158 199.21C195.877 199.21 195.708 199.378 195.708 199.603C192.39 216.647 176.696 302.82 195.765 322.901C198.465 325.769 201.84 327.232 205.664 327.232C206.452 327.232 207.239 327.176 208.083 327.063C249.032 321.213 256.401 273.402 257.188 245.446C259.382 165.685 242.789 148.586 232.776 145.548C228.895 144.367 225.07 144.817 221.414 146.898C208.196 154.323 200.265 180.873 197.452 191.897C197.396 192.066 197.452 192.178 197.565 192.347C197.677 192.46 197.79 192.516 197.958 192.516C198.015 192.516 198.071 192.516 198.127 192.516C205.158 192.516 221.808 215.016 226.195 222.272C230.245 228.965 230.864 239.315 230.864 239.54C233.339 250.002 236.32 277.058 235.533 279.645C235.476 279.533 235.42 279.533 235.42 279.589ZM231.764 239.315C231.764 238.865 231.145 228.572 226.983 221.709C224.733 217.941 207.127 192.347 198.465 191.56C201.39 180.31 209.152 154.886 221.808 147.742C225.239 145.83 228.783 145.379 232.439 146.504C256.12 153.704 256.963 218.109 256.176 245.446C255.445 273.121 248.132 320.37 207.914 326.107C203.302 326.782 199.477 325.488 196.44 322.282C178.44 303.326 192.108 223.565 196.158 202.191C201.615 227.84 214.158 281.614 223.777 283.47C229.008 284.483 232.72 284.202 234.745 282.514C235.701 281.727 236.039 280.827 236.151 280.32C237.951 278.858 233.508 246.627 231.764 239.315Z" fill="#FCD375"/>
<path d="M197.846 191.953C197.171 194.485 196.89 196.06 196.89 196.06C196.89 196.06 196.608 197.353 196.158 199.659C200.152 218.615 213.933 280.995 223.889 282.964C235.589 285.214 235.701 279.983 235.701 279.983C237.333 280.77 233.789 249.777 231.314 239.315C231.314 239.315 230.751 228.796 226.589 221.934C222.989 216.028 205.44 191.503 197.846 191.953Z" fill="#E8AE37"/>
<path d="M198.015 191.503C197.958 191.503 197.846 191.503 197.79 191.503C197.565 191.503 197.396 191.672 197.34 191.841C196.721 194.372 196.383 196.003 196.327 196.003C196.327 196.003 196.046 197.297 195.596 199.603C195.596 199.66 195.596 199.716 195.596 199.772C200.715 224.297 213.764 281.502 223.72 283.414C225.745 283.808 227.489 283.977 229.064 283.977C231.539 283.977 233.451 283.47 234.689 282.458C235.645 281.67 235.983 280.77 236.095 280.264C237.839 278.802 233.789 247.64 231.764 239.202C231.764 238.752 231.145 228.459 226.983 221.596C224.62 217.884 206.508 191.503 198.015 191.503ZM235.476 279.533C235.476 279.533 235.42 279.533 235.42 279.589C235.308 279.645 235.195 279.814 235.195 279.983C235.195 280.039 235.139 280.995 234.07 281.783C232.833 282.795 230.076 283.695 223.945 282.514C216.296 281.052 204.821 238.809 196.608 199.716C197.058 197.466 197.34 196.228 197.34 196.228C197.34 196.228 197.621 194.766 198.24 192.46C205.383 192.797 221.808 215.015 226.139 222.159C230.189 228.853 230.808 239.202 230.808 239.427C233.283 249.89 236.208 276.945 235.476 279.533Z" fill="#E8AE37"/>
<path d="M166.909 190.997C151.947 194.71 136.141 202.359 131.922 211.359C129.11 217.265 137.828 266.596 162.353 299.107C186.877 331.619 208.027 328.919 221.358 322.676C234.633 316.432 237.558 304.395 234.633 271.152C231.708 237.909 204.314 200.11 199.983 194.316C195.708 188.466 181.871 187.229 166.909 190.997Z" fill="#FCD375"/>
<path d="M166.797 190.491C153.409 193.866 136.141 201.235 131.472 211.134C128.66 217.097 136.985 266.258 161.959 299.389C175.853 317.782 190.196 327.063 204.877 327.007C210.389 327.007 215.958 325.713 221.527 323.069C234.858 316.826 238.008 304.676 235.083 271.095C232.214 238.471 205.664 201.178 200.377 193.978C195.99 188.072 182.209 186.666 166.797 190.491ZM221.133 322.226C201.165 331.563 181.534 323.688 162.747 298.77C138.503 266.652 129.672 217.209 132.372 211.528C136.591 202.584 152.847 194.991 167.022 191.447C172.759 189.985 178.271 189.31 183.109 189.31C190.927 189.31 197.002 191.11 199.59 194.597C204.877 201.684 231.314 238.809 234.126 271.208C237.108 304.676 234.183 316.095 221.133 322.226Z" fill="#FCD375"/>
<path d="M90.2982 146.561C89.9045 152.186 101.942 199.491 103.798 202.416C105.654 205.341 105.879 196.791 111.504 183.741C117.129 170.635 125.904 176.204 125.904 176.204C125.904 176.204 100.986 143.13 99.973 136.042C99.973 136.042 90.692 140.936 90.2982 146.561Z" fill="#504566"/>
<path d="M100.198 135.592C100.029 135.536 99.9168 135.536 99.748 135.592C99.3543 135.817 90.242 140.655 89.8482 146.504C89.4545 152.186 101.604 199.828 103.404 202.641C103.517 202.866 103.91 203.428 104.473 203.428C104.529 203.428 104.529 203.428 104.585 203.428C105.542 203.316 105.935 201.797 107.004 198.141C107.96 194.822 109.423 189.76 111.954 183.854C113.866 179.41 116.285 176.71 119.266 175.81C122.698 174.741 125.679 176.541 125.679 176.598C125.847 176.71 126.129 176.71 126.297 176.541C126.466 176.373 126.466 176.091 126.354 175.923C126.129 175.585 101.492 142.848 100.479 135.986C100.423 135.817 100.311 135.705 100.198 135.592ZM118.929 174.91C115.723 175.923 113.023 178.791 110.998 183.516C108.467 189.479 107.004 194.541 106.048 197.916C105.373 200.166 104.81 202.303 104.473 202.528C104.473 202.528 104.36 202.472 104.192 202.191C102.392 199.378 90.3545 152.242 90.7482 146.673C91.0857 142.173 97.6106 138.011 99.5793 136.886C101.604 144.198 119.604 168.723 124.385 175.079C123.091 174.573 121.123 174.235 118.929 174.91Z" fill="#504566"/>
<path d="M179.678 182.954C183.002 182.954 185.696 180.259 185.696 176.935C185.696 173.611 183.002 170.916 179.678 170.916C176.354 170.916 173.659 173.611 173.659 176.935C173.659 180.259 176.354 182.954 179.678 182.954Z" fill="#191446"/>
<path d="M173.153 176.935C173.153 180.535 176.078 183.46 179.678 183.46C183.277 183.46 186.202 180.535 186.202 176.935C186.202 173.335 183.277 170.41 179.678 170.41C176.078 170.41 173.153 173.335 173.153 176.935ZM185.19 176.935C185.19 179.972 182.715 182.447 179.678 182.447C176.64 182.447 174.165 179.972 174.165 176.935C174.165 173.898 176.64 171.423 179.678 171.423C182.715 171.423 185.19 173.898 185.19 176.935Z" fill="#191446"/>
<path d="M179.959 181.097C183.283 181.097 185.977 178.403 185.977 175.079C185.977 171.755 183.283 169.06 179.959 169.06C176.635 169.06 173.94 171.755 173.94 175.079C173.94 178.403 176.635 181.097 179.959 181.097Z" fill="#C0C3D6"/>
<path d="M173.49 175.079C173.49 178.679 176.415 181.604 180.015 181.604C183.615 181.604 186.54 178.679 186.54 175.079C186.54 171.479 183.615 168.554 180.015 168.554C176.359 168.61 173.49 171.535 173.49 175.079ZM185.527 175.079C185.527 178.116 183.052 180.591 180.015 180.591C176.978 180.591 174.503 178.116 174.503 175.079C174.503 172.041 176.978 169.566 180.015 169.566C182.996 169.566 185.527 172.041 185.527 175.079Z" fill="#C0C3D6"/>
</svg>
