<svg width="62" height="62" viewBox="0 0 62 62" fill="none" xmlns="http://www.w3.org/2000/svg">
<g filter="url(#filter0_i_18013_2230)">
<path d="M62 31C62 48.1208 48.1208 62 31 62C13.8792 62 0 48.1208 0 31C0 13.8792 13.8792 0 31 0C48.1208 0 62 13.8792 62 31Z" fill="#FAFAFA"/>
</g>
<path fill-rule="evenodd" clip-rule="evenodd" d="M31.4099 21.61C31.9566 21.0633 32.843 21.0633 33.3898 21.61L41.7898 30.01C42.3365 30.5567 42.3365 31.4432 41.7898 31.9899L33.3898 40.3899C32.843 40.9366 31.9566 40.9366 31.4099 40.3899C30.8631 39.8432 30.8631 38.9567 31.4099 38.41L37.4199 32.4L21.1998 32.4C20.4266 32.4 19.7998 31.7731 19.7998 31C19.7998 30.2268 20.4266 29.6 21.1998 29.6H37.4199L31.4099 23.5899C30.8631 23.0432 30.8631 22.1567 31.4099 21.61Z" fill="#1F2937"/>
<defs>
<filter id="filter0_i_18013_2230" x="0" y="0" width="62" height="68" filterUnits="userSpaceOnUse" color-interpolation-filters="sRGB">
<feFlood flood-opacity="0" result="BackgroundImageFix"/>
<feBlend mode="normal" in="SourceGraphic" in2="BackgroundImageFix" result="shape"/>
<feColorMatrix in="SourceAlpha" type="matrix" values="0 0 0 0 0 0 0 0 0 0 0 0 0 0 0 0 0 0 127 0" result="hardAlpha"/>
<feOffset dy="6"/>
<feGaussianBlur stdDeviation="7.5"/>
<feComposite in2="hardAlpha" operator="arithmetic" k2="-1" k3="1"/>
<feColorMatrix type="matrix" values="0 0 0 0 0.0627451 0 0 0 0 0.0941176 0 0 0 0 0.156863 0 0 0 0.08 0"/>
<feBlend mode="normal" in2="shape" result="effect1_innerShadow_18013_2230"/>
</filter>
</defs>
</svg>
