<svg width="181" height="367" viewBox="0 0 181 367" fill="none" xmlns="http://www.w3.org/2000/svg">
<path d="M103.952 133.399C103.952 133.399 113.207 107.067 108.323 105.084C103.438 103.138 81.1836 107.031 75.2711 106.737C69.3585 106.443 62.6747 98.1067 56.248 97.3722C49.8213 96.6378 35.7927 102.881 34.691 104.387C33.5893 105.929 34.8379 109.528 34.691 112.833C34.3972 119.37 103.952 133.399 103.952 133.399Z" fill="#F9C09D"/>
<path d="M103.879 133.692C103.916 133.692 103.916 133.692 103.953 133.692C104.099 133.692 104.21 133.619 104.246 133.472C105.201 130.754 113.464 106.774 108.433 104.79C105.348 103.542 95.7264 104.57 87.2064 105.488C82.2119 106.039 77.4745 106.516 75.2711 106.406C72.4066 106.259 69.3218 104.129 66.0901 101.926C62.8584 99.7226 59.5532 97.4456 56.2848 97.0784C49.9315 96.3806 35.7561 102.44 34.434 104.24C33.6628 105.268 33.8831 106.994 34.1402 109.014C34.2871 110.262 34.434 111.584 34.3972 112.833C34.0667 119.407 96.7546 132.26 103.879 133.692ZM34.9481 104.607C35.9397 103.248 48.4258 97.666 55.1463 97.666C55.5136 97.666 55.8808 97.7027 56.248 97.7394C59.3696 98.07 62.6013 100.31 65.7595 102.477C69.1014 104.754 72.223 106.92 75.2711 107.067C77.548 107.178 82.0651 106.7 87.3166 106.149C95.3224 105.305 105.275 104.203 108.213 105.415C111.958 106.92 106.34 125.613 103.732 133.068C75.8954 127.449 34.8012 117.46 34.9849 112.906C35.0583 111.584 34.8746 110.262 34.7277 108.977C34.5441 107.104 34.3605 105.415 34.9481 104.607Z" fill="#F9C09D"/>
<path d="M50.9598 119.664C54.3752 116.285 63.042 117.203 63.042 117.203C63.042 117.203 60.8752 105.635 60.0673 103.983C59.2594 102.367 43.6517 104.717 43.1376 106.627C42.6235 108.573 47.5445 123.042 50.9598 119.664Z" fill="#CE5041"/>
<path d="M49.8581 120.472C50.3355 120.472 50.7762 120.251 51.1801 119.884C54.4486 116.652 62.9318 117.497 63.0052 117.497C63.1154 117.497 63.1889 117.46 63.2624 117.387C63.3358 117.313 63.3725 117.203 63.3358 117.13C63.2624 116.652 61.1691 105.488 60.3245 103.836C59.9572 103.101 57.8639 102.918 54.0814 103.322C50.5926 103.689 43.2477 104.937 42.807 106.553C42.3296 108.426 45.6715 118.378 48.7931 120.178C49.1603 120.398 49.4909 120.472 49.8581 120.472ZM43.4314 106.737C43.6518 105.966 48.4626 104.57 54.1548 103.946C55.5136 103.799 56.5786 103.762 57.3865 103.762C58.9289 103.762 59.6634 103.946 59.7368 104.129C60.3611 105.341 61.8301 112.76 62.6013 116.836C60.8019 116.689 53.7875 116.359 50.7027 119.443C50.2253 119.921 49.7112 119.994 49.0869 119.627C46.2224 117.938 43.0642 108.169 43.4314 106.737Z" fill="#CE5041"/>
<path d="M106.891 140.927C109.021 137.658 105.275 116.101 105.275 116.101C105.275 116.101 91.797 125.319 77.2176 120.802C62.6382 116.285 104.761 144.159 106.891 140.927Z" fill="#E68262"/>
<path d="M98.5176 138.466C103.145 140.927 105.238 141.514 106.23 141.514C106.891 141.514 107.038 141.257 107.148 141.111C109.314 137.805 105.715 116.946 105.569 116.065C105.532 115.955 105.495 115.881 105.385 115.844C105.275 115.808 105.165 115.808 105.091 115.881C104.944 115.955 91.54 124.952 77.2911 120.545C75.1611 119.884 74.1328 119.884 73.8757 120.508C73.7288 120.876 73.2514 122.051 82.212 128.404C87.4269 132.003 93.67 135.896 98.5176 138.466ZM74.4633 120.655C74.4633 120.655 74.5368 120.582 74.8306 120.582C75.1978 120.582 75.8588 120.655 77.1074 121.059C90.2546 125.136 102.667 118.048 105.054 116.579C106.34 124.144 108.249 138.283 106.634 140.707C106.56 140.78 105.862 141.478 99.8029 138.356C95.1022 135.932 88.5653 131.929 83.1301 128.11C75.6752 122.932 74.3532 120.986 74.4633 120.655Z" fill="#E68262"/>
<path d="M44.6066 112.833L43.5783 109.418C43.5783 109.418 39.7222 111.438 38.7674 112.796C37.8126 114.229 44.6066 112.833 44.6066 112.833Z" fill="#CE5041"/>
<path d="M40.0161 113.751C41.3749 113.751 43.358 113.421 44.68 113.127C44.7535 113.127 44.827 113.053 44.9004 112.98C44.9739 112.906 44.9738 112.796 44.9371 112.723L43.9088 109.308C43.8721 109.234 43.7986 109.161 43.7252 109.124C43.6517 109.087 43.5416 109.087 43.4681 109.124C43.3212 109.197 39.502 111.18 38.5472 112.613C38.3268 112.943 38.4003 113.2 38.4737 113.31C38.6206 113.641 39.2082 113.751 40.0161 113.751ZM43.3947 109.895L44.2026 112.576C41.8523 113.017 39.2817 113.274 39.0246 112.98C39.7591 111.952 42.4399 110.446 43.3947 109.895Z" fill="#CE5041"/>
<path d="M54.9627 104.607C54.9627 104.607 56.0644 101.118 57.0192 100.053C56.1746 100.788 54.4118 102.807 53.8242 105.415C53.0897 108.683 54.9627 104.607 54.9627 104.607Z" fill="#CE5041"/>
<path d="M57.3865 99.796C57.2764 99.8327 57.1295 99.9429 57.0193 100.053C57.1662 99.9429 57.3131 99.8327 57.3865 99.796Z" fill="#CE5041"/>
<path d="M53.7508 107.031C53.9711 107.031 54.3384 106.737 55.2565 104.754V104.717C55.8808 102.771 56.652 101.008 57.1662 100.347C57.3131 100.237 57.4232 100.127 57.4966 100.09C57.6068 100.09 57.717 100.016 57.7904 99.9062C57.8272 99.796 57.8272 99.6491 57.717 99.5757C57.6436 99.5022 57.4599 99.4655 57.3498 99.4655C57.3131 99.4655 57.2763 99.5022 57.2396 99.5022C57.1294 99.5389 56.9825 99.6491 56.8723 99.7593C55.9175 100.53 54.1181 102.697 53.4938 105.341C53.2734 106.37 53.2367 106.847 53.6039 106.957C53.6407 107.031 53.6774 107.031 53.7508 107.031ZM54.118 105.525C54.3751 104.46 54.8158 103.505 55.2932 102.697C55.0361 103.395 54.8158 104.019 54.6689 104.497C54.4853 104.864 54.3017 105.268 54.118 105.635C54.118 105.598 54.118 105.562 54.118 105.525Z" fill="#CE5041"/>
<path d="M50.0785 89.6235C48.3525 98.5841 46.149 116.762 46.149 116.762L51.5108 118.305C51.5108 118.305 54.5222 100.42 55.7341 91.3495C53.3837 90.0641 51.4373 89.6602 50.0785 89.6235Z" fill="#191446"/>
<path d="M51.4373 118.635C51.474 118.635 51.5108 118.635 51.5108 118.635C51.5843 118.635 51.621 118.635 51.6944 118.599C51.7679 118.562 51.8413 118.489 51.8413 118.378C51.878 118.195 54.8894 100.384 56.0646 91.4229C56.0646 91.276 56.0279 91.1659 55.9177 91.0924C53.4205 89.6969 51.3639 89.3297 50.1153 89.2929C49.9317 89.2562 49.8214 89.4031 49.7847 89.55C48.0587 98.4005 45.892 116.542 45.8553 116.726C45.8185 116.873 45.9287 117.02 46.0756 117.056L51.4373 118.635ZM50.3356 89.9539C51.5107 90.0274 53.2735 90.3946 55.4035 91.5698C54.3018 99.8694 51.6944 115.404 51.2537 117.938L46.4796 116.542C46.7733 114.302 48.7564 98.2903 50.3356 89.9539Z" fill="#191446"/>
<path d="M56.1747 86.2815C55.5504 85.4736 53.5673 84.3351 51.5108 84.7758C51.1435 84.8493 50.6294 86.759 50.0785 89.6234C51.4373 89.6969 53.3837 90.0641 55.734 91.3862C56.138 88.485 56.3216 86.4651 56.1747 86.2815Z" fill="#E46790"/>
<path d="M55.5871 91.68C55.6239 91.7167 55.6974 91.7167 55.7341 91.7167C55.7708 91.7167 55.8442 91.7167 55.8809 91.68C55.9911 91.6433 56.0278 91.5331 56.0646 91.4229C56.7256 86.4284 56.5787 86.2448 56.4318 86.0612C55.6973 85.1064 53.5673 83.9679 51.4373 84.4453C51.1435 84.5188 50.7029 84.5922 49.7481 89.55C49.7113 89.6234 49.748 89.7336 49.8215 89.8071C49.8949 89.8805 49.9684 89.9172 50.0419 89.9172C51.2538 89.9907 53.2001 90.3212 55.5871 91.68ZM51.5843 85.0697C53.5674 84.629 55.3668 85.7307 55.9177 86.3917C55.9544 86.5754 55.9544 87.3833 55.5137 90.872C53.4204 89.7703 51.6577 89.4031 50.4825 89.2929C51.1803 85.694 51.5475 85.1431 51.5843 85.0697Z" fill="#E46790"/>
<path d="M57.4599 113.714C60.104 114.412 65.6126 119.407 69.3952 119.627C73.1411 119.847 73.141 106.443 73.141 106.443C73.141 106.443 61.4628 98.6208 58.8187 99.3186C56.1745 100.016 55.4768 103.983 55.4768 103.983C54.5587 106.223 41.8522 110.373 40.8239 114.045C39.7956 117.717 49.7845 118.709 49.7845 118.709C49.7845 118.709 54.8158 113.017 57.4599 113.714Z" fill="#F9C09D"/>
<path d="M49.7111 119.039C49.8213 119.039 49.9314 119.003 49.9682 118.929C51.3637 117.387 55.3667 113.457 57.3865 114.008C58.378 114.265 59.9204 115.257 61.5362 116.285C64.1069 117.938 67.0081 119.774 69.3585 119.921C69.3952 119.921 69.4319 119.921 69.4686 119.921C69.9461 119.921 70.4235 119.737 70.8274 119.333C73.4348 116.873 73.4349 106.847 73.4349 106.406C73.4349 106.296 73.3981 106.186 73.2879 106.149C72.076 105.341 61.3893 98.2536 58.7085 98.9881C56.0276 99.7225 55.2197 103.432 55.1463 103.872C54.7423 104.717 52.0615 106.113 49.4908 107.435C45.5613 109.454 41.1177 111.731 40.5301 113.935C40.3465 114.596 40.4567 115.183 40.8239 115.771C42.5132 118.305 49.4173 119.039 49.7111 119.039ZM41.1177 114.155C41.6686 112.209 46.1489 109.895 49.7845 108.022C53.2366 106.259 55.3666 105.121 55.7706 104.093C55.7706 104.056 55.7706 104.056 55.8073 104.019C55.8073 103.983 56.5051 100.237 58.9289 99.5756C60.9487 99.0615 69.5421 104.35 72.884 106.553C72.884 107.875 72.7004 116.726 70.4969 118.856C70.2031 119.15 69.8726 119.296 69.5054 119.26C67.3387 119.15 64.4742 117.313 61.977 115.734C60.2509 114.632 58.7452 113.678 57.6435 113.384C57.4599 113.347 57.2763 113.31 57.0927 113.31C54.4485 113.31 50.4456 117.57 49.7111 118.378C48.6828 118.268 42.807 117.46 41.4115 115.404C41.0443 115.036 40.9708 114.596 41.1177 114.155Z" fill="#F9C09D"/>
<path d="M123.784 89.0358C123.784 89.0358 115.704 65.0551 112.142 67.8461C112.142 67.8461 108.249 79.0102 110.306 89.0358C112.362 99.0615 123.784 89.0358 123.784 89.0358Z" fill="#FCD375"/>
<path d="M113.244 93.5896C113.721 93.7365 114.235 93.81 114.75 93.81C118.789 93.81 123.784 89.4766 124.004 89.2562C124.114 89.1828 124.151 89.0359 124.077 88.9257C123.784 88.0811 117.173 68.5439 113.207 67.332C112.766 67.1851 112.326 67.2585 111.958 67.5523C111.922 67.589 111.885 67.6258 111.848 67.6992C111.812 67.8094 107.956 79.047 110.012 89.0726C110.526 91.5331 111.591 93.0388 113.244 93.5896ZM112.436 68.0297C112.62 67.9196 112.803 67.8829 113.024 67.9563C116.035 68.8744 121.47 83.1968 123.416 88.9257C122.425 89.7704 116.953 94.1405 113.427 92.9654C112.032 92.4879 111.077 91.1291 110.636 88.9624C108.69 79.5978 112.069 69.1315 112.436 68.0297Z" fill="#FCD375"/>
<path d="M88.3817 34.1335C97.122 29.0655 126.207 47.5377 126.207 47.5377C126.207 47.5377 129.476 47.3541 130.467 39.0177C131.496 30.6814 128.631 -0.423857 112.987 0.384071C97.3424 1.192 86.1416 17.8647 81.0369 21.1331C75.969 24.4016 66.2004 26.8254 67.0084 32.334C67.853 37.8059 79.6414 39.2014 88.3817 34.1335Z" fill="#191446"/>
<path d="M70.093 36.3001C74.1327 38.2465 81.9916 38.2465 88.5652 34.3905C97.0485 29.4695 125.767 47.6112 126.061 47.7948C126.097 47.8315 126.171 47.8315 126.244 47.8315C126.244 47.8315 126.244 47.8315 126.281 47.8315C126.428 47.8315 129.806 47.5377 130.835 39.0177C131.643 32.5543 130.21 12.6131 122.131 3.94628C119.524 1.15525 116.439 -0.166817 112.987 0.0168028C101.308 0.641111 92.1275 9.89557 86.068 16.0652C83.9013 18.2686 82.212 19.9947 80.89 20.8026C79.5312 21.684 77.8051 22.4919 76.0056 23.3366C71.1214 25.6502 66.0901 28.074 66.7145 32.2972C66.9715 33.9865 68.1099 35.3453 70.093 36.3001ZM76.2995 23.9609C78.0989 23.0795 79.825 22.2716 81.2572 21.3902C82.616 20.5088 84.342 18.7828 86.5454 16.5426C92.5314 10.4831 101.602 1.26542 113.06 0.677831C116.329 0.530935 119.23 1.77956 121.69 4.42369C129.513 12.7968 130.981 32.7746 130.21 38.981C129.329 46.1055 126.832 47.097 126.318 47.2072C124.408 45.9953 103.475 32.9215 92.4213 32.9215C90.8054 32.9215 89.3732 33.2153 88.2714 33.8396C81.8815 37.5488 74.2796 37.5855 70.3869 35.7126C68.6241 34.8679 67.5958 33.656 67.3755 32.2238C66.7879 28.4779 71.6355 26.201 76.2995 23.9609Z" fill="#191446"/>
<path d="M41.8523 178.753C41.8523 178.753 38.7675 181.507 38.8776 187.493C39.0245 193.479 55.3668 194.874 55.3668 194.874C55.3668 194.874 44.6801 175.264 41.8523 178.753Z" fill="#191446"/>
<path d="M55.3668 195.168C55.4769 195.168 55.5871 195.132 55.6238 195.021C55.6973 194.911 55.6973 194.801 55.6238 194.691C55.2566 194.03 46.6631 178.349 42.8071 177.981C42.3297 177.945 41.9258 178.092 41.5953 178.496C41.3015 178.753 38.4002 181.58 38.5471 187.456C38.7308 193.663 54.669 195.132 55.3668 195.168ZM39.2082 187.456C39.0613 181.727 42.0359 178.973 42.0726 178.973L42.1094 178.936C42.2562 178.753 42.4766 178.642 42.697 178.642C42.7337 178.642 42.7704 178.642 42.7704 178.642C45.5982 178.9 52.135 189.696 54.7791 194.471C51.8779 194.177 39.3184 192.487 39.2082 187.456Z" fill="#191446"/>
<path d="M104.099 245.664C104.136 245.701 109.021 254.367 115.411 264.063C116.769 261.933 118.091 259.105 119.009 255.249C114.015 251.87 108.763 248.455 104.099 245.664Z" fill="#FABA89"/>
<path d="M115.411 264.393C115.521 264.393 115.631 264.356 115.668 264.246C117.247 261.786 118.495 258.811 119.303 255.322C119.34 255.212 119.267 255.065 119.156 254.992C113.427 251.099 108.433 247.867 104.246 245.407C104.136 245.333 103.953 245.37 103.879 245.443C103.769 245.554 103.769 245.701 103.842 245.811C104.063 246.178 108.91 254.735 115.153 264.246C115.19 264.32 115.3 264.393 115.411 264.393ZM118.642 255.396C117.871 258.517 116.769 261.235 115.411 263.475C110.526 255.947 106.487 249.116 105.018 246.545C108.874 248.932 113.464 251.907 118.642 255.396Z" fill="#FABA89"/>
<path d="M56.9458 195.425C56.6887 188.154 46.2958 180.589 46.2958 180.589C46.2958 180.589 11.9221 188.521 14.1623 210.482C15.8883 227.412 39.612 247.463 60.2509 261.455C60.9854 260.133 61.0957 258.187 59.6634 255.249C55.587 246.876 42.8438 221.095 48.8298 217.056C54.1181 213.457 74.3897 257.379 76.1892 271.517C76.5197 271.701 76.887 271.921 77.2175 272.105C81.4775 274.566 85.5539 277.32 89.3364 280.148L98.3705 275.337C92.4579 262.41 87.8675 249.52 90.8054 245.664C92.4213 243.57 94.1472 242.138 95.8732 241.183C93.9636 240.302 92.3478 239.714 91.2093 239.568C82.065 238.356 88.1612 188.301 88.1612 188.301L51.4372 181.544C58.1577 184.959 66.1635 194.874 66.1635 194.874C66.1635 194.874 57.2029 202.66 56.9458 195.425Z" fill="#FABA89"/>
<path d="M58.4515 198.033C57.717 197.702 57.313 196.821 57.2396 195.389C56.9458 188.044 46.8834 180.626 46.4794 180.295C46.406 180.258 46.2958 180.222 46.2224 180.258C45.8919 180.332 11.5916 188.521 13.8318 210.482C15.7415 229.065 43.615 250.548 60.0673 261.712C60.1408 261.749 60.2143 261.786 60.3245 261.749C60.3979 261.712 60.4713 261.675 60.5448 261.602C61.4629 259.986 61.2793 257.783 59.9572 255.102L59.6267 254.404C55.6237 246.178 43.4314 221.095 49.0134 217.276C49.3072 217.056 49.7112 217.056 50.1886 217.276C56.7989 220.251 74.2428 258.701 75.8954 271.481C75.8954 271.591 75.9688 271.664 76.0423 271.701L77.0706 272.289C81 274.566 85.0764 277.246 89.1895 280.331C89.2629 280.368 89.2997 280.405 89.3731 280.405C89.4098 280.405 89.4833 280.405 89.5201 280.368L98.5541 275.557C98.701 275.484 98.7745 275.3 98.7011 275.153C91.3563 259.068 88.7121 248.932 91.0991 245.811C92.5314 243.938 94.1839 242.469 96.0569 241.441C96.167 241.367 96.2405 241.257 96.2038 241.147C96.2038 241.037 96.1304 240.926 96.0202 240.853C93.9637 239.898 92.3845 239.347 91.2827 239.2C88.7855 238.87 85.9578 234.132 86.5821 213.457C86.9494 200.971 88.455 188.448 88.4918 188.301C88.5285 188.117 88.4183 187.97 88.2347 187.934L51.5107 181.176C51.3638 181.14 51.2169 181.25 51.1435 181.397C51.1067 181.544 51.1434 181.691 51.2903 181.764C57.2763 184.812 64.4375 193.259 65.6861 194.764C64.1437 196.16 60.3244 198.841 58.4515 198.033ZM66.3839 195.095C66.5308 194.985 66.5308 194.801 66.4206 194.654C66.1268 194.287 59.5165 186.134 53.2367 182.168L87.8307 188.558C87.2799 193.112 82.1018 238.65 91.1726 239.861C92.1275 239.972 93.4495 240.449 95.1755 241.22C93.4495 242.285 91.9071 243.681 90.5483 245.48C87.9776 248.822 90.4749 258.848 97.9298 275.227L89.3364 279.817C85.2968 276.806 81.2571 274.125 77.3276 271.848L76.4095 271.334C74.61 257.93 57.2763 219.884 50.3722 216.762C49.6745 216.432 49.0869 216.468 48.5728 216.799C45.9286 218.598 46.3326 224.254 49.8948 234.022C52.7225 241.808 56.7989 250.181 59.0024 254.698L59.3328 255.396C60.4713 257.709 60.6917 259.582 60.1041 261.014C43.7252 249.887 16.329 228.697 14.4561 210.446C12.3628 189.733 43.7986 181.507 46.2224 180.919C47.3608 181.764 56.3582 188.815 56.6153 195.425C56.6888 197.115 57.2029 198.18 58.1945 198.62C60.912 199.796 66.1636 195.278 66.3839 195.095Z" fill="#FABA89"/>
<path d="M139.648 269.865C139.648 269.865 133.185 265.054 124.849 259.288C124.114 261.418 122.241 266.56 120.001 270.93C124.518 277.393 129.329 283.563 133.405 287.272C136.49 282.461 138.914 276.659 139.648 269.865Z" fill="#C0C3D6"/>
<path d="M133.222 287.492C133.295 287.529 133.369 287.566 133.442 287.566H133.479C133.589 287.566 133.662 287.492 133.699 287.419C137.188 281.91 139.318 276.035 139.979 269.902C139.979 269.791 139.942 269.681 139.869 269.608C139.795 269.571 133.295 264.724 125.069 259.031C124.995 258.958 124.885 258.958 124.775 258.995C124.665 259.031 124.592 259.105 124.592 259.178C123.894 261.198 122.021 266.376 119.781 270.783C119.744 270.893 119.744 271.003 119.817 271.114C125.069 278.715 129.623 284.224 133.222 287.492ZM125.032 259.766C132.414 264.907 138.326 269.277 139.318 270.012C138.657 275.851 136.674 281.506 133.369 286.758C129.88 283.526 125.51 278.201 120.405 270.893C122.462 266.743 124.224 262.006 125.032 259.766Z" fill="#C0C3D6"/>
<path d="M119.01 255.249C118.091 259.105 116.769 261.933 115.411 264.063C116.108 265.091 116.806 266.156 117.504 267.221C119.267 264.283 121.176 260.574 121.947 257.232C120.956 256.571 120.001 255.91 119.01 255.249Z" fill="#C0C3D6"/>
<path d="M117.504 267.551C117.614 267.551 117.724 267.478 117.761 267.404C120.075 263.512 121.58 260.133 122.241 257.342C122.278 257.232 122.204 257.085 122.131 257.012C121.176 256.351 120.185 255.689 119.193 255.028C119.12 254.955 119.01 254.955 118.899 254.992C118.789 255.028 118.716 255.102 118.716 255.212C117.908 258.627 116.696 261.529 115.153 263.916C115.08 264.026 115.08 264.173 115.153 264.246C115.851 265.274 116.549 266.339 117.247 267.404C117.284 267.478 117.394 267.551 117.504 267.551ZM119.193 255.763C120.001 256.314 120.772 256.828 121.544 257.379C120.919 259.986 119.524 263.071 117.467 266.633C116.88 265.789 116.329 264.907 115.778 264.063C117.247 261.749 118.385 258.958 119.193 255.763Z" fill="#C0C3D6"/>
<path d="M98.3706 275.337L89.3365 280.148C98.3707 286.905 105.752 294.176 110.306 298.95C107.037 292.964 102.41 284.151 98.3706 275.337Z" fill="#C0C3D6"/>
<path d="M110.086 299.171C110.159 299.244 110.232 299.281 110.306 299.281C110.379 299.281 110.453 299.244 110.49 299.207C110.636 299.097 110.673 298.95 110.6 298.803C107.405 292.928 102.741 284.04 98.7012 275.19C98.6644 275.116 98.591 275.043 98.5175 275.006C98.4441 274.97 98.3338 274.97 98.2604 275.043L89.2263 279.854C89.1162 279.891 89.0794 280.001 89.0427 280.111C89.0427 280.221 89.0795 280.331 89.1529 280.405C98.1136 287.162 105.495 294.323 110.086 299.171ZM89.9241 280.221L98.2237 275.777C101.786 283.563 105.826 291.348 108.91 297.077C104.357 292.377 97.783 286.134 89.9241 280.221Z" fill="#C0C3D6"/>
<path d="M115.411 264.063C109.057 254.331 104.136 245.701 104.1 245.664C101.051 243.828 98.2237 242.285 95.8733 241.184C94.1473 242.138 92.4213 243.571 90.8055 245.664C87.8676 249.557 92.458 262.41 98.3706 275.337L108.617 269.865C108.617 269.865 112.216 268.984 115.411 264.063Z" fill="#F9AE82"/>
<path d="M98.2972 275.631C98.3339 275.631 98.3706 275.631 98.4074 275.631C98.4441 275.631 98.5175 275.631 98.5542 275.594L108.727 270.159C108.874 270.122 112.436 269.167 115.668 264.209C115.741 264.099 115.741 263.952 115.668 263.879C109.461 254.367 104.577 245.847 104.393 245.48C104.357 245.444 104.32 245.407 104.283 245.37C101.015 243.424 98.2237 241.918 96.057 240.89C95.9835 240.853 95.8734 240.853 95.7633 240.89C93.8169 241.955 92.0909 243.497 90.6219 245.444C88.0512 248.822 90.5852 258.921 98.1503 275.447C98.1503 275.557 98.187 275.594 98.2972 275.631ZM91.0992 245.847C92.4948 244.011 94.1106 242.579 95.9101 241.551C98.0401 242.542 100.721 244.011 103.879 245.884C104.393 246.766 109.094 254.955 115.043 264.063C111.995 268.653 108.617 269.535 108.506 269.571L98.5542 274.896C91.2829 258.995 88.7122 248.969 91.0992 245.847Z" fill="#F9AE82"/>
<path d="M117.504 267.221C116.806 266.156 116.108 265.091 115.411 264.063C112.216 268.947 108.653 269.865 108.653 269.865L98.4073 275.337C102.447 284.151 107.074 292.964 110.343 298.987C113.501 302.329 115.264 304.459 115.264 304.459C115.264 304.459 126.171 298.693 133.442 287.272C129.366 283.6 124.555 277.43 120.038 270.93C118.752 273.464 117.32 275.778 115.925 277.1C111.408 281.36 114.052 272.472 114.052 272.472C114.052 272.472 115.668 270.269 117.504 267.221Z" fill="#9FA3B5"/>
<path d="M117.761 267.404C117.834 267.294 117.834 267.184 117.761 267.074C117.063 266.009 116.365 264.944 115.668 263.916C115.594 263.842 115.521 263.769 115.411 263.769C115.3 263.769 115.19 263.806 115.153 263.916C112.069 268.653 108.617 269.571 108.506 269.608L98.2604 275.08C98.1135 275.153 98.0401 275.337 98.1135 275.484C102.153 284.371 106.854 293.258 110.049 299.134C110.049 299.171 110.086 299.171 110.086 299.207C113.207 302.476 114.97 304.643 115.007 304.679C115.08 304.753 115.153 304.789 115.264 304.789C115.3 304.789 115.374 304.789 115.411 304.753C115.521 304.679 126.464 298.803 133.736 287.456C133.809 287.309 133.809 287.162 133.662 287.052C130.1 283.82 125.583 278.348 120.295 270.783C120.221 270.71 120.111 270.636 120.001 270.636C119.891 270.636 119.781 270.71 119.744 270.82C118.275 273.684 116.916 275.741 115.704 276.879C114.419 278.091 113.978 277.981 113.868 277.908C113.281 277.54 113.648 274.896 114.346 272.619C114.566 272.289 116.108 270.159 117.761 267.404ZM113.758 272.362C113.501 273.244 112.252 277.614 113.538 278.422C114.125 278.789 114.933 278.422 116.145 277.32C117.357 276.181 118.679 274.235 120.075 271.554C125.179 278.826 129.513 284.114 133.038 287.309C126.465 297.481 116.916 303.174 115.337 304.055C114.823 303.431 113.17 301.484 110.6 298.804C107.441 292.964 102.851 284.261 98.8113 275.484L108.727 270.195C108.874 270.159 112.252 269.277 115.411 264.65C115.961 265.495 116.549 266.376 117.137 267.258C115.411 270.159 113.831 272.289 113.831 272.289C113.758 272.325 113.758 272.325 113.758 272.362Z" fill="#9FA3B5"/>
<path d="M76.1525 271.518C74.353 257.379 54.0446 213.457 48.793 217.056C42.8438 221.132 55.587 246.876 59.6266 255.249C61.0589 258.187 60.9487 260.133 60.2143 261.455C65.9799 265.348 71.4518 268.763 76.1525 271.518Z" fill="#F9AE82"/>
<path d="M60.0673 261.712C65.3189 265.274 70.8275 268.727 76.0056 271.775C76.0423 271.811 76.1157 271.811 76.1525 271.811C76.2259 271.811 76.2626 271.811 76.3361 271.775C76.4463 271.701 76.483 271.591 76.483 271.481C74.7937 258.223 57.3498 219.884 50.409 216.762C49.7112 216.432 49.1236 216.468 48.6094 216.799C45.9653 218.598 46.3693 224.254 49.9315 234.022C52.7593 241.808 56.8357 250.181 59.0391 254.698L59.3696 255.396C60.5815 257.893 60.7652 259.876 59.9572 261.308C59.8838 261.455 59.9204 261.639 60.0673 261.712ZM59.9205 255.102L59.59 254.404C55.5871 246.178 43.3946 221.095 48.9767 217.276C49.2705 217.056 49.6744 217.056 50.1518 217.276C56.6887 220.214 73.6553 257.452 75.7486 270.857C70.8275 267.955 65.6127 264.687 60.6182 261.308C61.3894 259.766 61.1691 257.673 59.9205 255.102Z" fill="#F9AE82"/>
<path d="M46.2959 180.589L51.474 181.544C49.5644 180.552 47.7649 180.111 46.2959 180.589Z" fill="#E68262"/>
<path d="M51.4005 181.837C51.4372 181.837 51.4372 181.837 51.4739 181.837C51.6208 181.837 51.731 181.764 51.7677 181.617C51.8045 181.47 51.7677 181.323 51.6208 181.25C49.4541 180.148 47.6547 179.818 46.1857 180.258C46.0388 180.295 45.9653 180.442 45.9653 180.589C45.9653 180.736 46.0755 180.846 46.2224 180.883L51.4005 181.837Z" fill="#E68262"/>
<path d="M66.1637 194.875C66.1637 194.875 58.1578 184.959 51.4373 181.544L46.2593 180.589C46.2593 180.589 56.6155 188.191 56.9092 195.425C57.203 202.66 66.1637 194.875 66.1637 194.875Z" fill="#E68262"/>
<path d="M56.6154 195.425C56.6888 197.115 57.203 198.18 58.1945 198.62C58.525 198.767 58.8556 198.804 59.2228 198.804C62.0506 198.804 66.1637 195.242 66.384 195.095C66.5309 194.985 66.5308 194.801 66.4207 194.654C66.0902 194.25 58.3046 184.629 51.6209 181.25C51.5841 181.25 51.5474 181.213 51.5474 181.213L46.3694 180.258C46.2225 180.222 46.0756 180.295 46.0388 180.442C45.9654 180.589 46.0389 180.736 46.149 180.809C46.2225 180.919 56.3583 188.411 56.6154 195.425ZM51.3638 181.837C57.3498 184.886 64.4743 193.295 65.723 194.838C64.1071 196.16 60.3245 198.877 58.4516 198.069C57.7171 197.739 57.3131 196.858 57.2397 195.425C57.0193 189.403 50.1519 183.306 47.5078 181.14L51.3638 181.837Z" fill="#E68262"/>
<path d="M121.911 257.232C121.139 260.537 119.23 264.283 117.467 267.221C118.312 268.469 119.156 269.681 120.001 270.93C122.241 266.56 124.077 261.418 124.849 259.288C123.894 258.627 122.902 257.93 121.911 257.232Z" fill="#4C4566"/>
<path d="M120.038 271.224C120.185 271.224 120.258 271.15 120.332 271.04C122.608 266.597 124.481 261.382 125.179 259.362C125.216 259.215 125.179 259.068 125.069 258.995C124.114 258.334 123.123 257.636 122.131 256.975C122.058 256.901 121.947 256.901 121.837 256.938C121.727 256.975 121.654 257.048 121.654 257.158C121.029 259.876 119.524 263.218 117.247 267.037C117.173 267.147 117.173 267.258 117.247 267.368C118.091 268.616 118.936 269.828 119.781 271.077C119.817 271.187 119.928 271.224 120.038 271.224ZM122.131 257.783C122.939 258.334 123.71 258.884 124.481 259.435C123.747 261.529 122.021 266.193 119.964 270.342C119.267 269.314 118.532 268.286 117.834 267.258C120.001 263.622 121.433 260.427 122.131 257.783Z" fill="#4C4566"/>
<path d="M115.925 277.1C117.32 275.778 118.752 273.501 120.038 270.93C119.193 269.718 118.348 268.469 117.504 267.221C115.704 270.269 114.052 272.472 114.052 272.472C114.052 272.472 111.371 281.36 115.925 277.1Z" fill="#191446"/>
<path d="M114.015 278.569C114.566 278.569 115.227 278.165 116.145 277.32C117.43 276.108 118.826 274.015 120.331 271.077C120.368 270.967 120.368 270.857 120.295 270.746C119.45 269.534 118.605 268.286 117.761 267.037C117.687 266.964 117.577 266.89 117.504 266.89C117.394 266.89 117.283 266.964 117.247 267.037C115.484 270.012 113.831 272.215 113.831 272.252C113.795 272.289 113.795 272.325 113.795 272.362C113.538 273.244 112.289 277.614 113.574 278.422C113.684 278.532 113.831 278.569 114.015 278.569ZM114.345 272.619C114.566 272.289 115.961 270.379 117.504 267.808C118.201 268.837 118.936 269.902 119.67 270.93C118.238 273.721 116.916 275.704 115.704 276.843C114.419 278.054 113.978 277.944 113.868 277.871C113.28 277.54 113.648 274.896 114.345 272.619Z" fill="#191446"/>
<path d="M104.944 234.39C111.334 229.652 107.515 210.849 107.515 210.849C107.515 210.849 91.8704 213.898 93.8902 222.381C95.91 230.864 104.944 234.39 104.944 234.39Z" fill="#191446"/>
<path d="M104.834 234.72C104.871 234.72 104.908 234.757 104.944 234.757C105.018 234.757 105.091 234.72 105.128 234.683C111.591 229.873 107.992 211.621 107.809 210.849C107.772 210.666 107.625 210.556 107.441 210.592C107.037 210.666 97.6361 212.539 94.4044 217.533C93.4128 219.076 93.1191 220.765 93.5598 222.528C95.6163 231.048 104.724 234.683 104.834 234.72ZM94.9552 217.864C97.7095 213.604 105.605 211.657 107.258 211.253C107.698 213.714 110.379 229.652 104.871 234.022C103.659 233.508 95.9836 229.946 94.1841 222.344C93.8169 220.765 94.0739 219.223 94.9552 217.864Z" fill="#191446"/>
<path d="M122.462 169.278C125.253 167.699 126.905 166.744 126.905 166.744L123.673 163.329C123.38 165.238 122.976 167.295 122.462 169.278Z" fill="#4461AB"/>
<path d="M122.608 169.572C125.399 167.993 127.052 167.038 127.052 167.038C127.125 167.001 127.199 166.891 127.199 166.817C127.199 166.707 127.199 166.634 127.125 166.56L123.894 163.145C123.82 163.072 123.673 163.035 123.563 163.072C123.453 163.108 123.38 163.218 123.343 163.329C123.049 165.422 122.645 167.405 122.168 169.241C122.131 169.351 122.168 169.498 122.278 169.572C122.351 169.608 122.388 169.645 122.462 169.645C122.498 169.608 122.572 169.572 122.608 169.572ZM123.857 164.026L126.391 166.67C125.84 167.001 124.628 167.662 122.939 168.654C123.306 167.185 123.637 165.642 123.857 164.026Z" fill="#4461AB"/>
<path d="M109.461 148.419C109.461 148.419 60.1042 166.303 57.9375 172.62C60.5082 172.95 64.254 174.125 70.0931 182.535C83.3872 176.88 98.5175 168.764 99.6559 166.34C101.566 162.264 98.995 161.052 92.6417 158.628L115.668 154.955L109.461 148.419Z" fill="#4461AB"/>
<path d="M115.961 155.029C115.998 154.919 115.961 154.809 115.888 154.698L109.718 148.198C109.645 148.125 109.498 148.088 109.388 148.125C107.368 148.859 59.8471 166.12 57.6436 172.546C57.6069 172.62 57.6069 172.73 57.6803 172.803C57.717 172.877 57.8273 172.95 57.9007 172.95C60.6917 173.281 64.2907 174.713 69.836 182.719C69.9095 182.792 69.9829 182.866 70.0931 182.866C70.1298 182.866 70.1665 182.866 70.2032 182.829C82.9465 177.431 98.7011 169.094 99.9129 166.45C100.611 164.981 100.721 163.843 100.317 162.888C99.6192 161.199 97.379 160.134 93.8168 158.738L115.704 155.249C115.814 155.213 115.925 155.139 115.961 155.029ZM92.5681 158.297C92.4212 158.334 92.3111 158.444 92.3111 158.591C92.3111 158.738 92.3845 158.885 92.4947 158.922C96.5711 160.501 99.105 161.566 99.7293 163.145C100.06 163.953 99.913 164.908 99.3254 166.193C98.2971 168.433 83.9013 176.292 70.1665 182.131C64.8415 174.493 61.2059 172.803 58.3781 172.363C61.3895 167.221 92.6784 154.809 109.351 148.786L114.97 154.698L92.5681 158.297Z" fill="#4461AB"/>
<path d="M70.093 182.535C64.2539 174.125 58.2679 172.436 58.3047 172.62C58.3047 172.62 54.3751 172.73 48.6829 174.897C42.9907 177.063 40.6771 179.928 40.6771 179.928C42.8806 178.936 50.9598 182.168 56.5051 187.493C60.1775 186.501 64.9884 184.702 70.093 182.535Z" fill="#4C4566"/>
<path d="M40.7872 180.185C42.7703 179.267 50.7028 182.352 56.2848 187.713C56.3583 187.787 56.4317 187.787 56.5051 187.787C56.5418 187.787 56.5418 187.787 56.5785 187.787C60.0306 186.869 64.768 185.143 70.2032 182.829C70.2766 182.792 70.3501 182.719 70.3868 182.609C70.4235 182.535 70.3868 182.425 70.35 182.352C64.8047 174.383 59.0023 172.179 58.2311 172.289C57.717 172.326 53.9344 172.51 48.536 174.566C42.8438 176.733 40.4935 179.561 40.3833 179.671C40.2731 179.781 40.2731 179.965 40.3833 180.075C40.4935 180.222 40.677 180.258 40.7872 180.185ZM48.7564 175.19C54.3384 173.06 58.2311 172.95 58.2679 172.95C58.3046 172.95 58.3046 172.95 58.3413 172.95C59.1492 173.06 64.4008 175.117 69.5789 182.425C64.4008 184.629 59.8837 186.244 56.5419 187.162C51.7677 182.645 44.9371 179.45 41.6686 179.45C41.6319 179.45 41.5952 179.45 41.5584 179.45C42.6234 178.459 44.9004 176.659 48.7564 175.19Z" fill="#4C4566"/>
<path d="M124.408 153.523L115.668 154.919L123.673 163.329C124.445 157.967 124.408 153.523 124.408 153.523Z" fill="#283A84"/>
<path d="M123.673 163.953C123.747 163.953 123.82 163.953 123.857 163.916C124.077 163.843 124.261 163.659 124.298 163.402C125.069 158.04 125.032 153.523 125.032 153.487C125.032 153.303 124.959 153.119 124.812 153.009C124.665 152.899 124.481 152.825 124.298 152.862L115.557 154.258C115.337 154.294 115.117 154.441 115.043 154.662C114.97 154.882 115.007 155.139 115.19 155.286L123.196 163.696C123.306 163.879 123.49 163.953 123.673 163.953ZM123.747 154.258C123.71 155.58 123.637 158.481 123.196 161.933L116.916 155.359L123.747 154.258Z" fill="#283A84"/>
<path d="M70.093 182.535C71.0846 183.967 72.1129 185.547 73.2513 187.346C74.4265 189.219 75.2711 190.908 75.8587 192.451C90.8421 186.795 113.06 174.566 122.462 169.278C122.976 167.295 123.38 165.238 123.673 163.329L115.668 154.919L92.6416 158.591C98.9949 161.015 101.566 162.264 99.6559 166.303C98.5174 168.764 83.3871 176.916 70.093 182.535Z" fill="#283A84"/>
<path d="M69.9462 182.241C69.8727 182.278 69.7993 182.352 69.7625 182.462C69.7258 182.535 69.7625 182.645 69.7992 182.719C70.8642 184.225 71.8925 185.804 72.9575 187.53C74.0592 189.292 74.9406 191.018 75.565 192.561C75.6017 192.671 75.7485 192.745 75.8587 192.745C75.8954 192.745 75.9321 192.745 75.9689 192.708C91.0624 187.016 113.611 174.603 122.608 169.498C122.682 169.461 122.755 169.388 122.755 169.315C123.233 167.478 123.637 165.459 123.967 163.329C123.967 163.218 123.967 163.145 123.894 163.072L115.888 154.662C115.814 154.588 115.704 154.552 115.594 154.552L92.5681 158.224C92.4212 158.261 92.3111 158.371 92.3111 158.518C92.3111 158.665 92.3845 158.812 92.4947 158.848C96.571 160.427 99.105 161.492 99.7293 163.072C100.06 163.879 99.913 164.834 99.3254 166.12C98.2971 168.433 83.7544 176.402 69.9462 182.241ZM99.9129 166.487C100.611 165.018 100.721 163.879 100.317 162.925C99.6192 161.235 97.379 160.17 93.8168 158.775L115.521 155.286L123.306 163.475C123.012 165.459 122.645 167.368 122.168 169.094C113.17 174.162 91.0257 186.355 76.0423 192.083C75.418 190.541 74.5734 188.925 73.5084 187.236C72.5168 185.62 71.5253 184.151 70.5704 182.719C83.2402 177.284 98.701 169.094 99.9129 166.487Z" fill="#283A84"/>
<path d="M75.8587 192.451C75.2711 190.945 74.4265 189.256 73.2513 187.346C72.1129 185.547 71.0846 183.967 70.093 182.535C64.9884 184.702 60.1775 186.501 56.5051 187.456C58.5249 189.403 60.2143 191.606 61.1324 193.993C62.1607 196.564 68.0365 195.425 75.8587 192.451Z" fill="#191446"/>
<path d="M64.2906 195.719C66.8245 195.719 70.7173 194.728 76.0056 192.745C76.079 192.708 76.1525 192.671 76.1892 192.561C76.2259 192.487 76.2259 192.414 76.1892 192.304C75.5649 190.688 74.6835 188.962 73.5451 187.163C72.4801 185.436 71.4518 183.857 70.3868 182.352C70.3134 182.241 70.1297 182.168 70.0196 182.241C64.5844 184.555 59.8838 186.244 56.4684 187.163C56.3583 187.199 56.2848 187.273 56.2481 187.383C56.2113 187.493 56.248 187.603 56.3215 187.677C58.4882 189.77 60.0307 191.937 60.8753 194.103C61.2793 195.205 62.4177 195.719 64.2906 195.719ZM69.9828 182.939C70.9744 184.371 71.966 185.877 72.9942 187.53C74.0225 189.182 74.8671 190.798 75.4914 192.267C64.9516 196.197 62.0504 195.315 61.4628 193.883C60.6182 191.79 59.1859 189.66 57.1294 187.64C60.4713 186.722 64.8782 185.106 69.9828 182.939Z" fill="#191446"/>
<path d="M131.642 292.34C133.001 294.507 138.987 301.301 146.075 305.083C147.581 302.917 148.939 300.787 149.968 298.987C152.906 293.736 157.974 282.975 160.177 278.238C159.149 276.145 140.75 265.128 138.032 265.311C135.278 265.531 137.298 268.176 137.298 268.176C136.894 275.814 133.919 281.176 130.835 284.701C130.835 284.665 129.623 289.108 131.642 292.34Z" fill="#4461AB"/>
<path d="M130.504 284.591C130.467 284.775 129.292 289.219 131.385 292.524C132.634 294.47 138.583 301.448 145.928 305.377C145.965 305.414 146.038 305.414 146.075 305.414C146.185 305.414 146.259 305.377 146.332 305.267C147.985 302.88 149.307 300.823 150.225 299.134C153.053 294.029 157.863 283.93 160.434 278.348C160.471 278.275 160.471 278.165 160.434 278.091C159.479 276.145 141.338 264.981 138.069 264.981C138.032 264.981 137.996 264.981 137.959 264.981C137.114 265.054 136.564 265.348 136.343 265.862C135.939 266.743 136.674 267.882 136.931 268.249C136.6 274.529 134.434 280.001 130.541 284.481C130.541 284.481 130.541 284.555 130.504 284.591ZM131.092 284.812C135.095 280.221 137.261 274.602 137.592 268.139C137.592 268.065 137.555 267.992 137.518 267.919C137.298 267.625 136.674 266.633 136.931 266.082C137.041 265.789 137.408 265.642 138.032 265.605C138.069 265.605 138.069 265.605 138.106 265.605C141.044 265.605 158.267 276.108 159.773 278.238C157.643 282.829 152.538 293.625 149.637 298.84C148.756 300.419 147.507 302.402 145.928 304.679C138.84 300.787 133.075 294.103 131.863 292.193C130.1 289.292 130.981 285.363 131.092 284.812Z" fill="#4461AB"/>
<path d="M160.177 278.238L160.14 278.201C157.937 282.939 152.869 293.699 149.931 298.95C148.939 300.75 147.544 302.88 146.038 305.047C148.315 306.258 150.739 307.177 153.126 307.507C160.104 296.38 166.934 284.555 166.861 283.196C166.787 280.735 160.177 278.238 160.177 278.238Z" fill="#E46790"/>
<path d="M145.928 305.34C148.462 306.699 150.849 307.507 153.126 307.838H153.163C153.273 307.838 153.383 307.801 153.42 307.691C158.782 299.134 167.301 284.885 167.228 283.196C167.118 280.699 161.426 278.385 160.397 278.018C160.324 277.944 160.25 277.908 160.177 277.908C160.067 277.908 159.957 277.981 159.883 278.091C157.79 282.571 152.612 293.552 149.674 298.84C148.756 300.493 147.47 302.513 145.818 304.9C145.781 304.973 145.744 305.083 145.781 305.157C145.781 305.23 145.818 305.304 145.928 305.34ZM150.225 299.134C153.016 294.103 157.68 284.261 160.324 278.642C162.234 279.413 166.53 281.47 166.604 283.196C166.64 284.334 160.434 295.315 153.016 307.177C150.996 306.883 148.829 306.112 146.552 304.936C148.095 302.659 149.343 300.713 150.225 299.134Z" fill="#E46790"/>
<path d="M130.798 284.665C127.309 288.631 123.747 290.32 123.747 290.32C123.747 290.32 129.659 308.645 135.131 319.406C136.637 317.569 141.852 311.106 146.038 305.083C138.987 301.301 132.965 294.507 131.606 292.34C129.623 289.108 130.835 284.665 130.798 284.665Z" fill="#244698"/>
<path d="M130.982 284.371C130.835 284.297 130.688 284.334 130.578 284.444C127.199 288.337 123.673 289.99 123.637 289.99C123.49 290.063 123.416 290.21 123.453 290.357C123.527 290.541 129.439 308.829 134.874 319.479C134.911 319.589 135.021 319.626 135.131 319.663H135.168C135.278 319.663 135.352 319.626 135.425 319.553C136.931 317.716 142.146 311.253 146.332 305.23C146.369 305.157 146.406 305.047 146.369 304.973C146.332 304.9 146.295 304.826 146.222 304.753C138.987 300.897 133.148 294.066 131.936 292.12C129.99 289.035 131.128 284.738 131.128 284.701C131.165 284.591 131.092 284.444 130.982 284.371ZM131.386 292.487C132.597 294.433 138.437 301.227 145.598 305.157C141.705 310.739 137.004 316.615 135.242 318.781C130.284 308.829 124.922 292.671 124.188 290.43C124.995 290.026 127.603 288.557 130.32 285.693C130.063 287.272 129.917 290.173 131.386 292.487Z" fill="#244698"/>
<path d="M139.648 327.008C141.925 324.841 147.581 316.394 153.163 307.507C150.776 307.177 148.352 306.295 146.075 305.047C141.889 311.069 136.674 317.533 135.168 319.369C137.886 324.731 137.959 328.623 139.648 327.008Z" fill="#924260"/>
<path d="M138.767 327.669C138.84 327.669 138.877 327.705 138.951 327.705C139.244 327.705 139.538 327.558 139.869 327.228C141.889 325.282 146.957 317.973 153.42 307.654C153.493 307.581 153.493 307.434 153.457 307.36C153.42 307.25 153.31 307.213 153.2 307.177C151.033 306.883 148.683 306.075 146.222 304.753C146.075 304.679 145.891 304.716 145.818 304.863C141.631 310.886 136.417 317.312 134.948 319.149C134.874 319.259 134.838 319.369 134.911 319.479C135.903 321.462 136.527 323.188 137.041 324.584C137.702 326.493 138.069 327.522 138.767 327.669ZM146.149 305.487C148.389 306.662 150.555 307.434 152.612 307.764C146.295 317.827 141.374 324.914 139.428 326.787C139.281 326.934 139.061 327.118 138.914 327.081C138.547 327.008 138.106 325.796 137.629 324.437C137.151 323.078 136.527 321.352 135.572 319.442C137.188 317.423 142.109 311.29 146.149 305.487Z" fill="#924260"/>
<path d="M104.21 202.403L98.1503 182.792C98.1503 182.792 55.2199 185.84 46.4796 204.753C37.7392 223.666 83.3872 288.337 83.3872 288.337C83.277 288.411 83.2036 288.557 83.1301 288.704C87.7941 289.622 102.263 290.724 114.933 274.051C114.713 274.235 114.603 274.309 114.603 274.309C113.978 270.049 91.0259 223.85 96.4977 224.07C97.3424 224.107 98.2237 223.997 99.1051 223.85C97.6361 205.928 77.2176 187.273 74.9407 187.346C74.8672 187.383 74.7938 187.419 74.7204 187.456C74.7571 187.383 74.8305 187.346 74.9407 187.346C81.3307 183.417 94.074 193.002 104.21 202.403Z" fill="#F9C09D"/>
<path d="M103.989 202.623C104.1 202.733 104.246 202.733 104.357 202.66C104.467 202.587 104.54 202.44 104.503 202.293L98.444 182.682C98.4073 182.535 98.2604 182.462 98.1135 182.462C98.0033 182.462 87.2065 183.27 75.4915 186.354C64.6212 189.219 50.7396 194.728 46.1858 204.606C42.5134 212.539 47.618 229.101 61.3895 253.78C70.9745 271.003 81.6245 286.354 82.9832 288.3C82.9465 288.374 82.873 288.484 82.8363 288.557C82.7996 288.631 82.7996 288.741 82.8363 288.815C82.873 288.888 82.9465 288.961 83.0567 288.961C84.1584 289.182 85.8477 289.402 87.9042 289.402C90.2178 289.402 93.0089 289.108 96.1305 288.227C103.292 286.134 109.718 281.396 115.227 274.198C115.337 274.088 115.3 273.905 115.19 273.794C115.08 273.684 114.933 273.684 114.823 273.721C114.272 271.701 111.885 266.303 108.91 259.619C103.181 246.619 94.5145 226.971 96.1671 224.511C96.2406 224.401 96.3508 224.327 96.4977 224.364C97.3056 224.401 98.1502 224.327 99.1785 224.144C99.3254 224.107 99.4356 223.96 99.4356 223.813C98.0401 206.7 80.1922 189.586 75.7486 187.273C82.2121 184.335 94.588 193.92 103.989 202.623ZM97.9299 183.16L103.585 201.411C95.7264 194.213 85.9946 186.722 79.1639 186.208C88.4551 184.004 96.4242 183.27 97.9299 183.16ZM98.7746 223.593C97.9299 223.74 97.1954 223.776 96.5344 223.776C96.1671 223.776 95.8367 223.923 95.653 224.217C93.927 226.751 100.39 241.881 108.359 259.949C111.444 266.964 114.125 273.06 114.346 274.382C110.673 279.046 99.3989 291.238 83.7177 288.484C83.7544 288.374 83.7544 288.264 83.681 288.154C83.2403 287.492 38.2167 223.409 46.8101 204.863C50.9599 195.866 63.0788 190.504 74.5 187.309C74.4632 187.456 74.5367 187.566 74.6469 187.64C74.7571 187.713 74.9406 187.713 75.0508 187.64H75.0876C77.6215 187.934 97.1587 206.296 98.7746 223.593Z" fill="#F9C09D"/>
<path d="M119.009 276.622C117.687 273.868 116.733 272.179 116.476 272.509C115.888 273.28 115.337 273.794 114.97 274.088C102.3 290.761 87.8308 289.659 83.1668 288.741C82.7996 289.586 83.0934 291.348 83.7911 293.589C89.3365 294.323 106.046 294.727 119.009 276.622Z" fill="#C0C3D6"/>
<path d="M83.7545 293.919C84.7093 294.029 86.0681 294.176 87.7574 294.176C95.1022 294.176 108.543 291.826 119.267 276.842C119.34 276.732 119.34 276.622 119.303 276.512C117.247 272.252 116.843 272.215 116.586 272.179C116.439 272.142 116.292 272.215 116.219 272.362C115.668 273.097 115.154 273.574 114.713 273.941C111.518 278.165 99.7661 291.679 83.2036 288.484C83.0567 288.447 82.9098 288.521 82.8364 288.668C82.4691 289.512 82.6528 291.165 83.4607 293.736C83.5342 293.809 83.6076 293.882 83.7545 293.919ZM83.3506 289.108C85.8111 289.549 90.5118 289.953 96.1305 288.3C103.292 286.207 109.718 281.47 115.154 274.309C115.521 274.015 116.035 273.537 116.549 272.84C116.769 273.097 117.32 273.905 118.606 276.549C105.789 294.323 89.153 293.882 84.0116 293.258C83.3138 290.871 83.2404 289.696 83.3506 289.108Z" fill="#C0C3D6"/>
<path d="M129.292 301.888C128.558 299.134 124.224 288.19 120.772 280.441C112.179 296.857 91.7236 299.024 85.5172 298.326C88.7856 306.442 94.1107 316.541 94.1107 316.541C112.289 329.652 130.504 306.369 129.292 301.888Z" fill="#C0C3D6"/>
<path d="M93.8903 316.798C97.9667 319.736 101.97 320.801 105.605 320.801C111.151 320.801 115.888 318.341 118.826 316.284C125.363 311.767 130.284 304.422 129.549 301.815C128.778 298.95 124.371 287.896 121.029 280.331C120.993 280.221 120.883 280.148 120.736 280.148C120.625 280.148 120.515 280.221 120.442 280.331C111.591 297.261 90.6219 298.62 85.5172 298.069C85.407 298.069 85.2969 298.106 85.2234 298.179C85.15 298.253 85.15 298.399 85.1867 298.473C88.4185 306.515 93.7434 316.615 93.7801 316.688C93.8169 316.725 93.8536 316.761 93.8903 316.798ZM120.736 281.176C124.041 288.704 128.227 299.244 128.962 301.998C129.476 303.908 125.51 310.886 118.495 315.77C113.758 319.038 104.32 323.482 94.331 316.321C93.8903 315.439 89.0795 306.295 85.9947 298.693C91.9072 299.134 111.812 297.334 120.736 281.176Z" fill="#C0C3D6"/>
<path d="M74.7571 187.493C74.8305 187.456 74.904 187.419 74.9775 187.383C74.8673 187.383 74.7938 187.383 74.7571 187.493Z" fill="#9FA3B5"/>
<path d="M74.7938 187.787C74.8672 187.787 74.9407 187.75 75.0142 187.713C75.0509 187.677 75.0875 187.677 75.1243 187.64C75.2344 187.566 75.3079 187.419 75.2712 187.273C75.2345 187.126 75.1243 187.052 74.9406 187.052C74.5734 187.052 74.4633 187.273 74.4633 187.383C74.4266 187.53 74.5 187.64 74.6102 187.713C74.6469 187.75 74.7203 187.787 74.7938 187.787ZM75.0508 187.566C75.0141 187.64 74.9774 187.677 74.9774 187.677V187.53L75.0508 187.566Z" fill="#9FA3B5"/>
<path d="M109.461 219.406L104.21 202.403C94.0739 193.002 81.3307 183.417 74.9774 187.346C77.2543 187.273 97.6729 205.928 99.1418 223.85C104.1 222.932 109.461 219.406 109.461 219.406Z" fill="#E68262"/>
<path d="M74.9774 187.677C77.3645 187.677 97.3791 206.369 98.8113 223.886C98.8113 223.96 98.848 224.07 98.9215 224.107C98.9949 224.143 99.0316 224.18 99.1051 224.18C99.1418 224.18 99.1418 224.18 99.1785 224.18C104.173 223.225 109.425 219.847 109.645 219.7C109.755 219.626 109.829 219.48 109.792 219.333L104.54 202.329C104.54 202.293 104.504 202.219 104.467 202.183C94.6248 193.038 81.4776 182.976 74.8306 187.089C74.7204 187.162 74.6469 187.309 74.6836 187.456C74.7203 187.603 74.8305 187.677 74.9774 187.677ZM103.953 202.586L109.131 219.296C108.139 219.92 103.659 222.601 99.4357 223.482C97.8198 206.516 80.1923 189.586 75.7487 187.309C82.2121 184.335 94.5513 193.883 103.953 202.586Z" fill="#E68262"/>
<path d="M120.772 280.441C120.148 279.046 119.56 277.761 119.01 276.622C106.046 294.727 89.3366 294.323 83.7913 293.589C84.2319 295.021 84.8195 296.637 85.5173 298.363C91.6869 299.024 112.179 296.857 120.772 280.441Z" fill="#4C4566"/>
<path d="M85.4805 298.657C86.0314 298.73 86.7658 298.767 87.6472 298.767C95.0654 298.767 112.987 296.012 121.066 280.588C121.103 280.515 121.103 280.405 121.066 280.331C120.405 278.862 119.817 277.577 119.303 276.512C119.267 276.402 119.156 276.328 119.046 276.328C118.936 276.328 118.826 276.365 118.752 276.475C105.752 294.654 88.749 293.956 83.8279 293.295C83.7178 293.295 83.6076 293.332 83.5341 293.405C83.4607 293.478 83.4607 293.589 83.4607 293.699C83.8647 295.058 84.4522 296.673 85.1867 298.473C85.2602 298.583 85.3703 298.657 85.4805 298.657ZM118.936 277.246C119.377 278.165 119.854 279.23 120.405 280.441C111.628 297.041 91.136 298.546 85.7376 298.069C85.1133 296.527 84.6358 295.168 84.2318 293.993C89.7404 294.58 106.156 294.69 118.936 277.246Z" fill="#4C4566"/>
<path d="M121.544 222.418C124.959 218.268 166.971 205.782 169.358 195.205C169.432 194.875 169.505 194.507 169.542 194.14C167.412 186.722 162.27 179.267 157.827 178.973C150.923 183.453 142.917 177.137 142.917 177.137C131.79 170.086 109.755 167.331 109.755 167.331C102.19 170.784 91.5399 175.301 88.5286 176.586C92.0541 178.239 97.2689 181.837 104.283 189.55C116.806 203.358 121.213 216.285 121.544 222.418Z" fill="#4461AB"/>
<path d="M104.026 189.733C117.026 204.056 120.956 217.019 121.213 222.454C121.213 222.601 121.323 222.711 121.433 222.748C121.47 222.748 121.507 222.748 121.543 222.748C121.654 222.748 121.727 222.711 121.8 222.638C122.939 221.279 128.962 218.745 135.902 215.844C149.49 210.152 168.073 202.366 169.652 195.315C169.725 194.985 169.799 194.581 169.836 194.213C169.836 194.177 169.836 194.14 169.836 194.103C167.779 186.942 162.638 179.046 157.827 178.716C157.753 178.716 157.68 178.716 157.643 178.753C150.996 183.049 143.174 176.99 143.064 176.916C132.01 169.902 110.012 167.074 109.792 167.074C109.718 167.074 109.682 167.074 109.608 167.111C102.043 170.563 91.4297 175.08 88.3816 176.366C88.2714 176.402 88.198 176.512 88.198 176.659C88.198 176.77 88.2714 176.916 88.3816 176.953C92.8987 178.973 98.187 183.306 104.026 189.733ZM109.792 167.625C111.334 167.846 132.157 170.673 142.696 177.357C142.77 177.431 150.886 183.71 157.9 179.267C162.234 179.671 167.228 187.236 169.211 194.14C169.175 194.507 169.101 194.838 169.028 195.132C167.522 201.852 149.086 209.564 135.645 215.22C129.072 217.974 123.71 220.214 121.8 221.72C120.882 210.152 110.563 195.976 104.503 189.292C98.8847 183.086 93.7433 178.826 89.2997 176.549C92.9721 175.007 102.704 170.857 109.792 167.625Z" fill="#4461AB"/>
<path d="M157.827 178.973C162.27 179.267 167.412 186.759 169.542 194.14C170.864 182.902 156.651 160.207 141.08 158.811C124.995 157.379 116.696 163.916 116.696 163.916C115.337 164.687 112.803 165.899 109.755 167.295C109.755 167.295 131.789 170.049 142.917 177.1C142.917 177.1 150.886 183.417 157.827 178.973Z" fill="#244698"/>
<path d="M142.696 177.357C142.77 177.431 150.886 183.71 157.9 179.267C162.234 179.671 167.265 187.273 169.211 194.213C169.248 194.36 169.358 194.434 169.505 194.434C169.505 194.434 169.505 194.434 169.542 194.434C169.689 194.434 169.799 194.287 169.835 194.14C170.57 188.007 166.677 178.349 160.397 170.637C154.485 163.365 147.617 159.032 141.117 158.481C125.106 157.049 116.586 163.586 116.549 163.622C115.337 164.32 113.023 165.459 109.645 167.001C109.498 167.074 109.424 167.185 109.461 167.331C109.498 167.478 109.608 167.589 109.718 167.589C109.939 167.662 131.789 170.453 142.696 177.357ZM116.879 164.173C116.953 164.1 125.326 157.747 141.044 159.142C147.397 159.693 154.081 163.953 159.883 171.077C165.502 177.981 169.174 186.391 169.285 192.377C166.971 185.73 162.234 178.973 157.827 178.679C157.827 178.679 157.827 178.679 157.79 178.679C157.717 178.679 157.68 178.679 157.606 178.716C150.959 183.013 143.137 176.953 143.027 176.88C133.369 170.747 115.374 167.846 110.82 167.185C113.721 165.826 115.741 164.834 116.879 164.173Z" fill="#244698"/>
<path d="M104.944 234.39C104.944 234.39 112.069 233.545 115.668 229.248C119.303 224.915 117.761 227.008 121.36 222.675C121.433 222.601 121.47 222.491 121.543 222.418C121.25 216.248 120.221 204.57 107.662 190.725C100.647 183.013 89.116 176.292 89.116 176.292C89.116 176.292 87.5737 175.851 83.6442 177.21C77.8785 179.193 69.9094 185.804 70.9744 186.759C72.8841 188.485 92.311 190.321 102.263 210.446C112.179 230.607 104.944 234.39 104.944 234.39Z" fill="#4C4566"/>
<path d="M104.797 234.133C104.65 234.206 104.614 234.353 104.65 234.5C104.687 234.647 104.797 234.72 104.944 234.72H104.981C105.275 234.683 112.252 233.802 115.925 229.469C117.687 227.375 118.238 226.788 118.716 226.274C119.267 225.686 119.744 225.172 121.617 222.895C121.654 222.858 121.69 222.822 121.727 222.748C121.764 222.711 121.8 222.675 121.8 222.638C121.837 222.564 121.874 222.491 121.874 222.418C121.617 217.203 121.029 204.974 107.919 190.541C100.978 182.866 89.4099 176.109 89.2997 176.035C89.263 176.035 89.263 175.998 89.2262 175.998C89.1528 175.962 87.5369 175.521 83.534 176.916C78.3927 178.679 70.9744 184.371 70.5704 186.355C70.497 186.722 70.6439 186.905 70.754 187.016C71.1947 187.42 72.2965 187.787 73.9858 188.301C80.5227 190.394 94.0738 194.691 101.969 210.592C109.682 226.237 107.184 232.847 104.797 234.133ZM102.52 210.335C94.5145 194.177 80.2656 189.66 74.1694 187.713C72.6637 187.236 71.4886 186.869 71.158 186.575C70.901 185.694 77.8051 179.561 83.7176 177.541C86.068 176.733 87.5369 176.586 88.3081 176.586C88.6754 176.586 88.8958 176.623 88.9692 176.623C89.7404 177.063 100.721 183.6 107.405 190.982C120.258 205.157 120.956 217.129 121.213 222.344L121.176 222.381C121.139 222.418 121.139 222.454 121.103 222.491C119.23 224.731 118.789 225.245 118.238 225.833C117.761 226.384 117.173 226.971 115.41 229.065C112.766 232.223 108.139 233.471 106.009 233.912C107.698 232.003 110.306 226.09 102.52 210.335Z" fill="#4C4566"/>
<path d="M97.7462 135.822C97.7462 135.822 117.687 152.495 149.013 168.764C180.339 185.032 164.547 201.118 169.615 198.877C174.683 196.601 178.686 164.173 179.788 144.893C180.889 125.65 178.172 99.2084 173.288 84.7024C168.403 70.1964 152.538 53.5237 136.931 53.1198C121.323 52.7158 113.611 64.9082 112.399 67.2218C111.187 69.5354 113.501 71.5552 113.758 74.6767C114.015 77.7983 109.975 97.0417 108.323 101.669C106.707 106.259 97.7462 135.822 97.7462 135.822Z" fill="#2893D0"/>
<path d="M97.4524 135.749C97.4156 135.859 97.4524 136.006 97.5626 136.079C97.7462 136.263 117.871 152.972 148.866 169.057C171.561 180.846 169.285 192.598 168.403 197.041C168.146 198.29 168.036 198.951 168.44 199.281C168.55 199.392 168.697 199.428 168.881 199.428C169.138 199.428 169.468 199.318 169.762 199.171C175.381 196.674 179.237 160.868 180.118 144.93C181.22 125.282 178.355 98.7677 173.581 84.5922C171.084 77.174 165.906 69.4252 159.332 63.3658C152.134 56.7187 144.202 52.9729 136.931 52.7892C136.674 52.7892 136.417 52.7892 136.16 52.7892C119.854 52.7892 112.399 66.4873 112.105 67.0749C111.297 68.5806 111.885 69.9761 112.473 71.4451C112.877 72.4366 113.317 73.5016 113.427 74.7135C113.684 77.7248 109.718 96.7846 108.029 101.559C106.413 106.113 97.5258 135.455 97.4524 135.749ZM114.052 74.64C113.941 73.318 113.464 72.1795 113.06 71.188C112.472 69.719 111.995 68.5806 112.656 67.3319C112.95 66.7444 120.442 52.9361 136.931 53.4136C152.098 53.8175 168.109 70.2699 172.994 84.7759C177.731 98.8779 180.596 125.282 179.494 144.856C178.319 166.046 174.169 196.49 169.505 198.547C169.027 198.767 168.881 198.731 168.881 198.731C168.77 198.584 168.917 197.812 169.064 197.115C169.946 192.561 172.333 180.479 149.197 168.47C119.744 153.156 100.133 137.291 98.1502 135.675C98.9581 133.068 107.111 106.076 108.653 101.706C110.159 97.4456 114.345 77.9452 114.052 74.64Z" fill="#2893D0"/>
<path d="M174.316 153.523C170.57 129.175 149.05 171.849 149.05 171.849L161.389 177.137C161.389 177.137 178.098 177.871 174.316 153.523Z" fill="#1F6F93"/>
<path d="M148.94 172.142L161.279 177.431C161.316 177.431 161.352 177.467 161.389 177.467C161.426 177.467 161.462 177.467 161.609 177.467C162.674 177.467 167.522 177.247 171.158 173.171C174.867 169.058 176.042 162.41 174.646 153.487C173.912 148.712 172.406 146.105 170.166 145.774C162.527 144.599 149.344 170.637 148.756 171.738C148.719 171.812 148.719 171.922 148.756 171.995C148.793 172.032 148.829 172.106 148.94 172.142ZM170.056 146.362C172.002 146.656 173.324 149.08 173.985 153.56C175.344 162.3 174.206 168.727 170.643 172.693C167.008 176.733 162.013 176.806 161.426 176.77L149.454 171.665C150.996 168.764 163.335 145.334 170.056 146.362Z" fill="#1F6F93"/>
<path d="M138.877 89.0358C138.877 89.0358 130.027 118.635 129.586 124.217C129.182 129.8 113.868 133.362 113.868 133.362L142.88 143.277C142.917 143.277 145.708 85.2533 138.877 89.0358Z" fill="#1F6F93"/>
<path d="M142.807 143.571C142.843 143.571 142.88 143.571 142.917 143.571C142.99 143.571 143.027 143.534 143.1 143.534C143.174 143.461 143.247 143.387 143.247 143.277C143.357 141.184 145.671 92.1207 140.273 88.7421C139.795 88.4483 139.281 88.4483 138.767 88.7421C138.694 88.7788 138.657 88.8523 138.62 88.9257C138.253 90.1376 129.733 118.599 129.329 124.181C128.925 129.469 114.015 133.031 113.831 133.031C113.684 133.068 113.611 133.178 113.574 133.325C113.574 133.472 113.648 133.582 113.795 133.656L142.807 143.571ZM129.917 124.254C130.32 118.966 138.51 91.423 139.134 89.2562C139.391 89.1461 139.648 89.1461 139.869 89.293C144.055 91.9004 143.247 128.404 142.586 142.837L114.97 133.435C118.532 132.517 129.549 129.212 129.917 124.254Z" fill="#1F6F93"/>
<path d="M128.668 115.22C128.925 115.22 129.145 115.073 129.255 114.853C129.292 114.779 129.99 113.2 130.247 110.593C130.284 110.262 130.027 109.932 129.659 109.895C129.329 109.858 128.998 110.115 128.962 110.483C128.741 112.87 128.08 114.339 128.08 114.339C127.933 114.669 128.08 115.036 128.411 115.183C128.521 115.183 128.594 115.22 128.668 115.22Z" fill="#1F6F93"/>
<path d="M127.456 111.144C127.713 111.144 127.97 110.96 128.044 110.703C128.778 108.316 128.888 106.774 128.888 106.7C128.925 106.37 128.631 106.039 128.301 106.039C127.97 106.002 127.64 106.296 127.64 106.627C127.64 106.627 127.529 108.132 126.868 110.336C126.758 110.666 126.942 111.034 127.272 111.144C127.309 111.144 127.383 111.144 127.456 111.144Z" fill="#1F6F93"/>
<path d="M95.2123 127.89C92.9721 126.347 86.6555 124.217 79.5678 124.217C72.4801 124.217 69.1014 133.876 69.1014 133.876L97.5626 139.972L106.303 128.845C102.888 129.616 97.4524 129.432 95.2123 127.89Z" fill="#F9C09D"/>
<path d="M68.9913 134.206L97.4524 140.303C97.4892 140.303 97.4891 140.303 97.5259 140.303C97.636 140.303 97.7096 140.266 97.783 140.192L106.523 129.065C106.597 128.955 106.597 128.808 106.56 128.698C106.487 128.588 106.34 128.551 106.23 128.551C102.888 129.322 97.5259 129.065 95.4326 127.633C93.1557 126.09 86.7658 123.924 79.6046 123.924C72.3333 123.924 68.9546 133.398 68.8445 133.802C68.8077 133.876 68.8077 133.986 68.8811 134.06C68.8444 134.133 68.9179 134.17 68.9913 134.206ZM79.5311 124.548C86.5454 124.548 92.8253 126.641 95.0287 128.147C97.1587 129.616 102.006 129.91 105.495 129.322L97.4158 139.642L69.5055 133.656C70.1665 131.966 73.4716 124.548 79.5311 124.548Z" fill="#F9C09D"/>
<path d="M81.0368 132.223C82.9832 129.616 75.4915 125.062 75.4915 125.062C72.627 124.805 68.5139 131.085 68.5139 131.085C68.5139 131.085 79.1272 134.794 81.0368 132.223Z" fill="#E68262"/>
<path d="M68.4038 131.379C69.2117 131.672 74.4632 133.472 78.0989 133.472C79.5311 133.472 80.7063 133.178 81.2939 132.444C81.6244 132.003 81.7346 131.452 81.6244 130.865C81.1103 128.184 75.8954 124.952 75.6751 124.805C75.6384 124.768 75.6017 124.768 75.5282 124.768C72.4801 124.511 68.4037 130.681 68.2568 130.938C68.2201 131.011 68.1835 131.122 68.2202 131.195C68.2569 131.268 68.3304 131.342 68.4038 131.379ZM75.3446 125.356C75.3813 125.356 75.3813 125.356 75.418 125.356C76.0056 125.723 80.5961 128.661 81.0368 130.938C81.1103 131.342 81.0368 131.709 80.8164 132.04C79.4209 133.913 72.1864 131.966 69.0281 130.901C70.2767 129.065 73.2881 125.356 75.3446 125.356Z" fill="#E68262"/>
<path d="M152.098 74.6768C152.281 75.1909 152.759 75.5214 153.273 75.5214C153.42 75.5214 153.567 75.4847 153.714 75.448C154.375 75.1909 154.705 74.4932 154.485 73.8321C151.914 66.8546 136.931 57.2696 136.27 56.8656C135.682 56.4984 134.911 56.682 134.507 57.2696C134.14 57.8572 134.323 58.6284 134.911 59.0323C139.061 61.603 150.225 69.5354 152.098 74.6768Z" fill="#504566"/>
<path d="M139.832 54.4786C141.228 52.826 137.629 51.2101 131.092 53.8175C124.555 56.4249 122.021 60.7217 122.021 60.7217C122.021 60.7217 116.329 72.8773 120.809 74.1626C126.868 75.8887 138.363 56.1679 139.832 54.4786Z" fill="#504566"/>
<path d="M120.699 74.4197C120.993 74.4931 121.286 74.5298 121.58 74.5298C126.832 74.5298 134.617 62.7782 138.437 56.9758C139.208 55.8006 139.795 54.9559 140.016 54.6621C140.456 54.148 140.53 53.5604 140.163 53.1198C139.281 51.8711 135.719 51.5773 130.908 53.487C124.371 56.0577 121.764 60.3544 121.654 60.5013C121.654 60.5013 121.654 60.5013 121.654 60.538C121.47 60.9052 117.467 69.5354 119.046 73.0242C119.45 73.7586 120.001 74.2361 120.699 74.4197ZM122.315 60.8318C122.462 60.5747 125.069 56.5351 131.239 54.0746C135.976 52.2016 139.134 52.6056 139.722 53.487C139.795 53.5604 139.979 53.8175 139.575 54.2582C139.318 54.5887 138.767 55.3966 137.922 56.6453C134.58 61.7132 125.657 75.2276 120.846 73.8321C120.295 73.6852 119.928 73.318 119.671 72.8038C118.275 69.6088 122.094 61.2358 122.315 60.8318Z" fill="#504566"/>
<path d="M24.5184 121.28C23.0862 116.873 -3.13476 105.745 0.721257 108.573C4.57728 111.438 3.58575 130.35 3.58575 130.35C3.58575 130.35 25.9507 125.65 24.5184 121.28Z" fill="#924260"/>
<path d="M3.36548 130.571C3.43893 130.607 3.51242 130.644 3.58586 130.644C3.62259 130.644 3.62257 130.644 3.65929 130.644C4.4305 130.497 22.2783 126.715 24.6287 122.638C24.9225 122.124 24.9959 121.647 24.8123 121.169C23.4902 117.093 2.44742 107.802 0.464323 107.802C0.133806 107.802 0.0602865 107.985 0.0235625 108.059C-0.0866096 108.353 0.207236 108.573 0.537753 108.83C4.21016 111.548 3.25529 130.13 3.25529 130.314C3.25529 130.424 3.29204 130.497 3.36548 130.571ZM1.23547 108.61C3.03495 109.161 7.552 111.034 12.4363 113.457C19.3037 116.873 23.7106 119.847 24.2248 121.39C24.3349 121.684 24.2614 122.014 24.0778 122.345C22.0213 125.87 6.5972 129.359 3.91635 129.983C4.02652 127.155 4.57736 111.988 1.23547 108.61Z" fill="#924260"/>
<path d="M55.7341 126.09C60.9489 127.816 71.7825 129.212 76.6667 129.212C80.5595 126.201 84.5991 123.74 87.6472 123.446C87.6472 123.446 28.7785 107.985 21.8744 109.014C21.8744 109.014 6.81765 117.974 3.58594 130.387C3.58594 130.387 34.2872 132.223 63.997 140.964C63.997 140.964 66.0167 138.76 68.9914 135.969L44.6433 125.833C44.6066 125.76 49.6379 124.107 55.7341 126.09Z" fill="#4461AB"/>
<path d="M55.6605 126.384C60.8018 128.074 71.5253 129.506 76.7034 129.506C76.7768 129.506 76.8503 129.469 76.887 129.432C81.4408 125.907 85.0765 123.96 87.6839 123.703C87.8308 123.703 87.9409 123.556 87.9776 123.41C87.9776 123.263 87.9042 123.116 87.7573 123.079C85.3335 122.455 28.7418 107.618 21.8377 108.646C21.801 108.646 21.7642 108.683 21.7275 108.683C21.5806 108.757 6.52379 117.828 3.29208 130.24C3.25535 130.314 3.29202 130.424 3.32875 130.497C3.4022 130.571 3.47568 130.607 3.54913 130.644C3.84292 130.681 34.5809 132.591 63.8867 141.221C63.9234 141.221 63.9601 141.221 63.9601 141.221C64.0336 141.221 64.1438 141.184 64.1805 141.111C64.2173 141.074 66.237 138.907 69.1749 136.116C69.2484 136.043 69.2851 135.932 69.2851 135.822C69.2484 135.712 69.2117 135.639 69.1015 135.602L45.5981 125.833C47.2874 125.466 51.2169 124.952 55.6605 126.384ZM44.4964 126.054L68.4038 136.006C66.0535 138.246 64.3641 140.046 63.8867 140.56C36.3437 132.48 7.62548 130.314 3.9898 130.057C7.25824 118.489 21.0297 109.895 21.9846 109.308C28.4113 108.5 77.4012 121.096 86.2149 123.41C83.681 124.107 80.4492 125.944 76.5565 128.918C71.3784 128.881 60.8386 127.486 55.8074 125.833C49.6745 123.814 44.68 125.429 44.4964 125.503C44.3862 125.54 44.276 125.65 44.276 125.797C44.276 125.907 44.3862 126.017 44.4964 126.054Z" fill="#4461AB"/>
<path d="M55.7341 126.09C49.6379 124.107 44.6067 125.76 44.6067 125.76L68.9547 135.896C71.1582 133.802 73.8758 131.379 76.6668 129.212C71.7825 129.212 60.9856 127.816 55.7341 126.09Z" fill="#244698"/>
<path d="M68.8445 136.19C68.8813 136.19 68.918 136.226 68.9547 136.226C69.0282 136.226 69.1016 136.19 69.175 136.153C71.8926 133.582 74.5 131.305 76.8871 129.469C76.9972 129.396 77.034 129.249 76.9972 129.102C76.9605 128.992 76.8503 128.881 76.7034 128.881C71.5621 128.881 60.9121 127.449 55.8442 125.797C49.7113 123.777 44.7169 125.393 44.5332 125.466C44.4231 125.503 44.3129 125.613 44.3129 125.76C44.3129 125.907 44.3863 126.017 44.4965 126.054L68.8445 136.19ZM55.6606 126.384C60.5081 127.963 70.3502 129.359 75.8221 129.506C73.6554 131.232 71.3417 133.252 68.918 135.529L45.635 125.833C47.2875 125.466 51.2169 124.952 55.6606 126.384Z" fill="#244698"/>
<path d="M101.97 129.946C88.9692 134.427 78.3927 131.783 78.3927 131.783C78.3927 131.783 59.333 129.359 55.6238 127.706C51.878 126.09 43.615 123.079 43.8354 127.78C44.0557 132.444 52.3921 136.263 52.3921 136.263C52.3921 136.263 52.2819 136.52 52.1717 136.924C57.3865 138.944 64.1805 139.678 67.1185 139.935C63.8867 139.715 56.0645 139.091 52.0249 138.356C52.0983 140.046 53.0531 142.469 57.3131 144.269C57.3131 144.269 57.2397 144.489 57.203 144.856C62.528 146.362 70.1298 147.133 70.1298 147.133C70.1298 147.133 62.3443 146.95 57.203 146.068C57.3499 147.941 58.4883 150.732 63.6297 151.357C63.6297 151.357 63.5562 151.614 63.4827 151.981C67.8896 152.789 73.1044 153.34 73.1044 153.34C73.1044 153.34 67.5958 153.45 63.4093 153.156C63.4827 154.845 64.4743 157.159 69.0648 157.673C76.3728 158.481 86.0313 160.317 94.9552 158.958C103.916 157.6 162.748 182.976 170.35 167.919C175.528 157.673 175.528 141.661 175.014 132.444C160.875 135.565 142.696 128.514 138.216 126.641C138.179 128 138.179 129.836 138.29 131.856C138.216 131.746 114.97 125.466 101.97 129.946Z" fill="#F9C09D"/>
<path d="M101.859 129.616C89.0793 134.023 78.5396 131.452 78.3927 131.415C78.209 131.379 59.3329 128.955 55.6972 127.376C53.1265 126.237 46.8834 123.814 44.4596 125.466C43.7619 125.943 43.4314 126.715 43.4681 127.743C43.6517 132.113 50.4456 135.639 51.9146 136.373C51.8779 136.483 51.8411 136.63 51.8044 136.777C51.7677 136.924 51.8411 137.108 51.988 137.144C53.5672 137.769 55.2933 138.246 57.0193 138.65C55.1464 138.43 53.3469 138.209 52.0248 137.952C51.9146 137.952 51.8412 137.952 51.7678 138.026C51.6943 138.099 51.6576 138.173 51.6576 138.283C51.731 140.046 52.7226 142.506 56.9091 144.379C56.9091 144.489 56.8724 144.599 56.8724 144.746C56.8724 144.893 56.9458 145.04 57.0927 145.077C58.8188 145.554 60.8019 145.995 62.7115 146.325C60.8386 146.178 58.8922 145.958 57.2396 145.664C57.1294 145.664 57.056 145.664 56.9825 145.738C56.9091 145.811 56.8724 145.885 56.8724 145.995C57.0192 147.758 58.0475 150.769 63.2256 151.503C63.1889 151.577 63.1889 151.687 63.1522 151.797C63.1155 151.981 63.2256 152.128 63.4092 152.164C64.9149 152.458 66.494 152.679 67.963 152.899C66.494 152.862 64.8782 152.825 63.446 152.715C63.3358 152.715 63.2623 152.752 63.1889 152.789C63.1154 152.862 63.0788 152.936 63.0788 153.046C63.1522 154.625 64.0335 157.306 68.9913 157.857C70.3501 158.004 71.819 158.187 73.3247 158.408C80.0452 159.289 87.6471 160.28 94.9551 159.142C97.7829 158.701 106.119 161.125 115.778 163.953C129.476 167.919 146.516 172.877 158.12 172.877C164.217 172.877 168.77 171.518 170.607 167.919C175.858 157.526 175.821 141.147 175.307 132.297C175.307 132.187 175.271 132.113 175.197 132.076C175.124 132.003 175.014 132.003 174.94 132.003C161.022 135.088 143.394 128.331 138.326 126.201C138.216 126.164 138.106 126.164 138.032 126.237C137.959 126.311 137.886 126.384 137.886 126.494C137.849 128.147 137.886 129.763 137.959 131.305C134.691 130.534 113.831 125.503 101.859 129.616ZM138.143 132.076C138.253 132.113 138.363 132.076 138.436 132.003C138.51 131.929 138.547 131.856 138.547 131.746C138.473 130.24 138.436 128.661 138.473 127.008C144.055 129.322 161.022 135.602 174.683 132.737C175.16 141.588 175.124 157.526 170.019 167.662C164.988 177.614 136.637 169.388 115.961 163.365C106.67 160.684 99.1784 158.481 95.7264 158.481C95.3959 158.481 95.1388 158.518 94.8817 158.554C87.6471 159.656 80.082 158.665 73.4349 157.82C71.9292 157.636 70.4602 157.416 69.0647 157.269C65.0985 156.828 63.9601 154.992 63.7397 153.413C67.8528 153.707 73.0309 153.56 73.1044 153.56C73.288 153.56 73.3982 153.413 73.3982 153.266C73.3982 153.119 73.288 152.972 73.1044 152.936C73.0676 152.936 68.0732 152.421 63.8132 151.65C63.85 151.503 63.8867 151.393 63.8867 151.393C63.9234 151.32 63.8866 151.21 63.8499 151.136C63.8132 151.063 63.7031 150.989 63.6296 150.989C59.186 150.438 57.8272 148.272 57.5334 146.399C62.6013 147.207 70.0196 147.39 70.093 147.39C70.2766 147.39 70.3868 147.243 70.4236 147.097C70.4236 146.913 70.3134 146.766 70.1298 146.766C70.0563 146.766 62.7849 145.995 57.5334 144.599C57.5701 144.452 57.5702 144.342 57.5702 144.342C57.6069 144.195 57.5334 144.048 57.3865 143.975C53.604 142.359 52.5022 140.303 52.3186 138.723C56.4684 139.421 63.9233 140.009 67.0449 140.229C67.963 140.303 68.5138 140.339 68.5138 140.339C68.6975 140.339 68.8077 140.192 68.8444 140.046C68.8444 139.862 68.7342 139.715 68.5506 139.715C68.5506 139.715 67.9997 139.678 67.0816 139.605C64.4008 139.384 57.6803 138.65 52.5022 136.704C52.5757 136.483 52.6124 136.373 52.6124 136.373C52.6491 136.3 52.6491 136.226 52.6124 136.116C52.5757 136.043 52.539 135.969 52.4288 135.932C52.3554 135.896 44.2761 132.15 44.0557 127.743C44.019 126.935 44.2393 126.384 44.7534 126.017C46.9936 124.511 53.457 127.119 55.4034 127.963C59.1125 129.579 77.4745 131.966 78.2457 132.04C78.3559 132.076 89.0794 134.647 102.006 130.203C114.823 125.833 137.922 132.003 138.143 132.076Z" fill="#F9C09D"/>
<path d="M52.0984 136.887C52.0249 137.254 51.9148 137.732 51.9515 138.319C55.9912 139.054 63.7766 139.678 67.045 139.899C64.1071 139.642 57.3132 138.907 52.0984 136.887Z" fill="#E68262"/>
<path d="M67.045 140.192C67.2286 140.192 67.3756 140.082 67.3756 139.899C67.3756 139.715 67.2654 139.568 67.0818 139.568C64.3642 139.348 57.4601 138.613 52.2085 136.557C52.1351 136.52 52.0249 136.52 51.9515 136.557C51.878 136.593 51.8045 136.667 51.8045 136.777C51.7311 137.108 51.621 137.658 51.6577 138.32C51.6577 138.466 51.7678 138.577 51.9147 138.613C55.9544 139.348 63.85 139.972 67.045 140.192ZM52.3554 137.291C53.8244 137.842 55.4402 138.283 57.0561 138.687C55.2933 138.503 53.6041 138.283 52.3187 138.062C52.282 137.769 52.3187 137.512 52.3554 137.291Z" fill="#E68262"/>
<path d="M68.5139 140.303C68.6975 140.303 68.8445 140.156 68.8445 140.009C68.8445 139.825 68.7343 139.678 68.5507 139.678C68.5507 139.678 67.9998 139.642 67.0817 139.568C66.8981 139.568 66.7512 139.678 66.7512 139.862C66.7512 140.046 66.8613 140.192 67.0449 140.192C67.963 140.303 68.5139 140.303 68.5139 140.303Z" fill="#E68262"/>
<path d="M57.1662 144.82C57.1295 145.113 57.1295 145.554 57.1662 146.032C62.2709 146.913 70.0931 147.097 70.0931 147.097C70.0931 147.097 62.4912 146.325 57.1662 144.82Z" fill="#E68262"/>
<path d="M57.0928 146.325C62.1607 147.207 69.983 147.39 70.0564 147.39C70.24 147.39 70.3502 147.243 70.3869 147.097C70.3869 146.913 70.2767 146.766 70.0931 146.766C70.0196 146.766 62.4912 145.995 57.2397 144.526C57.1662 144.489 57.0561 144.526 56.9826 144.563C56.9092 144.599 56.8725 144.709 56.8358 144.783C56.799 145.15 56.799 145.628 56.8358 146.032C56.8725 146.178 56.9459 146.289 57.0928 146.325ZM57.4601 145.224C59.1126 145.664 60.9489 146.032 62.7116 146.362C60.9121 146.215 59.0759 145.995 57.4601 145.738C57.4601 145.554 57.4601 145.37 57.4601 145.224Z" fill="#E68262"/>
<path d="M73.0676 153.266C73.0676 153.266 67.8161 152.715 63.4459 151.907C63.4092 152.201 63.3357 152.605 63.3724 153.083C67.559 153.376 73.0676 153.266 73.0676 153.266Z" fill="#E68262"/>
<path d="M70.3867 153.597C71.9659 153.597 73.0676 153.56 73.0676 153.56C73.2512 153.56 73.3614 153.413 73.3614 153.266C73.3614 153.119 73.2512 152.972 73.0676 152.936C73.0309 152.936 67.7794 152.385 63.4459 151.577C63.3725 151.577 63.2623 151.577 63.1888 151.614C63.1154 151.65 63.0787 151.724 63.0419 151.834C62.9685 152.238 62.9318 152.679 62.9685 153.046C62.9685 153.193 63.1154 153.34 63.2623 153.34C65.6494 153.56 68.4036 153.597 70.3867 153.597ZM63.703 152.275C65.0985 152.532 66.5675 152.752 67.9263 152.936C66.5307 152.899 65.0618 152.862 63.703 152.752C63.6663 152.605 63.6663 152.458 63.703 152.275Z" fill="#E68262"/>
<path d="M174.353 125.246L138.216 124.217C138.216 124.217 138.179 125.099 138.143 126.531C142.623 128.441 160.801 135.492 174.94 132.333C174.72 128.073 174.353 125.246 174.353 125.246Z" fill="#E68262"/>
<path d="M167.081 133.472C169.799 133.472 172.48 133.215 175.014 132.664C175.16 132.627 175.271 132.48 175.271 132.333C175.014 128.073 174.683 125.209 174.683 125.209C174.646 125.062 174.536 124.952 174.389 124.915L138.253 123.887C138.069 123.887 137.959 124.034 137.922 124.181C137.922 124.181 137.886 125.099 137.849 126.494C137.849 126.641 137.922 126.751 138.032 126.788C142.219 128.624 154.889 133.472 167.081 133.472ZM138.51 124.548L174.059 125.54C174.132 126.311 174.426 128.735 174.61 132.113C160.912 135.014 143.725 128.551 138.436 126.347C138.473 125.54 138.51 124.915 138.51 124.548Z" fill="#E68262"/>
<path d="M153.604 70.4535C147.618 71.4083 142.77 76.1457 139.244 87.824C136.931 95.4259 135.205 106.443 134.03 113.825C138.033 115.734 157.496 124.217 176.593 116.983C175.271 100.531 170.533 67.6992 153.604 70.4535Z" fill="#FCD375"/>
<path d="M160.324 120.178C165.576 120.178 171.158 119.407 176.703 117.313C176.85 117.277 176.923 117.13 176.923 116.983C175.858 103.725 172.627 80.2955 162.785 72.5835C160.067 70.4535 156.946 69.6456 153.604 70.1964C146.92 71.2982 142.293 76.8802 138.987 87.7873C136.784 95.1321 135.131 105.451 133.92 112.98L133.773 113.825C133.736 113.971 133.809 114.082 133.956 114.155C136.564 115.404 147.36 120.178 160.324 120.178ZM134.47 113.017C135.682 105.488 137.335 95.2055 139.538 87.8974C142.77 77.2474 147.25 71.8123 153.677 70.7473C156.872 70.2332 159.773 71.0043 162.381 73.0242C171.966 80.5526 175.197 103.542 176.262 116.762C157.643 123.703 138.583 115.587 134.397 113.604L134.47 113.017Z" fill="#FCD375"/>
<path d="M177.07 126.09C177.07 126.09 176.997 122.418 176.593 116.983C157.533 124.217 138.033 115.734 134.03 113.825C133.405 117.754 132.928 120.655 132.597 121.463C131.643 123.777 156.872 133.178 177.07 126.09Z" fill="#504566"/>
<path d="M177.18 126.384C177.327 126.347 177.401 126.201 177.401 126.09C177.401 126.054 177.327 122.345 176.923 116.983C176.923 116.873 176.85 116.799 176.776 116.726C176.703 116.689 176.593 116.652 176.482 116.689C157.459 123.924 137.922 115.33 134.176 113.531C134.103 113.494 133.993 113.494 133.883 113.531C133.809 113.568 133.736 113.678 133.699 113.751C133.075 117.57 132.597 120.545 132.267 121.316C132.157 121.647 132.267 121.977 132.597 122.345C134.58 124.438 146.92 128.955 160.618 128.955C166.163 128.992 171.855 128.257 177.18 126.384ZM132.891 121.573C133.222 120.765 133.662 118.158 134.287 114.302C138.84 116.432 157.753 124.291 176.299 117.46C176.629 121.867 176.74 125.025 176.74 125.907C158.304 132.26 135.829 124.842 133.111 121.977C132.891 121.72 132.891 121.61 132.891 121.573Z" fill="#504566"/>
<path d="M167.926 92.4145C167.963 92.4145 167.999 92.4145 168.036 92.4145C168.367 92.3777 168.624 92.0472 168.55 91.68C168.55 91.5698 168.11 88.9624 167.192 86.3917C167.081 86.0612 166.714 85.8776 166.384 86.0245C166.053 86.1347 165.869 86.5019 166.016 86.8324C166.898 89.2929 167.302 91.8636 167.302 91.9003C167.338 92.1941 167.595 92.4145 167.926 92.4145Z" fill="#E8AE37"/>
<path d="M164.768 88.9624C164.804 88.9624 164.804 88.9624 164.841 88.9624C165.172 88.9257 165.429 88.6319 165.392 88.2647C165.172 86.2448 163.96 83.6007 163.923 83.4905C163.776 83.16 163.409 83.0499 163.078 83.1968C162.748 83.3437 162.638 83.7109 162.785 84.0414C162.785 84.0781 163.96 86.6121 164.143 88.4116C164.18 88.7421 164.437 88.9624 164.768 88.9624Z" fill="#E8AE37"/>
<path d="M88.8957 365.054C95.6162 362.63 109.828 352.347 117.504 349.593C125.142 346.839 145.341 332.186 145.671 328.844C145.745 327.962 144.826 325.502 143.394 322.38C140.016 326.567 123.123 338.502 118.495 340.559C113.611 342.725 98.1502 353.045 86.9126 358.59C78.0254 362.96 69.5421 361.124 66.3104 360.133C66.5308 361.675 66.5308 363.071 68.1466 365.017C69.7625 367 82.1752 367.514 88.8957 365.054Z" fill="#E46790"/>
<path d="M67.9263 365.274C68.8444 366.376 72.8473 367 77.3644 367C81.404 367 85.8844 366.486 89.0426 365.347C92.3111 364.172 97.2321 361.198 102.447 358.076C107.992 354.734 113.684 351.319 117.651 349.887C125.069 347.206 145.671 332.516 146.002 328.88C146.075 327.999 145.341 325.832 143.725 322.27C143.688 322.16 143.578 322.087 143.468 322.087C143.357 322.087 143.247 322.123 143.174 322.197C139.722 326.457 122.865 338.282 118.385 340.302C116.218 341.256 111.922 343.864 106.927 346.875C100.721 350.621 93.0088 355.248 86.7658 358.37C77.9887 362.703 69.6156 360.867 66.4206 359.912C66.2737 359.876 66.1268 359.912 66.0534 360.059C66.0166 360.133 65.98 360.206 66.0167 360.316L66.0901 360.794C66.237 362.079 66.3839 363.475 67.9263 365.274ZM87.0228 358.884C93.3026 355.762 101.015 351.135 107.221 347.389C112.179 344.415 116.439 341.807 118.605 340.853C123.012 338.906 139.171 327.558 143.284 322.968C145.047 326.861 145.341 328.293 145.304 328.807C145.01 331.929 125.179 346.471 117.357 349.299C113.354 350.731 107.625 354.183 102.043 357.525C96.8648 360.647 91.9438 363.585 88.7488 364.76C82.0283 367.22 69.836 366.596 68.367 364.87C66.9715 363.217 66.8245 361.969 66.6776 360.647V360.61C70.2766 361.638 78.5028 363.144 87.0228 358.884Z" fill="#E46790"/>
<path d="M86.9128 358.627C98.1503 353.082 113.611 342.762 118.495 340.595C123.086 338.539 140.016 326.603 143.394 322.417C139.465 313.787 131.753 299.868 130.688 298.473C129.256 296.563 128.08 298.473 128.08 298.473C121.213 315.66 102.631 315.035 102.631 315.035C102.594 314.999 102.557 314.999 102.484 314.962C102.337 322.197 94.0739 336.372 94.0739 336.372C87.4269 333.948 83.2036 334.426 81.1471 335.05C81.0369 335.307 80.9267 335.491 80.8533 335.674C79.5312 338.539 72.5169 345.039 67.5225 350.511C62.6014 355.946 66.2004 360.059 66.3105 360.169C69.5055 361.161 78.0255 362.997 86.9128 358.627Z" fill="#4461AB"/>
<path d="M74.7938 361.712C78.3928 361.712 82.6894 361.051 87.0596 358.884C93.3394 355.762 101.051 351.135 107.258 347.389C112.216 344.415 116.476 341.807 118.642 340.853C123.159 338.833 140.199 326.897 143.651 322.601C143.725 322.49 143.725 322.38 143.688 322.27C139.759 313.567 131.973 299.611 130.982 298.253C130.467 297.592 129.917 297.224 129.366 297.261C128.448 297.298 127.897 298.216 127.86 298.326C121.507 314.228 104.834 314.705 102.888 314.705C102.851 314.705 102.814 314.705 102.777 314.705L102.704 314.668C102.594 314.632 102.484 314.632 102.41 314.668C102.3 314.742 102.263 314.815 102.263 314.925C102.116 321.499 95.0655 334.132 94.0005 335.968C87.6472 333.691 83.4974 334.022 81.1103 334.72C81.0369 334.756 80.9634 334.793 80.9267 334.903L80.6329 335.528C79.7515 337.4 76.2995 340.963 72.6638 344.709C70.8643 346.581 68.9914 348.491 67.3756 350.291C62.3077 355.873 65.98 360.169 66.1269 360.353C66.1636 360.39 66.2004 360.426 66.2738 360.463C67.8897 360.977 70.9745 361.712 74.7938 361.712ZM67.7795 350.731C69.3953 348.932 71.2683 347.022 73.0678 345.149C76.7769 341.33 80.229 337.768 81.1471 335.785L81.3674 335.307C83.3137 334.756 87.4636 334.279 93.9637 336.666C94.1106 336.703 94.2575 336.666 94.331 336.519C94.6615 335.931 102.374 322.637 102.777 315.329C102.777 315.329 102.778 315.329 102.814 315.329C104.834 315.329 121.874 314.852 128.337 298.62C128.337 298.62 128.778 297.959 129.329 297.922C129.696 297.922 130.027 298.142 130.431 298.657C131.422 299.979 139.061 313.713 142.99 322.38C139.281 326.75 122.755 338.355 118.349 340.302C116.182 341.256 111.885 343.864 106.891 346.875C100.684 350.621 92.9722 355.248 86.7291 358.37C78.0622 362.667 69.7259 360.904 66.4575 359.912C66.0535 359.325 63.3359 355.616 67.7795 350.731Z" fill="#4461AB"/>
<path d="M94.0739 336.372C94.0739 336.372 102.374 322.16 102.484 314.962C90.6586 308.572 89.2998 314.007 89.2998 314.007C90.1812 315.623 83.02 330.937 81.1104 335.05C83.2403 334.462 87.4269 333.948 94.0739 336.372Z" fill="#283A84"/>
<path d="M80.8532 334.903C80.8165 335.013 80.8165 335.16 80.89 335.234C80.9634 335.344 81.1103 335.381 81.2205 335.344C83.0934 334.793 87.2799 334.242 93.9637 336.666C94.0004 336.666 94.0371 336.703 94.0739 336.703C94.184 336.703 94.2942 336.629 94.3309 336.556C94.6614 335.968 102.667 322.197 102.814 314.962C102.814 314.852 102.741 314.742 102.631 314.668C95.9468 311.069 92.5682 311.216 90.8789 311.951C89.3365 312.648 89.0427 313.86 89.0059 313.897C88.9692 313.97 89.006 314.044 89.0427 314.117C89.2998 314.558 88.9693 317.459 80.89 334.793L80.8532 334.903ZM89.667 314.007C89.7771 313.75 90.1077 313.016 91.1727 312.538C92.7151 311.877 95.8734 311.767 102.19 315.146C101.933 321.756 94.992 334.169 93.927 336.005C90.2179 334.683 87.2799 334.242 85.003 334.242C83.681 334.242 82.616 334.389 81.6979 334.573C89.2263 318.488 89.9608 314.962 89.667 314.007Z" fill="#283A84"/>
<path d="M96.2405 26.3846C92.5681 27.8903 90.1444 33.5826 84.4521 34.6476C84.4521 34.6476 89.4833 45.4812 91.65 47.5377C93.8167 49.5575 91.246 51.8711 89.0793 53.3768C86.9126 54.8825 93.1558 55.2865 95.5795 56.2413C98.0033 57.1961 101.272 66.267 108.323 63.6963C115.264 61.1623 115.888 56.021 117.467 56.2413C118.128 54.9192 118.899 52.7158 118.495 50.696C117.944 48.1253 120.368 53.7808 120.515 58.2978C121.69 59.6199 122.719 61.603 122.719 64.1737C122.719 69.0212 122.976 70.8942 127.456 65.6059C131.936 60.3177 137.225 54.5153 135.058 54.4051C132.634 54.2949 119.34 42.8003 121.36 42.0291C123.38 41.2212 128.925 34.464 121.617 29.8C113.942 24.9157 110.783 34.6843 111.665 36.5939C111.518 42.7269 99.9129 24.9157 96.2405 26.3846Z" fill="#F9C09D"/>
<path d="M111.004 37.5488C110.159 37.916 107.331 34.9414 105.054 32.5543C101.639 28.9921 98.0768 25.3197 96.1305 26.0909C94.588 26.7152 93.2659 28.074 91.8704 29.4695C89.9241 31.4526 87.6839 33.6927 84.4154 34.3171C84.3053 34.3538 84.2319 34.3905 84.1951 34.5007C84.1584 34.6109 84.1584 34.6843 84.1951 34.7945C84.4155 35.2352 89.263 45.7382 91.4664 47.758C91.9806 48.2355 92.2377 48.7496 92.1642 49.3372C92.0908 50.4022 90.989 51.6875 88.8957 53.1198C88.4551 53.4136 88.2715 53.7441 88.3082 54.0746C88.4551 54.8458 89.9607 55.213 92.3845 55.7272C93.523 55.9842 94.6982 56.2046 95.4326 56.4984C96.0937 56.7554 96.9016 57.747 97.8197 58.9222C100.133 61.8234 103.255 65.8263 108.396 63.9534C112.877 62.3008 114.823 59.5465 115.998 57.8939C116.586 57.0492 116.99 56.4249 117.394 56.4984C117.541 56.4984 117.651 56.4616 117.724 56.3147C118.312 55.1396 118.899 53.5237 118.899 51.8344C119.413 53.4503 120.074 55.9475 120.148 58.2244C120.148 58.2978 120.185 58.3713 120.221 58.408C121.176 59.5097 122.351 61.3459 122.351 64.0635C122.351 66.7811 122.425 68.5806 123.38 68.9478C123.49 68.9845 123.6 69.0212 123.71 69.0212C124.555 69.0212 125.693 68.0297 127.64 65.7161C128.227 65.0183 128.815 64.3206 129.402 63.6228C133.662 58.6651 136.233 55.5435 135.756 54.4418C135.682 54.2582 135.462 54.0378 135.021 54.0011C133.185 53.9277 123.931 46.2524 121.801 43.0574C121.36 42.3963 121.397 42.2127 121.433 42.2127C122.719 41.6986 125.216 39.1279 125.546 35.9696C125.73 34.2069 125.216 31.5995 121.764 29.4328C118.091 27.0824 115.557 28.1107 114.088 29.396C111.812 31.3424 110.783 35.1617 111.334 36.5572C111.297 37.1448 111.187 37.4753 111.004 37.5488ZM111.958 36.5572C111.958 36.5205 111.959 36.4471 111.922 36.4103C111.518 35.4922 112.216 31.93 114.492 29.9102C116.365 28.2943 118.752 28.331 121.433 30.0203C123.967 31.6362 125.142 33.656 124.922 35.9696C124.665 38.7239 122.388 41.2212 121.213 41.6986C120.919 41.8088 120.772 42.1026 120.809 42.4698C121.176 44.7834 132.597 54.5887 135.021 54.6989C135.095 54.6989 135.205 54.7356 135.205 54.7723C135.572 55.5803 131.753 60.0239 128.962 63.2923C128.374 63.9901 127.75 64.6878 127.199 65.3856C124.885 68.1399 123.967 68.5438 123.637 68.4337C123.012 68.2133 123.012 65.7528 123.012 64.137C123.012 61.2725 121.837 59.3261 120.809 58.1142C120.662 54.6622 119.156 49.9615 118.606 49.7044C118.495 49.6677 118.348 49.6677 118.238 49.7411C118.055 49.888 118.055 50.1451 118.165 50.696C118.532 52.5322 117.908 54.4786 117.247 55.8741C116.622 55.9475 116.108 56.6085 115.484 57.5266C114.309 59.216 112.509 61.7866 108.213 63.329C103.512 65.0551 100.501 61.2725 98.3339 58.5182C97.3056 57.2328 96.4976 56.2046 95.6897 55.8741C94.8818 55.5435 93.7067 55.3232 92.5315 55.0661C91.2094 54.7723 89.006 54.3316 88.9325 53.9277C88.9325 53.8909 88.9692 53.7808 89.263 53.5972C91.5399 52.018 92.6784 50.6592 92.7885 49.3372C92.862 48.566 92.5315 47.8682 91.8704 47.2439C89.9975 45.4812 85.811 36.7041 84.9296 34.8312C88.1981 34.06 90.3647 31.8565 92.3111 29.8734C93.6699 28.5146 94.9553 27.1926 96.3875 26.605C97.9299 25.9807 101.639 29.8 104.614 32.9215C107.956 36.4103 110.086 38.5036 111.261 38.0629C111.922 37.8426 111.958 36.8877 111.958 36.5572Z" fill="#F9C09D"/>
<path d="M117.54 56.2413C118.312 56.4249 119.45 57.1227 120.478 58.2611C120.331 53.7808 117.944 48.0886 118.458 50.6592C118.899 52.7158 118.091 54.8825 117.43 56.2046C117.504 56.2413 117.504 56.2413 117.54 56.2413Z" fill="#E68262"/>
<path d="M117.21 56.3882C117.247 56.4616 117.357 56.5351 117.467 56.5351C118.091 56.682 119.23 57.3063 120.258 58.4815C120.332 58.5549 120.405 58.5916 120.478 58.5916C120.515 58.5916 120.552 58.5916 120.589 58.5549C120.699 58.5182 120.809 58.3713 120.772 58.2611C120.662 54.8091 119.12 49.9982 118.569 49.7411C118.459 49.7044 118.312 49.7044 118.202 49.7779C118.018 49.9248 118.018 50.1818 118.128 50.7327C118.532 52.6423 117.798 54.6989 117.137 56.0944C117.137 56.1678 117.173 56.278 117.21 56.3882ZM118.936 51.9078C119.413 53.3034 119.964 55.4334 120.148 57.4532C119.34 56.7187 118.532 56.2413 117.945 56.0209C118.422 54.8825 118.936 53.4135 118.936 51.9078Z" fill="#E68262"/>
<path d="M98.1502 45.4811C99.2887 44.563 98.9949 42.2862 97.4892 40.3765C95.9835 38.4669 93.8167 37.6589 92.6783 38.5403C91.5399 39.4217 91.8337 41.7353 93.3393 43.6449C94.845 45.5546 97.0118 46.3992 98.1502 45.4811Z" fill="white"/>
<path d="M96.975 46.1789C97.4891 46.1789 97.9666 46.032 98.3339 45.7382C99.6192 44.7099 99.3621 42.2494 97.7095 40.1929C96.0569 38.0996 93.7434 37.2917 92.458 38.32C91.797 38.8341 91.5399 39.7155 91.6868 40.7805C91.8337 41.8087 92.3111 42.9105 93.0823 43.8653C94.2575 45.3343 95.7264 46.1789 96.975 46.1789ZM92.8253 38.7974C93.0823 38.577 93.4128 38.5036 93.78 38.5036C94.8083 38.5036 96.1671 39.2748 97.1954 40.5601C98.5909 42.3229 98.9214 44.4529 97.9299 45.2241C96.9383 45.9953 94.9553 45.1873 93.5597 43.4613C92.862 42.5799 92.4213 41.5884 92.2744 40.6703C92.201 39.8257 92.3846 39.1646 92.8253 38.7974Z" fill="white"/>
<path d="M97.3789 45.8851C98.1134 45.2975 97.7829 43.6449 96.6077 42.176C95.4325 40.707 93.8902 40.0093 93.1557 40.5601C92.4212 41.1477 92.7518 42.8003 93.9269 44.2693C95.1021 45.7382 96.6445 46.4727 97.3789 45.8851Z" fill="#191446"/>
<path d="M96.7546 46.3992C97.0851 46.3992 97.3422 46.3258 97.5993 46.1422C98.4807 45.4444 98.1501 43.6082 96.8648 41.9923C96.2772 41.2579 95.5794 40.6703 94.8817 40.3398C94.1104 39.9725 93.4495 39.9725 93.0088 40.3398C92.1274 41.0375 92.4579 42.8737 93.7433 44.4896C94.6246 45.7015 95.8365 46.3992 96.7546 46.3992ZM93.3393 40.8172C93.4494 40.7438 93.5963 40.6703 93.7799 40.6703C94.0003 40.6703 94.2574 40.7437 94.5512 40.8906C95.1388 41.1844 95.7998 41.6986 96.3139 42.3596C97.4524 43.7918 97.6359 45.2241 97.1585 45.628C96.6444 46.032 95.2857 45.4811 94.1839 44.0856C93.0455 42.6534 92.8251 41.2212 93.3393 40.8172Z" fill="#191446"/>
<path d="M97.7463 42.8737C97.7463 42.3963 97.3424 41.9924 96.865 41.9924C96.3875 41.9924 95.9835 42.3963 95.9835 42.8737C95.9835 43.3512 96.3875 43.7551 96.865 43.7551C97.3424 43.7551 97.7463 43.3879 97.7463 42.8737Z" fill="white"/>
<path d="M98.0767 42.8737C98.0767 42.2127 97.5259 41.6619 96.8649 41.6619C96.2038 41.6619 95.653 42.2127 95.653 42.8737C95.653 43.5348 96.2038 44.0856 96.8649 44.0856C97.5259 44.0856 98.0767 43.5348 98.0767 42.8737ZM96.314 42.8737C96.314 42.58 96.5711 42.3229 96.8649 42.3229C97.1587 42.3229 97.4157 42.58 97.4157 42.8737C97.4157 43.1675 97.1587 43.4246 96.8649 43.4246C96.5711 43.4613 96.314 43.2043 96.314 42.8737Z" fill="white"/>
<path d="M89.0059 36.2634C89.0793 36.2634 89.1895 36.2267 89.2629 36.19C89.2629 36.19 90.6217 35.5289 91.7602 35.2719C92.0907 35.1984 92.3111 34.8679 92.2376 34.5007C92.1642 34.1702 91.8336 33.9498 91.4664 34.0233C90.181 34.3171 88.7488 34.9781 88.6754 35.0148C88.3449 35.1617 88.2347 35.529 88.3816 35.8595C88.5285 36.1165 88.7488 36.2634 89.0059 36.2634Z" fill="#62392C"/>
<path d="M101.676 56.5351C101.345 56.4984 101.015 56.7554 100.978 57.0859C100.941 57.4165 101.198 57.747 101.529 57.7837C101.566 57.7837 101.676 57.8204 101.896 57.8204C102.447 57.8204 103.512 57.7102 104.173 56.939C104.761 56.2413 104.871 55.2497 104.503 53.9644C104.393 53.6339 104.063 53.4503 103.732 53.5237C103.402 53.6339 103.218 53.9644 103.292 54.2949C103.475 54.8825 103.585 55.6537 103.218 56.0944C102.851 56.5718 101.969 56.5718 101.676 56.5351Z" fill="#62392C"/>
<path d="M117.43 32.2238C117.1 32.1871 116.769 32.4441 116.733 32.7747L116.145 37.9895C116.108 38.2098 116.218 38.4302 116.365 38.5403C116.476 38.6505 116.622 38.6872 116.769 38.6872C116.843 38.6872 116.916 38.6872 116.953 38.6505L122.094 36.9612C122.425 36.851 122.608 36.4838 122.498 36.1533C122.388 35.8227 122.021 35.6391 121.69 35.7493L117.504 37.1448L117.981 32.9216C118.018 32.5543 117.761 32.2605 117.43 32.2238Z" fill="#62392C"/>
<path d="M121.25 13.568C121.286 13.8985 121.543 14.1556 121.874 14.1556H121.911C122.241 14.1188 122.535 13.825 122.498 13.4945C122.351 11.1075 119.524 8.53678 119.377 8.46334C119.12 8.24299 118.716 8.243 118.495 8.53679C118.275 8.79386 118.275 9.19783 118.569 9.41817C119.267 10.0058 121.139 11.9889 121.25 13.568Z" fill="#E46790"/>
<path d="M80.5594 32.7012C81.4775 32.7012 82.5057 32.6277 83.4973 32.4441C83.8278 32.3707 84.0482 32.0402 84.0115 31.7096C83.938 31.3791 83.6075 31.1588 83.277 31.1955C80.5961 31.7097 77.5847 31.1955 77.548 31.1955C77.2175 31.1588 76.887 31.3791 76.8135 31.7096C76.7401 32.0402 76.9971 32.3707 77.3276 32.4441C77.4011 32.4441 78.7599 32.7012 80.5594 32.7012Z" fill="#E46790"/>
<path d="M83.3871 30.1672C84.6724 30.1672 86.3985 29.9469 87.794 29.1022C88.0878 28.9186 88.198 28.5146 88.0144 28.2209C87.8307 27.9271 87.4268 27.8169 87.133 28.0005C84.9296 29.3593 81.6611 28.735 81.6244 28.735C81.2939 28.6615 80.9634 28.8819 80.8899 29.2491C80.8165 29.5797 81.0368 29.9102 81.404 29.9836C81.4408 30.0203 82.2486 30.1672 83.3871 30.1672Z" fill="#E46790"/>
<path d="M161.977 165.348C162.491 165.348 165.869 165.165 167.191 160.611C167.302 160.28 167.081 159.913 166.751 159.84C166.42 159.73 166.053 159.95 165.98 160.28C164.841 164.173 162.087 164.1 161.977 164.1C161.573 164.063 161.316 164.357 161.316 164.687C161.279 165.055 161.573 165.348 161.903 165.348C161.94 165.348 161.94 165.348 161.977 165.348Z" fill="#F9AE82"/>
<path d="M161.683 169.168C163.372 169.168 165.796 168.764 167.155 166.67C167.338 166.377 167.265 165.973 166.971 165.789C166.677 165.605 166.273 165.679 166.09 165.973C164.4 168.58 160.177 167.772 160.14 167.772C159.81 167.699 159.479 167.919 159.406 168.25C159.332 168.58 159.553 168.911 159.883 168.984C159.92 169.021 160.691 169.168 161.683 169.168Z" fill="#F9AE82"/>
<path d="M94.5879 108.757C94.6247 108.757 98.187 108.316 100.905 108.757C100.941 108.757 100.978 108.757 101.015 108.757C101.308 108.757 101.602 108.536 101.639 108.243C101.712 107.912 101.455 107.581 101.125 107.508C98.2236 107.031 94.588 107.471 94.4411 107.508C94.1106 107.545 93.8535 107.875 93.8902 108.206C93.9269 108.536 94.2207 108.793 94.5879 108.757Z" fill="#F9AE82"/>
<path d="M96.3875 156.351C96.718 156.241 96.9016 155.874 96.7914 155.543C96.6812 155.213 96.314 155.029 95.9835 155.139C92.3478 156.314 89.6303 156.314 89.5935 156.314C89.2263 156.314 88.9692 156.608 88.9692 156.939C88.9692 157.306 89.263 157.563 89.5935 157.563C89.7404 157.6 92.5315 157.6 96.3875 156.351Z" fill="#F9AE82"/>
<path d="M48.9768 211.474C48.6463 211.437 48.3158 211.657 48.2423 211.988C48.2056 212.135 47.6915 215.44 49.3441 220.618C49.4175 220.875 49.6746 221.059 49.9317 221.059C50.0051 221.059 50.0786 221.059 50.1153 221.022C50.4458 220.912 50.6294 220.545 50.5192 220.214C48.9768 215.367 49.4542 212.208 49.4542 212.172C49.5644 211.878 49.3441 211.547 48.9768 211.474Z" fill="#F9AE82"/>
<path d="M51.5841 207.397C51.2536 207.324 50.9231 207.581 50.8496 207.912C50.8129 208.095 50.1152 212.355 50.8496 216.358C50.9231 216.652 51.1801 216.872 51.4739 216.872C51.5107 216.872 51.5474 216.872 51.5841 216.872C51.9146 216.799 52.1717 216.468 52.0982 216.138C51.4005 212.318 52.0982 208.169 52.0982 208.132C52.1349 207.801 51.9146 207.471 51.5841 207.397Z" fill="#F9AE82"/>
<path d="M126.648 20.5088H126.685C127.015 20.4721 127.309 20.1783 127.272 19.8478C126.979 15.1471 125.363 12.2459 125.289 12.099C125.106 11.8052 124.738 11.695 124.445 11.8787C124.151 12.0623 124.041 12.4295 124.224 12.7233C124.224 12.7601 125.767 15.5143 126.024 19.9212C126.024 20.2517 126.281 20.5088 126.648 20.5088Z" fill="#E46790"/>
</svg>
