<svg width="312" height="339" viewBox="0 0 312 339" fill="none" xmlns="http://www.w3.org/2000/svg">
<path d="M129.11 225.651C129.11 225.651 135.319 148.974 120.239 147.38C111.128 146.417 91.6139 214.283 89.6818 221.484C87.6974 228.68 129.11 225.651 129.11 225.651Z" fill="#FCD375"/>
<path d="M129.112 226.128C129.327 226.098 129.501 225.957 129.529 225.696C129.758 222.546 135.631 148.531 120.237 146.904C116.101 146.467 110.087 157.68 101.759 181.184C95.5316 198.881 90.1464 217.619 89.1692 221.324C88.9865 222.045 89.1236 222.747 89.5915 223.326C90.808 224.83 94.4754 225.693 99.0308 226.175C110.597 227.45 128.1 226.18 129.112 226.128ZM90.3913 222.776C90.1106 222.429 89.9925 222.046 90.1474 221.586C95.5036 201.629 112.655 147.002 120.247 147.804C134.175 149.276 129.202 219.314 128.735 225.189C118.754 225.932 93.6721 226.772 90.3913 222.776Z" fill="#FCD375"/>
<path d="M132.699 229.311L141.008 177.664L126.076 166.723C122.559 176.877 113.947 213.471 104.054 221.84C94.2182 230.164 132.699 229.311 132.699 229.311Z" fill="#E8AE37"/>
<path d="M114.287 229.164C122.09 229.989 131.056 229.825 132.701 229.788C132.916 229.758 133.09 229.617 133.165 229.414L141.474 177.765C141.49 177.609 141.455 177.446 141.309 177.325L126.377 166.384C126.278 166.321 126.126 166.252 125.958 166.34C125.796 166.375 125.732 166.475 125.663 166.626C124.9 168.82 123.887 172.363 122.656 176.464C118.466 190.938 111.39 215.105 103.767 221.546C102.256 222.814 101.703 224.025 102.115 225.127C102.997 227.283 108.318 228.533 114.287 229.164ZM104.387 222.193C112.242 215.565 119.024 192.161 123.535 176.663C124.622 172.916 125.549 169.682 126.312 167.488L140.503 177.927L132.319 228.901C124.307 229.059 104.446 228.6 103.003 224.744C102.761 224.031 103.223 223.181 104.387 222.193Z" fill="#E8AE37"/>
<path d="M117.231 223.62C115.624 242.177 145.086 290.732 145.086 290.732L229.995 263.257L257.887 148.607C257.887 148.607 215.499 121.961 192.382 123.698C169.318 125.439 166.87 128.037 166.87 128.037C166.87 128.037 117.064 136.21 117.303 148.879C117.548 161.495 127.762 175.482 127.762 175.482C127.762 175.482 118.785 205.057 117.231 223.62Z" fill="#4461AB"/>
<path d="M116.759 223.57C116.086 231.381 120.61 245.084 130.156 264.344C137.266 278.638 144.651 290.844 144.692 290.955C144.785 291.07 144.885 291.134 145.042 291.15C145.094 291.156 145.146 291.161 145.204 291.115L230.113 263.64C230.276 263.604 230.398 263.458 230.414 263.301L258.306 148.651C258.328 148.441 258.293 148.279 258.095 148.152C257.995 148.089 247.321 141.406 233.967 135.022C215.973 126.455 201.996 122.439 192.333 123.163C171.67 124.735 167.464 126.936 166.658 127.538C163.316 128.085 116.598 136.108 116.832 148.829C117.055 160.649 126.032 173.818 127.285 175.484C126.507 178.312 118.26 206.006 116.759 223.57ZM128.274 175.642C128.343 175.49 128.302 175.38 128.208 175.265C128.115 175.149 118.047 161.283 117.827 148.934C117.579 136.846 166.489 128.631 167.024 128.582C167.128 128.593 167.192 128.494 167.25 128.447C167.366 128.354 170.274 125.91 192.431 124.232C194.408 124.07 196.467 124.129 198.667 124.362C220.924 126.714 254.005 146.768 257.382 148.87L229.657 262.957L145.299 290.225C142.779 286.044 116.213 241.128 117.702 223.669C119.228 205.368 128.188 175.95 128.274 175.642Z" fill="#4461AB"/>
<path d="M232.09 267.023C245.294 254.929 234.205 161.184 234.205 161.184C225.726 168.699 218.441 180.413 215.428 206.703C212.421 232.94 202.787 244.829 195.885 248.966C188.983 253.104 160.009 260.621 152.719 257.471C145.424 254.372 150.473 278.551 150.473 278.551C150.473 278.551 218.886 279.117 232.09 267.023Z" fill="#244698"/>
<path d="M150.423 279.022C150.475 279.028 150.475 279.028 150.423 279.022C150.633 279.044 167.778 279.164 186.353 277.794C211.334 275.938 226.8 272.441 232.371 267.37C237.948 262.246 240.021 242.787 238.53 209.567C237.398 184.903 234.66 161.391 234.635 161.124C234.6 160.961 234.512 160.793 234.355 160.777C234.203 160.708 234.04 160.743 233.867 160.884C226.789 167.171 218.209 178.114 214.956 206.653C211.62 235.977 200.307 245.731 195.61 248.567C188.819 252.663 159.96 260.087 152.869 257.063C151.756 256.575 150.796 256.632 150.043 257.24C146.329 260.286 149.604 276.767 149.985 278.658C150.068 278.879 150.266 279.006 150.423 279.022ZM150.657 257.94C150.947 257.706 151.33 257.588 151.749 257.632C152.011 257.66 152.267 257.74 152.57 257.878C160.017 261.045 189.038 253.586 196.113 249.308C200.921 246.431 212.524 236.442 215.905 206.7C219.035 179.312 227.033 168.361 233.843 162.098C234.946 171.63 244.012 255.534 231.757 266.67C219.318 278.051 156.24 278.103 150.838 278.114C149.802 272.926 147.928 260.191 150.657 257.94Z" fill="#244698"/>
<path d="M148.985 303.548L162.725 318.288L233.558 307.781L148.985 303.548Z" fill="#191446"/>
<path d="M162.68 318.706C162.732 318.712 162.732 318.712 162.785 318.718L233.56 308.257C233.775 308.227 233.955 308.034 233.93 307.767C233.9 307.552 233.707 307.373 233.498 307.351L148.93 303.066C148.72 303.044 148.552 303.132 148.477 303.336C148.408 303.487 148.438 303.702 148.532 303.818L162.272 318.557C162.471 318.684 162.575 318.695 162.68 318.706ZM228.922 308.031L162.88 317.828L150.04 304.083L228.922 308.031Z" fill="#191446"/>
<path d="M162.727 318.286L157.76 324.641L232.772 315.159L233.558 307.78L162.727 318.286Z" fill="#C0C3D6"/>
<path d="M157.82 325.07L232.78 315.583C232.995 315.553 233.169 315.413 233.191 315.203L233.977 307.824C233.994 307.667 233.953 307.557 233.859 307.441C233.765 307.326 233.608 307.309 233.504 307.298L162.731 317.757C162.62 317.798 162.51 317.84 162.447 317.939L157.479 324.294C157.357 324.439 157.335 324.649 157.423 324.817C157.517 324.933 157.61 325.048 157.767 325.065L157.82 325.07ZM163.003 318.685L233.025 308.306L232.34 314.743L158.833 324.013L163.003 318.685Z" fill="#C0C3D6"/>
<path d="M185.794 308.979C194.881 300.735 171.576 259.02 162.84 263.969C162.84 263.969 159.438 261.599 158.882 273.284C158.221 284.958 176.707 317.223 185.794 308.979Z" fill="#283A84"/>
<path d="M179.227 309.977C180.136 310.391 181.004 310.694 181.842 310.783C183.413 310.949 184.842 310.465 186.07 309.378C192.22 303.839 184.348 284.28 175.99 272.764C170.681 265.432 165.902 262.071 162.78 263.539C162.425 263.396 161.854 263.283 161.291 263.593C159.614 264.421 158.629 267.703 158.347 273.333C157.851 282.961 169.651 305.421 179.227 309.977ZM161.69 264.323C161.911 264.241 162.073 264.205 162.231 264.222C162.44 264.244 162.539 264.307 162.592 264.313C162.738 264.434 162.9 264.398 163.069 264.31C165.661 262.839 170.236 266.126 175.311 273.169C184.308 285.652 190.737 303.841 185.519 308.579C183.938 309.999 181.961 310.161 179.642 309.069C170.52 304.719 158.855 282.485 159.306 273.276C159.618 266.379 160.959 264.722 161.69 264.323Z" fill="#283A84"/>
<path d="M177.537 306.886C179.364 287.768 166.876 271.795 163.625 268.012C153.703 269.187 144.074 274.572 144.074 274.572C144.074 274.572 142.796 308.402 157.301 309.934C164.365 310.733 171.812 308.927 177.537 306.886Z" fill="#F9C09D"/>
<path d="M177.702 307.327C177.865 307.291 177.992 307.093 178.009 306.936C179.835 287.818 167.744 272.098 163.973 267.732C163.879 267.616 163.728 267.547 163.565 267.583C153.643 268.757 143.961 274.136 143.851 274.178C143.735 274.271 143.614 274.417 143.597 274.574C143.551 275.998 142.484 308.846 157.251 310.405C163.215 311.088 170.108 310.017 177.702 307.327ZM144.517 274.883C145.979 274.085 154.607 269.652 163.412 268.519C167.271 273.053 178.68 288.225 177.094 306.575C169.726 309.13 163.101 310.176 157.34 309.568C144.098 308.116 144.45 277.997 144.517 274.883Z" fill="#F9C09D"/>
<path d="M187.768 302.364C187.768 302.364 185.684 272.253 173.467 268.636C170.387 267.728 167.008 267.636 163.626 268.072C166.876 271.854 179.369 287.775 177.537 306.944C183.54 304.774 187.768 302.364 187.768 302.364Z" fill="#E68262"/>
<path d="M177.071 306.842C177.054 306.999 177.142 307.167 177.241 307.23C177.288 307.288 177.393 307.299 177.498 307.31C177.55 307.316 177.655 307.327 177.713 307.28C183.71 305.162 187.939 302.752 187.997 302.705C188.165 302.617 188.234 302.466 188.198 302.303C188.117 301.078 185.99 271.862 173.57 268.17C170.693 267.337 167.326 267.14 163.519 267.585C163.356 267.621 163.188 267.709 163.171 267.865C163.102 268.017 163.138 268.179 163.226 268.347C166.949 272.656 178.859 288.091 177.071 306.842ZM173.318 269.043C184.452 272.388 187.015 299.004 187.267 302.099C186.31 302.633 182.777 304.482 178.039 306.203C179.424 288.257 168.721 273.424 164.493 268.375C167.859 268.096 170.802 268.301 173.318 269.043Z" fill="#E68262"/>
<path d="M174.989 257.875C174.989 257.875 201.402 281.35 199.261 308.895C199.261 308.895 269.604 313.209 281.961 285.209C294.317 257.209 273.583 140.175 253.517 148.581C241.932 153.44 224.837 164.276 220.522 186.884C216.154 209.486 221.724 241.708 221.724 241.708C221.724 241.708 171.328 248.495 174.989 257.875Z" fill="#FCD375"/>
<path d="M174.854 255.163C174.277 256.107 174.229 257.054 174.6 258.045C174.646 258.103 174.693 258.161 174.74 258.219C174.787 258.277 181.415 264.161 187.639 273.336C193.36 281.769 199.969 294.793 198.895 308.856C198.883 308.961 198.919 309.123 199.018 309.187C199.112 309.303 199.217 309.314 199.321 309.325C199.478 309.341 217.163 310.364 236.111 307.976C261.662 304.752 277.247 297.142 282.473 285.369C287.423 274.201 287.441 246.696 282.568 215.394C277.695 184.092 269.435 158.727 261.506 150.642C258.783 147.868 256.016 146.993 253.41 148.093C240.606 153.458 224.385 164.545 220.114 186.734C216.082 207.679 220.563 237.194 221.245 241.234C216.346 241.985 179.441 247.395 174.854 255.163ZM221.779 242.189C221.889 242.148 221.999 242.107 222.063 242.008C222.126 241.909 222.137 241.804 222.154 241.647C222.083 241.322 216.659 209.221 220.935 186.98C225.161 165.209 241.046 154.298 253.682 149.021C255.957 148.045 258.357 148.881 260.794 151.36C277.809 168.605 292.16 261.054 281.553 285.06C269.968 311.29 205.838 308.797 199.783 308.474C200.711 294.29 194.097 281.318 188.329 272.827C182.421 264.162 176.206 258.374 175.383 257.652C175.136 256.991 175.255 256.369 175.647 255.67C180.24 247.85 221.354 242.197 221.779 242.189Z" fill="#FCD375"/>
<path d="M162.408 159.269C178.361 160.162 202.1 124.262 202.1 124.262C204.845 120.373 173.822 118.258 165.948 126.049C158.073 133.84 146.455 158.377 162.408 159.269Z" fill="#191446"/>
<path d="M161.625 159.663C161.887 159.69 162.096 159.713 162.358 159.74C169.095 160.135 177.927 154.296 188.568 142.407C196.38 133.709 202.312 124.761 202.497 124.516C202.931 123.927 202.794 123.224 202.163 122.682C198.566 119.656 173.067 118.39 165.615 125.697C162.534 128.757 159.052 134.103 156.791 139.419C154.051 145.742 153.309 151.219 154.628 154.744C155.694 157.66 158.063 159.286 161.625 159.663ZM166.229 126.396C171.26 121.426 185.373 120.696 194.224 121.631C197.838 122.013 200.627 122.678 201.55 123.463C201.941 123.769 201.82 123.915 201.751 124.066C201.502 124.411 177.929 159.746 162.453 158.851C158.817 158.678 156.541 157.168 155.499 154.518C152.732 147.19 160.132 132.418 166.229 126.396Z" fill="#191446"/>
<path d="M90.0077 51.551C87.6763 59.5075 105.073 64.2553 105.073 64.2553C100.123 69.448 100.072 72.4061 102.017 74.0403C105.652 72.7308 110.19 67.9181 111.715 65.5389C111.859 65.1837 112.003 64.8285 112.199 64.4788C112.177 64.6881 111.975 65.0901 111.715 65.5389C109.829 70.3143 115.218 70.9363 115.218 70.9363C115.218 70.9363 116.608 73.3058 117.905 76.036C131.114 78.3306 197.552 89.5809 201.932 85.7569C206.782 81.5062 214.098 51.6378 210.3 48.0086C206.503 44.3794 203.502 52.1594 203.502 52.1594C203.502 52.1594 200.506 22.6308 190.825 19.5444C181.143 16.4581 180.007 25.123 180.007 25.123C180.007 25.123 149.734 9.01309 139.39 12.6306C129.047 16.2482 134.319 24.4255 134.319 24.4255C134.319 24.4255 111.789 24.11 101.373 30.8951C90.9514 37.7325 104.935 44.1839 104.935 44.1839C104.935 44.1839 92.339 43.5945 90.0077 51.551Z" fill="#504566"/>
<path d="M89.6001 51.4021C89.1764 52.892 89.3344 54.3904 90.1845 55.8561C92.8996 60.694 101.691 63.6863 104.306 64.4918C101.603 67.4874 100.346 69.8419 100.454 71.8113C100.505 72.8222 100.939 73.7148 101.763 74.4368C101.909 74.5581 102.066 74.5747 102.228 74.539C105.26 73.4303 108.851 70.0522 110.922 67.519C110.907 68.1525 111.108 68.7558 111.424 69.2655C112.368 70.8469 114.33 71.3187 115.006 71.443C115.363 72.0629 116.524 74.0907 117.61 76.3223C117.651 76.4324 117.797 76.5536 117.955 76.5702C125.389 77.8846 144.744 81.1459 163.271 83.7376C170.942 84.8124 177.059 85.5642 181.982 86.0841C200.262 88.0146 201.727 86.6876 202.307 86.2196C206.397 82.6297 211.66 63.0758 211.837 53.463C211.888 50.5048 211.501 48.6647 210.637 47.8325C209.673 46.9369 208.706 46.5702 207.672 46.8314C205.934 47.23 204.553 49.2539 203.763 50.7051C203.001 44.433 199.561 22.0548 190.957 19.2939C187.73 18.2651 185.067 18.4072 183.025 19.6733C180.809 21.0799 179.971 23.4786 179.691 24.6133C175.423 22.4162 149.047 8.99357 139.261 12.3524C135.852 13.5271 133.702 15.311 132.916 17.7153C132.003 20.3178 132.998 22.9101 133.556 24.1333C129.426 24.1205 110.529 24.5061 101.128 30.7105C98.2806 32.5795 96.8996 34.6034 97.0899 36.7932C97.3257 40.0462 100.915 42.648 103.108 43.938C99.3968 43.9694 91.4442 45.0347 89.6001 51.4021ZM104.822 44.754C105.031 44.7761 105.257 44.6413 105.28 44.432C105.354 44.2282 105.219 44.0022 105.016 43.9277C104.963 43.9222 98.1547 40.7159 97.8978 36.6668C97.7733 34.8544 98.9693 33.0756 101.527 31.4406C111.717 24.7904 133.991 25.0259 134.252 25.0536C134.41 25.0702 134.578 24.9821 134.647 24.8306C134.716 24.6792 134.733 24.5221 134.645 24.3541C134.65 24.3018 132.606 21.1223 133.68 18.0075C134.38 15.9117 136.35 14.3206 139.486 13.2229C149.551 9.73471 179.434 25.5386 179.737 25.6765C179.888 25.7454 180.045 25.762 180.161 25.6684C180.277 25.5748 180.393 25.4812 180.41 25.3242C180.415 25.2719 180.918 22.044 183.476 20.409C185.292 19.2777 187.688 19.1603 190.659 20.1091C199.932 23.0466 202.989 51.9993 203.008 52.3188C203.038 52.5337 203.179 52.7073 203.388 52.7294C203.598 52.7516 203.824 52.6167 203.893 52.4653C204.336 51.2948 205.95 48.0784 207.844 47.6963C208.547 47.5589 209.264 47.7933 209.983 48.5043C210.368 48.8625 210.99 49.9866 210.883 53.4681C210.656 63.5519 205.198 82.4502 201.635 85.5666C198.361 88.4491 154.707 82.0922 118.248 75.8074C116.991 73.1874 115.649 70.8759 115.596 70.8704C115.503 70.7546 115.403 70.6912 115.246 70.6746C115.246 70.6746 112.947 70.3789 112.097 68.9132C111.652 68.1253 111.653 67.12 112.043 65.944C112.366 65.396 112.568 64.994 112.602 64.68C112.624 64.4707 112.489 64.2447 112.285 64.1702C112.081 64.0958 111.861 64.1783 111.734 64.3766C111.537 64.7263 111.336 65.1284 111.25 65.4368C109.91 67.5709 105.603 72.1965 102.061 73.6217C101.536 73.0899 101.277 72.5333 101.245 71.8419C101.167 70.0873 102.54 67.6393 105.4 64.6603C105.516 64.5667 105.539 64.3573 105.497 64.2471C105.462 64.0846 105.316 63.9634 105.159 63.9468C105.054 63.9357 93.7899 60.7881 90.9044 55.5617C90.1891 54.3219 90.0612 53.0383 90.4046 51.8045C92.6501 44.1565 104.717 44.7429 104.822 44.754Z" fill="#504566"/>
<path d="M112.193 64.5054C111.992 64.9072 111.796 65.2567 111.71 65.565C112.022 65.1219 112.165 64.7669 112.193 64.5054Z" fill="#191446"/>
<path d="M111.66 66.0361C111.817 66.0527 111.985 65.9647 112.107 65.8188C112.43 65.2711 112.631 64.8692 112.665 64.5553C112.687 64.346 112.552 64.1202 112.348 64.0458C112.145 63.9713 111.924 64.0538 111.797 64.252C111.601 64.6016 111.399 65.0035 111.256 65.3586C111.181 65.5623 111.258 65.8349 111.462 65.9094C111.555 66.0251 111.607 66.0306 111.66 66.0361Z" fill="#191446"/>
<path d="M102.014 74.0627C105.511 77.025 115.661 75.7155 115.661 75.7155C115.661 75.7155 116.493 75.8564 117.949 76.1159C116.651 73.3859 115.262 71.0168 115.262 71.0168C115.262 71.0168 109.878 70.3424 111.759 65.6197C110.187 67.9409 105.654 72.7009 102.014 74.0627Z" fill="#191446"/>
<path d="M111.914 65.1599C111.715 65.0331 111.442 65.1102 111.315 65.3085C109.918 67.4892 105.432 72.307 101.849 73.6219C101.686 73.6576 101.565 73.8035 101.548 73.9605C101.531 74.1175 101.567 74.28 101.713 74.4013C103.021 75.5448 105.187 76.0911 107.439 76.3289C111.105 76.7161 115.018 76.2826 115.611 76.1865L117.846 76.5813C118.003 76.5979 118.166 76.5621 118.287 76.4162C118.409 76.2703 118.426 76.1134 118.338 75.9453C117.04 73.2154 115.598 70.8407 115.604 70.7884C115.51 70.6726 115.411 70.6092 115.254 70.5926C115.254 70.5926 112.955 70.297 112.105 68.8314C111.659 68.0435 111.661 67.0381 112.109 65.8155C112.195 65.507 112.112 65.2867 111.914 65.1599ZM114.955 71.4077C115.271 71.9173 116.204 73.6033 117.166 75.5041L115.764 75.2501C115.711 75.2446 115.659 75.2391 115.606 75.2335C115.502 75.2225 106.747 76.3616 102.962 74.1098C105.858 72.7753 108.991 69.7196 110.877 67.4317C110.863 68.0651 111.063 68.6683 111.379 69.178C112.265 70.8061 114.28 71.2834 114.955 71.4077Z" fill="#191446"/>
<path d="M203.052 81.3505C200.077 70.5075 186.854 70.8571 184.417 77.3192C181.98 83.7814 179.93 80.6549 179.93 80.6549C177.887 72.5028 167.494 59.7125 167.494 59.7125C141.317 71.2867 142.671 57.0913 142.671 57.0913C130.566 75.7598 114.358 70.8208 114.358 70.8208C114.358 70.8208 124.114 111.427 137.738 123.712C151.363 135.997 162.09 126.284 162.09 126.284C162.09 126.284 162.271 126.567 162.547 126.967C164.545 125.114 168.963 120.925 170.372 118.64C171.988 115.9 168.685 127.509 164.841 132.764C165.197 134.389 165.228 136.086 164.683 137.721C162.973 142.832 160.598 148.718 169.693 145.869C178.787 143.02 193.774 126.137 190.267 120.793C186.706 115.444 187.447 100.549 187.447 100.549C197.665 101.575 205.974 92.188 203.052 81.3505Z" fill="#F9C09D"/>
<path d="M200.453 95.7848C203.838 91.8565 204.936 86.5229 203.493 81.1854C201.778 74.9197 196.852 72.442 192.844 72.2833C188.732 72.1136 185.193 74.0149 184.015 77.118C182.825 80.3256 181.816 80.8541 181.333 80.9089C180.851 80.9638 180.523 80.5588 180.383 80.3853C178.287 72.2276 168.326 59.8532 167.905 59.3326C167.765 59.159 167.556 59.1368 167.387 59.2249C154.101 65.1234 148.217 64.1847 145.609 62.3221C142.954 60.4015 143.201 57.0942 143.201 57.0942C143.223 56.8849 143.083 56.7114 142.879 56.6369C142.675 56.5625 142.454 56.6451 142.333 56.791C136.187 66.2477 128.961 69.4528 123.987 70.409C118.577 71.4779 114.571 70.3141 114.571 70.3141C114.419 70.2452 114.251 70.3333 114.135 70.4269C114.019 70.5204 113.944 70.7243 113.98 70.8868C114.383 72.5695 123.918 111.777 137.496 124.004C149.765 135.088 159.89 128.538 162.075 126.917C162.122 126.975 162.163 127.085 162.204 127.195C162.298 127.311 162.397 127.374 162.549 127.443C162.653 127.454 162.816 127.418 162.932 127.325C164.982 125.478 168.347 122.235 170.128 119.937C169.338 122.869 167.087 129.086 164.601 132.527C164.538 132.627 164.521 132.784 164.51 132.888C164.902 134.676 164.839 136.256 164.38 137.583L164.15 138.247C163.071 141.413 161.981 144.685 163.512 146.222C163.938 146.69 164.55 146.913 165.388 147.002C166.54 147.123 168.051 146.86 170.02 146.274C177.088 144.057 188.217 133.064 190.858 125.671C191.622 123.476 191.649 121.733 190.824 120.535C187.772 115.874 187.967 103.62 188.031 101.034C192.714 101.317 197.364 99.4268 200.453 95.7848ZM187.555 100.031C187.451 100.02 187.288 100.056 187.224 100.155C187.108 100.249 187.097 100.353 187.086 100.458C187.072 101.091 186.433 115.521 189.982 120.975C190.621 121.942 190.569 123.418 189.891 125.304C187.319 132.545 176.543 143.206 169.638 145.387C166.734 146.297 164.873 146.365 164.114 145.545C162.968 144.365 164.042 141.251 164.971 138.492L165.201 137.829C165.677 136.345 165.745 134.712 165.417 132.825C168.596 128.346 171.711 118.993 171.23 118.043C171.142 117.875 170.996 117.753 170.787 117.731C170.42 117.692 170.224 118.042 170.033 118.339C168.746 120.479 164.739 124.288 162.735 126.193C162.647 126.025 162.6 125.967 162.6 125.967C162.507 125.851 162.355 125.782 162.25 125.771C162.146 125.76 161.983 125.796 161.919 125.895C161.508 126.275 151.347 135.149 138.15 123.332C125.781 112.185 116.461 76.9158 115.087 71.4269C116.537 71.7387 119.872 72.2496 124.148 71.3784C129.122 70.4222 136.175 67.3575 142.364 58.4873C142.544 59.7762 143.181 61.7482 145.048 63.1093C149.034 65.964 156.549 65.0116 167.38 60.2824C168.872 62.1859 177.676 73.4858 179.495 80.7676C179.489 80.8199 179.536 80.8778 179.536 80.8778C179.583 80.9356 180.268 81.9603 181.39 81.8672C182.622 81.7328 183.779 80.3206 184.825 77.468C185.859 74.7202 189.056 73.0473 192.744 73.2251C196.485 73.4084 201.008 75.6849 202.564 81.4576C203.936 86.4701 202.871 91.4899 199.718 95.231C196.692 98.7739 192.269 100.529 187.555 100.031Z" fill="#F9C09D"/>
<path d="M170.441 118.59C169.086 120.88 164.611 125.116 162.619 126.916C163.246 127.987 164.389 130.171 164.918 132.66C168.755 127.458 172.057 115.852 170.441 118.59Z" fill="#E68262"/>
<path d="M164.815 133.125C164.868 133.131 164.868 133.131 164.815 133.125C165.025 133.147 165.193 133.059 165.256 132.96C168.475 128.592 171.67 118.985 171.189 118.034C171.101 117.866 170.955 117.745 170.746 117.723C170.379 117.684 170.183 118.034 169.993 118.331C168.637 120.621 164.161 124.857 162.285 126.563C162.112 126.703 162.084 126.965 162.224 127.138C162.851 128.21 164 130.341 164.482 132.773C164.512 132.987 164.658 133.109 164.815 133.125ZM170.093 119.876C169.384 122.552 167.362 128.104 165.134 131.625C164.596 129.716 163.769 128.042 163.189 127.029C165.244 125.13 168.428 122.081 170.093 119.876Z" fill="#E68262"/>
<path d="M174.893 231.724C178.653 233.709 202.798 236.737 203.731 233.45C204.664 230.163 205.754 198.061 205.754 198.061C195.411 202.681 177.648 197.419 177.648 197.419C177.493 200.365 171.132 229.74 174.893 231.724Z" fill="#E46790"/>
<path d="M174.691 232.126C176.493 233.11 182.36 234.206 188.331 234.837C194.458 235.485 200.693 235.615 203.021 234.644C203.631 234.391 204.042 234.012 204.144 233.546C205.077 230.259 206.144 199.372 206.178 198.053C206.195 197.896 206.107 197.728 205.955 197.659C205.804 197.59 205.647 197.574 205.536 197.615C195.472 202.106 177.954 197.028 177.75 196.953C177.599 196.884 177.488 196.926 177.372 197.019C177.257 197.113 177.193 197.212 177.176 197.369C177.162 198.002 176.782 200.078 176.288 202.724C173.355 219.818 172.038 230.682 174.691 232.126ZM177.219 202.928C177.616 200.695 177.905 198.98 178.058 198.044C181.039 198.888 195.742 202.558 205.251 198.802C205.064 203.543 204.101 230.473 203.265 233.348C203.196 233.499 203.017 233.692 202.633 233.81C198.309 235.627 178.552 233.169 175.042 231.317C172.488 229.936 175.832 210.981 177.219 202.928Z" fill="#E46790"/>
<path d="M203.247 306.754C205.723 303.895 207.927 288.68 201.63 277.699C195.39 266.67 191.84 261.216 179.027 258.698C173.479 257.583 161.676 260.991 160.955 264.777C160.955 264.777 172.204 267.553 178.923 281.541C185.642 295.53 184.301 306.127 183.046 308.957C181.791 311.787 200.771 309.614 203.247 306.754Z" fill="#2893D0"/>
<path d="M183.092 310.02C183.488 310.274 184.158 310.45 185.048 310.544C190.024 311.07 201.59 309.383 203.586 307.055C206.311 303.851 208.228 288.342 202.024 277.476C195.696 266.279 192.042 260.814 179.124 258.285C174.763 257.454 166.902 259.163 162.907 261.862C161.539 262.775 160.746 263.75 160.53 264.785C160.502 265.046 160.637 265.272 160.846 265.294C160.951 265.305 171.98 268.164 178.523 281.816C184.895 295.081 184.025 305.728 182.638 308.808C182.436 309.21 182.596 309.703 183.092 310.02ZM179.318 281.318C173.333 268.889 163.719 265.175 161.517 264.466C161.794 263.86 162.395 263.183 163.364 262.545C167.127 260.033 174.779 258.302 178.93 259.111C191.481 261.602 195.042 266.951 201.241 277.869C207.439 288.787 205.089 303.881 202.909 306.454C200.797 308.876 185.724 310.669 183.594 309.28C183.443 309.211 183.448 309.159 183.506 309.112C184.628 306.532 186.388 295.979 179.318 281.318Z" fill="#2893D0"/>
<path d="M157.719 324.624L141.142 219.314L11.8323 212.591L10.6765 212.998L28.6288 303.424L156.867 325.169L157.719 324.624Z" fill="#C0C3D6"/>
<path d="M28.5318 303.837L156.77 325.582C156.77 325.582 156.77 325.582 156.822 325.587C156.927 325.598 157.037 325.557 157.095 325.51L158 324.971C158.168 324.883 158.243 324.679 158.207 324.517L141.63 219.207C141.6 218.992 141.454 218.871 141.192 218.843L11.8825 212.12C11.8302 212.114 11.7778 212.109 11.7198 212.156L10.5641 212.563C10.3435 212.645 10.2164 212.843 10.2464 213.058L28.1987 303.485C28.2288 303.699 28.3747 303.821 28.5318 303.837ZM11.8868 213.073L140.725 219.747L157.218 324.359L156.707 324.676L28.9877 303.039L11.1725 213.315L11.8868 213.073Z" fill="#C0C3D6"/>
<path d="M165.317 319.926L150.5 214.009L17.7207 210.517L11.8322 212.594L141.142 219.318L157.719 324.627L165.317 319.926Z" fill="#9FA3B5"/>
<path d="M11.7821 213.065L140.725 219.75L157.236 324.682C157.272 324.844 157.365 324.96 157.517 325.029C157.569 325.034 157.622 325.04 157.674 325.045C157.779 325.056 157.889 325.015 157.947 324.968L165.545 320.267C165.714 320.179 165.788 319.975 165.753 319.813L150.935 213.896C150.905 213.681 150.713 213.502 150.498 213.533L17.7187 210.041C17.6663 210.036 17.6139 210.03 17.5559 210.077L11.6674 212.154C11.4467 212.236 11.3197 212.434 11.3497 212.649C11.4321 212.87 11.5202 213.038 11.7821 213.065ZM17.7754 211L150.135 214.447L164.868 319.667L158.117 323.875L141.624 219.263C141.594 219.048 141.448 218.927 141.239 218.905L14.1925 212.315L17.7754 211Z" fill="#9FA3B5"/>
<path d="M153.648 100.104C154.695 100.215 155.712 100.111 156.758 99.7449C161.983 97.9167 164.035 90.0927 161.323 82.2414C160.027 78.5071 157.877 75.3175 155.233 73.2923C152.496 71.1515 149.497 70.4643 146.913 71.355C144.329 72.2457 142.381 74.632 141.594 78.0402C140.771 81.286 141.051 85.1243 142.348 88.8585C144.477 95.2199 149.144 99.6278 153.648 100.104ZM143.294 78.4844C143.962 75.6984 145.436 73.7911 147.468 73.1066C148.235 72.8702 148.99 72.7384 149.828 72.827C151.242 72.9764 152.658 73.6022 154.077 74.7043C156.423 76.5393 158.391 79.4451 159.564 82.8489C161.957 89.7144 160.383 96.5308 156.092 98.0346C151.801 99.5384 146.337 95.1522 143.944 88.2867C142.824 84.8885 142.563 81.3696 143.294 78.4844Z" fill="#191446"/>
<path d="M130.582 109.243C131.63 109.354 132.653 109.197 133.541 108.815C135.763 107.833 137.189 105.391 137.493 102.037C137.781 98.8407 137.067 95.1149 135.492 91.5098C133.917 87.9047 131.589 84.9078 129.044 82.9462C126.296 80.9101 123.601 80.361 121.326 81.3376C116.822 83.3485 115.961 90.9287 119.375 98.6429C122.112 104.751 126.551 108.818 130.582 109.243ZM122.054 82.9488C122.664 82.6957 123.367 82.5583 124.1 82.6357C125.304 82.7629 126.569 83.3197 127.94 84.3639C130.245 86.0886 132.38 88.9063 133.832 92.1809C135.283 95.4555 135.973 98.9143 135.719 101.797C135.481 104.523 134.437 106.37 132.823 107.099C129.376 108.64 123.949 104.416 121.046 97.867C118.144 91.3179 118.607 84.4893 122.054 82.9488Z" fill="#191446"/>
<path d="M139.395 100.656C140.496 99.7666 141.771 98.7373 141.913 96.9009C142.101 94.6459 140.57 91.6275 136.998 87.3884C136.67 86.9835 136.088 86.975 135.735 87.308C135.33 87.6355 135.321 88.2164 135.654 88.569C138.805 92.2875 140.312 95.0388 140.186 96.7184C140.068 97.8169 139.257 98.472 138.33 99.2205C137.461 99.9223 136.534 100.671 136.092 101.841C135.793 102.656 135.919 103.462 136.376 104.146C137.482 105.691 140.433 106.32 142.632 106.552C143.731 106.668 144.679 106.715 145.051 106.702C145.528 106.699 145.939 106.319 145.995 105.796C145.993 105.32 145.666 104.915 145.09 104.854C142.554 104.798 138.638 104.279 137.865 103.086C137.777 102.918 137.689 102.75 137.833 102.395C138.005 101.778 138.648 101.211 139.395 100.656Z" fill="#62392C"/>
<path d="M142.564 87.2892C143.047 87.2343 143.411 86.7966 143.357 86.3146C143.302 85.8326 142.864 85.469 142.382 85.5239C138.155 85.9242 135.391 87.0081 134.044 88.7178C133.124 89.8906 133.28 90.9124 133.269 91.0171C133.329 91.4468 133.668 91.7471 134.034 91.7858C134.087 91.7914 134.192 91.8024 134.244 91.808C134.726 91.7531 135.091 91.3153 135.036 90.8334C135.105 90.6819 134.971 87.969 142.564 87.2892Z" fill="#191446"/>
<path d="M158.932 79.3537C159.036 79.3648 159.089 79.3702 159.199 79.329C159.362 79.2932 175.987 76.3909 183.648 77.5712C184.166 77.679 184.63 77.3043 184.68 76.8331C184.736 76.3096 184.414 75.8519 183.942 75.8021C176.025 74.5418 159.609 77.4663 158.906 77.6037C158.418 77.711 158.106 78.1544 158.16 78.6367C158.226 79.0143 158.565 79.3149 158.932 79.3537Z" fill="#191446"/>
<path d="M130.402 97.5332C129.902 97.745 127.859 96.048 126.109 93.5883C125.834 93.1889 125.264 93.0756 124.864 93.3508C124.464 93.626 124.35 94.196 124.625 94.5954C125.404 95.7358 127.96 99.0743 130.107 99.301C130.421 99.3342 130.741 99.315 131.02 99.1857C132.68 98.5145 133.127 95.8107 132.329 90.3829C132.275 89.901 131.784 89.5318 131.302 89.5867C130.819 89.6415 130.449 90.1316 130.504 90.6135C131.516 97.0161 130.402 97.5332 130.402 97.5332Z" fill="#62392C"/>
<path d="M152.914 90.0811C151.875 90.3946 149.174 87.4111 147.417 84.5272C147.147 84.0755 146.577 83.9623 146.177 84.2375C145.724 84.5072 145.61 85.0772 145.886 85.4766C146.835 87.0053 149.839 91.6081 152.562 91.8957C152.876 91.9288 153.196 91.9097 153.469 91.8327C155.496 91.2002 156.238 88.2099 155.937 82.0938C155.935 81.6174 155.503 81.2014 154.968 81.2508C154.491 81.2533 154.074 81.6855 154.123 82.2197C154.418 89.3933 153.077 90.0454 152.914 90.0811Z" fill="#62392C"/>
<path d="M148.153 116.445C148.939 116.528 149.741 116.454 150.519 116.113C152.075 115.431 152.992 113.781 153.312 111.275C153.368 110.752 153.04 110.347 152.522 110.239C152.109 110.143 151.593 110.512 151.485 111.029C151.237 112.855 150.69 114.014 149.744 114.444C148.351 115.09 146.188 114.015 145.494 113.571C145.097 113.318 144.504 113.414 144.25 113.811C143.996 114.207 144.092 114.799 144.488 115.053C144.535 115.111 146.215 116.24 148.153 116.445Z" fill="#62392C"/>
<path d="M192.722 78.9584C192.267 78.7517 191.716 78.9579 191.508 79.4121L187.835 87.542C187.702 87.7925 187.721 88.1119 187.856 88.3378C187.991 88.5636 188.236 88.7482 188.55 88.7814L195.2 89.4837C195.724 89.5389 196.135 89.1592 196.185 88.6883C196.235 88.2175 195.861 87.7547 195.39 87.705L189.944 87.1299L193.07 80.1591C193.388 79.6636 193.176 79.1651 192.722 78.9584Z" fill="#62392C"/>
<path d="M119.364 79.2828C119.678 79.316 119.957 79.1867 120.142 78.9417C120.2 78.8949 121.594 77.2428 124.985 77.2305C125.462 77.228 125.879 76.7958 125.877 76.3193C125.875 75.8428 125.442 75.4267 124.965 75.4292C120.673 75.4522 118.787 77.7402 118.723 77.8393C118.417 78.2303 118.466 78.7646 118.851 79.1228C119.003 79.1918 119.154 79.2607 119.364 79.2828Z" fill="#62392C"/>
<path d="M139.44 70.8323C139.807 70.871 140.196 70.7005 140.34 70.3452C140.345 70.2929 141.804 67.5366 145.865 67.7008C146.342 67.6983 146.805 67.3239 146.803 66.8474C146.801 66.371 146.531 65.9193 145.95 65.9107C140.731 65.6772 138.852 69.3945 138.731 69.5404C138.523 69.9947 138.677 70.5401 139.132 70.7468C139.231 70.8102 139.336 70.8212 139.44 70.8323Z" fill="#62392C"/>
</svg>
