<svg width="308" height="250" viewBox="0 0 308 250" fill="none" xmlns="http://www.w3.org/2000/svg">
<path d="M171.44 240.39C187.733 234.966 171.976 120.037 161.098 123.653C150.219 127.269 140.219 141.049 138.609 159.764C137.634 170.758 137.829 197.194 138.121 217.033L152.024 174.032C152.024 174.032 152.756 226.464 149.341 243.078C155.439 243.371 163.488 243.029 171.44 240.39Z" fill="#C0C3D6"/>
<path d="M149 243.273C149.097 243.371 149.195 243.42 149.292 243.42C150.61 243.468 151.927 243.517 153.244 243.517C159.829 243.517 165.976 242.589 171.537 240.732C185.05 236.237 177.586 161.816 168.22 133.475C165.683 125.754 163.293 122.382 160.951 123.164C149.049 127.122 139.682 142.075 138.17 159.617C137.194 170.612 137.39 196.852 137.682 216.935C137.682 217.131 137.829 217.326 138.024 217.326C138.268 217.375 138.414 217.228 138.463 217.033L151.536 176.475C151.634 187.226 151.78 228.565 148.853 242.833C148.902 243.078 148.902 243.175 149 243.273ZM152.415 173.983C152.415 173.788 152.268 173.592 152.073 173.592C151.878 173.543 151.683 173.69 151.634 173.885L138.512 214.492C138.219 194.8 138.121 170.269 139.048 159.813C140.56 142.612 149.683 127.953 161.244 124.093C162.951 123.555 165.244 127.073 167.488 133.866C172.025 147.645 176.22 173.104 177.586 195.826C179.196 221.675 176.854 238.191 171.342 240.048C164.903 242.198 157.683 243.078 149.878 242.687C153.097 225.682 152.415 174.521 152.415 173.983Z" fill="#C0C3D6"/>
<path d="M138.609 241.563C138.609 241.563 142.951 242.638 149.341 243.029C152.707 226.415 152.024 173.983 152.024 173.983L138.121 216.984C138.316 230.861 138.609 241.563 138.609 241.563Z" fill="#9FA3B5"/>
<path d="M152.073 173.592C151.878 173.543 151.683 173.69 151.634 173.886L137.731 216.886C137.731 216.935 137.731 216.984 137.731 217.033C137.926 230.764 138.219 241.514 138.219 241.612C138.219 241.807 138.365 241.954 138.512 242.003C138.56 242.003 142.951 243.126 149.341 243.469C149.536 243.469 149.731 243.322 149.731 243.126C153.097 226.659 152.414 174.521 152.414 173.983C152.414 173.788 152.268 173.592 152.073 173.592ZM149 242.589C143.878 242.296 140.073 241.514 138.999 241.27C138.951 239.364 138.707 229.444 138.512 217.082L151.585 176.573C151.683 187.274 151.829 228.027 149 242.589Z" fill="#9FA3B5"/>
<path d="M154.61 122.48C147.78 128.051 149.244 134.745 149.244 134.745C149.244 134.745 155.878 145.398 163.683 137.824C171.537 130.201 161.439 116.91 154.61 122.48Z" fill="#504566"/>
<path d="M154.366 122.138C147.39 127.806 148.805 134.501 148.853 134.794C148.853 134.843 148.902 134.892 148.902 134.941C149.049 135.136 152.268 140.316 157.049 140.902C157.342 140.951 157.634 140.951 157.927 140.951C160.024 140.951 162.073 140.022 164.025 138.117C168.513 133.768 167.391 127.464 164.073 123.751C161.634 120.965 157.683 119.451 154.366 122.138ZM163.439 137.481C161.439 139.436 159.293 140.316 157.146 140.022C153.049 139.534 150.024 135.087 149.634 134.55C149.488 133.817 148.61 127.904 154.854 122.773C157.927 120.232 161.39 121.991 163.39 124.239C166.513 127.709 167.537 133.523 163.439 137.481Z" fill="#504566"/>
<path d="M161.732 236.237C169.635 237.116 207.441 240.439 233.051 228.809C232.954 227.881 232.807 226.855 232.661 225.828C221.197 225.242 206.563 165.823 206.563 165.823C211.441 163.38 220.124 175.4 226.905 189.327L225.002 118.033C225.002 118.033 190.123 101.859 166.464 105.573C142.804 109.287 134.853 106.843 134.853 106.843C134.853 106.843 98.3152 113.245 86.4124 130.836C78.8024 142.075 74.1193 184 71.0461 207.993C82.2659 190.841 99.9738 170.025 99.9738 170.025C99.9738 170.025 103.73 197.438 95.2419 213.319C92.1687 219.085 90.1686 225.389 88.9003 231.155C102.852 235.406 124.706 239.852 146.024 235.308C148.707 211.951 159.293 137.481 154.171 132.693C148.366 127.269 142.463 114.027 153.293 114.564C164.122 115.102 160.903 131.178 160.903 131.178C158.902 140.365 158.415 209.068 161.732 236.237Z" fill="#FCD375"/>
<path d="M161.293 236.285C161.293 236.481 161.488 236.627 161.683 236.676C164.708 237.018 172.903 237.8 183.293 237.8C198.318 237.8 217.978 236.188 233.198 229.249C233.344 229.151 233.441 229.005 233.441 228.809C233.344 227.881 233.198 226.855 233.051 225.828C233.002 225.633 232.856 225.486 232.661 225.486C229.539 225.34 224.027 220.013 215.685 195.581C211.099 182.095 207.636 168.51 207.05 166.214C207.685 166.018 208.367 166.018 209.148 166.312C213.587 167.826 220.221 176.769 226.514 189.669C226.612 189.864 226.807 189.962 227.002 189.913C227.197 189.864 227.344 189.669 227.344 189.473L225.441 118.18C225.441 118.033 225.344 117.887 225.197 117.789C224.856 117.642 189.928 101.615 166.415 105.28C143.195 108.945 135.048 106.599 134.999 106.599C134.95 106.599 134.853 106.55 134.804 106.599C134.414 106.648 97.9249 113.196 86.0709 130.738C79.0463 141.097 74.4607 177.501 71.4363 201.592C71.1436 203.839 70.8996 205.989 70.607 208.042C70.5582 208.237 70.7045 208.433 70.8997 208.482C71.0948 208.53 71.2899 208.482 71.3875 208.335C81.2902 193.187 96.4127 175.009 99.6811 171.149C100.218 176.133 102.315 199.344 94.8516 213.221C92.1198 218.303 89.9734 224.314 88.4612 231.155C88.4124 231.35 88.5588 231.594 88.7539 231.643C103.242 236.041 124.95 240.341 146.073 235.797C146.268 235.748 146.365 235.601 146.414 235.455C146.902 231.399 147.585 225.828 148.414 219.378C153.683 177.502 158.512 136.26 154.463 132.448C150.219 128.49 146.463 121.063 148.024 117.349C148.707 115.688 150.463 114.906 153.244 115.004C155.585 115.102 157.39 115.981 158.659 117.594C162.22 122.138 160.464 131.031 160.464 131.129C158.366 140.853 158.122 209.996 161.293 236.285ZM159.244 117.056C157.829 115.248 155.78 114.222 153.195 114.124C149.292 113.929 147.731 115.59 147.146 116.958C145.292 121.307 149.78 129.223 153.78 132.986C157.878 136.797 151.097 190.402 147.487 219.183C146.707 225.486 146.024 230.959 145.536 234.966C124.853 239.315 103.632 235.162 89.2905 230.861C90.8027 224.265 92.9004 218.401 95.4858 213.515C103.974 197.683 100.315 170.221 100.266 169.976C100.266 169.83 100.12 169.683 99.9738 169.634C99.8274 169.585 99.6323 169.634 99.5347 169.781C99.3396 169.976 82.6561 189.571 71.5338 206.283C71.729 204.768 71.9241 203.253 72.1192 201.641C75.1437 177.648 79.6804 141.342 86.6075 131.129C97.9737 114.32 132.609 107.723 134.707 107.332C135.731 107.625 144.073 109.531 166.415 106.013C188.66 102.543 221.392 116.958 224.466 118.327L226.319 187.47C221.392 177.648 214.563 167.191 209.343 165.432C208.221 165.041 207.197 165.09 206.319 165.53C206.124 165.627 206.075 165.823 206.075 166.018C206.124 166.165 209.782 181.069 214.856 195.826C221.49 215.322 227.344 225.584 232.222 226.317C232.319 227.099 232.417 227.881 232.515 228.663C207.294 239.95 170.122 236.823 162.073 235.943C158.756 207.846 159.439 139.974 161.195 131.373C161.293 130.885 163 121.894 159.244 117.056Z" fill="#FCD375"/>
<path d="M87.0465 242.003C91.2906 243.517 96.12 244.739 101.486 245.228C121.584 247.133 145.097 250.603 145.341 241.563C145.39 240.537 145.585 238.338 145.926 235.308C124.658 239.853 102.754 235.357 88.8027 231.155C87.9246 235.21 87.388 238.973 87.0465 242.003Z" fill="#504566"/>
<path d="M88.949 230.764C88.8515 230.715 88.7051 230.764 88.6076 230.812C88.51 230.861 88.4124 230.959 88.4124 231.106C87.6319 234.624 87.0466 238.289 86.6075 242.002C86.6075 242.198 86.7051 242.393 86.9002 242.442C91.6808 244.153 96.559 245.228 101.437 245.716C103.632 245.912 105.876 246.156 108.169 246.4C116.023 247.182 124.023 248.013 130.609 248.013C136.804 248.013 141.731 247.28 144.122 245.179C145.195 244.25 145.731 243.077 145.78 241.66C145.829 240.683 145.975 238.729 146.366 235.455C146.366 235.308 146.317 235.21 146.219 235.113C146.122 235.015 145.975 234.966 145.829 235.015C124.901 239.364 103.34 235.113 88.949 230.764ZM144.902 241.563C144.853 242.735 144.414 243.664 143.536 244.446C138.853 248.55 123.292 246.987 108.218 245.472C105.974 245.228 103.73 245.032 101.486 244.788C96.803 244.348 92.1199 243.322 87.4856 241.709C87.8758 238.289 88.4124 234.917 89.1442 231.692C103.486 235.992 124.706 240.146 145.439 235.846C145.097 238.826 144.951 240.634 144.902 241.563Z" fill="#504566"/>
<path d="M161.732 236.237C162.415 241.856 163.244 245.716 164.269 246.889C170.22 253.632 233.441 246.596 233.685 237.703C233.734 235.797 233.49 232.621 233.002 228.858C207.392 240.439 169.635 237.067 161.732 236.237Z" fill="#504566"/>
<path d="M233.198 228.418C233.1 228.369 232.954 228.369 232.807 228.418C207.197 240.048 169.098 236.579 161.732 235.797C161.586 235.797 161.488 235.846 161.39 235.894C161.293 235.992 161.244 236.09 161.293 236.237C162.025 242.394 162.903 245.912 163.927 247.133C165.683 249.137 171.976 249.967 180.123 249.967C194.904 249.967 215.782 247.182 226.661 243.224C231.539 241.465 234.076 239.559 234.124 237.654C234.173 235.895 233.929 232.865 233.442 228.711C233.393 228.614 233.344 228.516 233.198 228.418ZM233.246 237.654C233.198 239.168 230.759 240.879 226.319 242.442C208.66 248.795 168.805 251.482 164.512 246.547C163.927 245.863 163 243.566 162.122 236.676C170.61 237.556 207.392 240.586 232.612 229.396C233.1 233.256 233.295 235.992 233.246 237.654Z" fill="#504566"/>
<path d="M68.7533 227.001C71.4851 225.389 74.0705 225.731 74.0705 225.731C74.0705 225.731 79.778 228.369 88.8515 231.106C90.1198 225.34 92.1199 219.036 95.1931 213.27C103.681 197.389 99.925 169.976 99.925 169.976C99.925 169.976 82.1683 190.744 70.9973 207.944C69.9241 216.055 69.1923 222.848 68.7533 227.001Z" fill="#E8AE37"/>
<path d="M100.023 169.585C99.8762 169.536 99.6811 169.585 99.5835 169.732C99.3884 169.927 81.6805 190.744 70.607 207.749C70.5582 207.797 70.5582 207.846 70.5582 207.944C69.5338 216.007 68.802 222.75 68.363 227.001C68.363 227.148 68.4118 227.294 68.5581 227.392C68.7045 227.49 68.8508 227.49 68.9972 227.392C71.3387 226.024 73.5827 226.17 73.9729 226.17C74.6559 226.464 80.2658 229.005 88.7051 231.545C88.7539 231.545 88.8027 231.545 88.8027 231.545C88.9003 231.545 88.949 231.545 88.9978 231.497C89.0954 231.448 89.1929 231.35 89.1929 231.203C90.7052 224.411 92.8028 218.45 95.4858 213.466C103.974 197.634 100.315 170.172 100.266 169.927C100.315 169.781 100.169 169.634 100.023 169.585ZM94.8029 213.124C92.1687 218.059 90.0222 223.972 88.51 230.617C79.8268 227.978 74.3144 225.389 74.2169 225.389C74.1681 225.389 74.1193 225.34 74.1193 225.34C74.0705 225.34 73.8266 225.291 73.4364 225.291C72.5583 225.291 70.9972 225.437 69.2411 226.268C69.6801 222.017 70.4118 215.665 71.3387 208.091C81.2415 192.943 96.3151 174.814 99.5835 171.002C100.169 175.987 102.267 199.197 94.8029 213.124Z" fill="#E8AE37"/>
<path d="M68.7533 227.001C68.4606 229.835 68.3142 231.448 68.3142 231.448C68.3142 231.448 75.3876 237.849 87.0465 242.003C87.388 238.973 87.9246 235.21 88.8515 231.155C79.8268 228.418 74.0705 225.78 74.0705 225.78C74.0705 225.78 71.4851 225.389 68.7533 227.001Z" fill="#191446"/>
<path d="M74.2656 225.389C74.2169 225.389 74.1681 225.34 74.1681 225.34C74.0705 225.34 71.3875 224.998 68.6069 226.659C68.5094 226.708 68.4118 226.855 68.4118 227.001C68.1191 229.835 67.9728 231.448 67.9728 231.448C67.9728 231.594 68.0216 231.692 68.1191 231.79C68.1679 231.839 75.3876 238.289 86.9978 242.393C87.0466 242.393 87.0953 242.442 87.1441 242.442C87.2417 242.442 87.2905 242.442 87.388 242.393C87.4856 242.345 87.5832 242.198 87.5832 242.1C87.9734 238.435 88.6076 234.771 89.3393 231.301C89.3881 231.106 89.2418 230.861 89.0466 230.813C80.0707 228.027 74.3144 225.389 74.2656 225.389ZM86.7051 241.416C76.4608 237.702 69.8265 232.23 68.7533 231.301C68.8021 230.813 68.9484 229.396 69.1435 227.294C71.4363 226.024 73.5827 226.17 73.973 226.17C74.6071 226.464 80.0707 228.907 88.3637 231.448C87.6319 234.673 87.0953 238.044 86.7051 241.416Z" fill="#191446"/>
<path d="M206.514 165.872C206.514 165.872 221.148 225.242 232.612 225.877C230.71 211.804 226.905 191.965 226.905 191.965L226.856 189.375C220.124 175.449 211.392 163.429 206.514 165.872Z" fill="#E8AE37"/>
<path d="M227.246 189.18C222.27 178.919 214.953 167.289 209.392 165.383C208.27 164.992 207.246 165.041 206.367 165.481C206.172 165.579 206.124 165.774 206.124 165.969C206.709 168.413 220.953 225.633 232.612 226.268C232.71 226.268 232.856 226.219 232.905 226.122C233.002 226.024 233.051 225.926 233.002 225.78C231.1 211.853 227.344 192.014 227.295 191.916L227.246 189.327C227.295 189.278 227.295 189.229 227.246 189.18ZM232.124 225.34C221.636 223.141 208.221 170.905 207.002 166.116C207.636 165.921 208.319 165.921 209.099 166.214C213.538 167.729 220.173 176.622 226.417 189.473L226.514 192.014C226.563 192.21 230.222 211.462 232.124 225.34Z" fill="#E8AE37"/>
<path d="M179.245 112.414C178.318 112.316 177.488 112.952 177.391 113.88C177.293 114.808 177.927 115.639 178.854 115.737C193.294 117.496 214.514 121.894 216.465 126.292C216.758 126.927 217.343 127.269 217.978 127.269C218.221 127.269 218.417 127.22 218.66 127.122C219.49 126.731 219.88 125.754 219.49 124.874C216.075 117.203 185.391 113.147 179.245 112.414Z" fill="#4461AB"/>
<path d="M128.706 115.346C127.633 115.395 102.559 116.421 85.7294 139.534C85.1928 140.267 85.3392 141.342 86.1197 141.879C86.4124 142.075 86.7539 142.221 87.0953 142.221C87.6319 142.221 88.1198 141.977 88.4612 141.537C104.315 119.793 128.609 118.718 128.853 118.718C129.78 118.669 130.511 117.936 130.463 116.958C130.414 116.03 129.682 115.346 128.804 115.346C128.706 115.346 128.706 115.346 128.706 115.346Z" fill="#4461AB"/>
<path d="M82.5098 79.3329C79.9243 85.2943 83.7293 112.61 83.7293 112.61L98.7054 122.334C98.7054 122.334 117.633 112.072 118.169 100.296C118.706 88.5193 102.901 64.2826 102.901 64.2826C102.901 64.2826 85.0952 73.3714 82.5098 79.3329Z" fill="#F9C09D"/>
<path d="M102.754 63.9406C102.023 64.3315 84.7538 73.1271 82.1683 79.1862C79.5829 85.1966 83.1928 111.583 83.3391 112.707C83.3391 112.805 83.4367 112.952 83.5342 113L98.5103 122.725C98.5591 122.773 98.6567 122.773 98.7542 122.773C98.803 122.773 98.9006 122.773 98.9494 122.725C99.7299 122.285 118.072 112.17 118.609 100.296C119.145 88.5193 103.925 65.0644 103.291 64.0383C103.145 63.8917 102.901 63.8428 102.754 63.9406ZM117.779 100.296C117.291 111.046 100.852 120.672 98.7542 121.894L84.1196 112.414C83.7781 109.971 80.5098 85.05 82.9001 79.5283C85.1928 74.202 100.315 66.1883 102.754 64.8689C104.608 67.7519 118.267 89.4966 117.779 100.296Z" fill="#F9C09D"/>
<path d="M96.1688 89.35C88.071 93.2591 87.2905 109.726 87.2905 109.726C87.2905 109.726 91.4369 108.407 94.8517 104.645C98.2176 100.833 114.267 102.592 115.584 103.423C116.852 104.254 104.267 85.4408 96.1688 89.35Z" fill="#F9AE82"/>
<path d="M95.9737 88.9591C87.7295 92.966 86.8514 108.994 86.8514 109.678C86.8514 109.824 86.9002 109.922 86.9978 110.02C87.0953 110.069 87.1441 110.117 87.2417 110.117C87.2905 110.117 87.3392 110.117 87.388 110.117C87.5832 110.069 91.6808 108.749 95.0956 104.889C98.3152 101.322 114.169 103.032 115.291 103.765C115.438 103.863 115.779 103.863 115.926 103.716C116.121 103.521 116.365 103.228 113.974 99.9536C112.169 97.5593 102.852 85.6364 95.9737 88.9591ZM114.852 102.739C111.047 101.81 97.681 100.784 94.5102 104.351C91.9735 107.186 88.9978 108.603 87.7295 109.091C87.9734 106.062 89.4369 93.0638 96.3639 89.6921C97.0469 89.3501 97.7786 89.2035 98.6079 89.2035C99.6811 89.2035 100.852 89.4967 102.12 90.0831C107.681 92.7706 113.389 100.296 114.852 102.739Z" fill="#F9AE82"/>
<path d="M95.7785 67.9473C90.9003 70.4394 90.7052 79.8214 95.3395 88.9102C99.9738 97.999 107.681 103.374 112.56 100.882C117.438 98.3899 117.633 89.0079 112.999 79.9191C108.364 70.8303 100.657 65.4552 95.7785 67.9473Z" fill="#924260"/>
<path d="M95.6322 67.5563C90.5589 70.1462 90.3149 79.8214 95.0468 89.1056C97.3396 93.5523 100.413 97.3148 103.681 99.6115C105.876 101.175 108.072 101.957 109.974 101.957C110.999 101.957 111.925 101.762 112.803 101.322C115.291 100.051 116.706 97.0705 116.804 92.9659C116.901 88.959 115.682 84.268 113.389 79.8214C108.657 70.4394 100.657 64.9665 95.6322 67.5563ZM115.926 92.8681C115.828 96.6796 114.608 99.3672 112.364 100.491C110.169 101.615 107.242 101.029 104.12 98.8785C100.949 96.6307 97.9737 93.0636 95.7297 88.7147C91.193 79.8213 91.3393 70.6837 95.9736 68.2893C96.7054 67.8984 97.5347 67.703 98.4127 67.703C102.949 67.703 108.803 72.6383 112.608 80.0657C114.852 84.4635 116.023 89.0079 115.926 92.8681Z" fill="#924260"/>
<path d="M101.291 65.6018C96.5102 68.045 96.3639 77.2315 100.901 86.1249C105.437 95.0182 112.95 100.296 117.73 97.8523C122.511 95.4091 122.657 86.2226 118.121 77.3293C113.584 68.3871 106.023 63.1586 101.291 65.6018Z" fill="#191446"/>
<path d="M101.096 65.2111C96.12 67.752 95.8761 77.2317 100.51 86.3205C102.754 90.6694 105.73 94.3343 108.998 96.582C111.145 98.0968 113.291 98.8786 115.145 98.8786C116.121 98.8786 117.047 98.6832 117.926 98.2434C122.901 95.7024 123.145 86.2228 118.511 77.134C113.877 67.9963 106.023 62.6701 101.096 65.2111ZM117.535 97.4616C115.389 98.5855 112.511 97.999 109.486 95.8979C106.364 93.7478 103.437 90.1808 101.291 85.9296C96.8517 77.2317 96.9493 68.2896 101.535 65.9441C102.267 65.5531 103.096 65.4065 103.925 65.4065C108.364 65.4065 114.072 70.2441 117.779 77.476C122.17 86.1739 122.072 95.165 117.535 97.4616Z" fill="#191446"/>
<path d="M140.073 126.536C135.877 130.689 136.414 143.834 136.414 143.834C136.414 143.834 143.244 132.546 154.61 133.572C154.61 133.621 144.219 122.382 140.073 126.536Z" fill="#E8AE37"/>
<path d="M142.512 125.168C141.39 125.168 140.463 125.51 139.78 126.194C135.536 130.445 135.975 143.296 136.024 143.834C136.024 144.029 136.17 144.176 136.316 144.225C136.365 144.225 136.365 144.225 136.414 144.225C136.56 144.225 136.707 144.127 136.755 144.029C136.804 143.932 143.585 132.986 154.561 133.963C154.756 133.963 154.902 133.866 155 133.719C155.098 133.572 155.049 133.377 154.951 133.23C154.61 132.986 147.439 125.265 142.512 125.168ZM153.146 133.133C144.658 133.133 138.804 139.876 136.804 142.563C136.804 139.192 137.097 130.054 140.317 126.878C140.853 126.34 141.536 126.096 142.365 126.096C142.414 126.096 142.414 126.096 142.463 126.096C146.17 126.194 151.585 131.227 153.537 133.181C153.439 133.133 153.293 133.133 153.146 133.133Z" fill="#E8AE37"/>
<path d="M160.025 133.181C160.025 133.181 169 126.682 180.903 141.879C180.903 141.879 176.22 123.457 171.44 123.653C166.708 123.799 161.634 126.682 160.025 133.181Z" fill="#E8AE37"/>
<path d="M171.537 123.213C171.488 123.213 171.488 123.213 171.44 123.213C166.903 123.409 161.39 126.047 159.634 133.084C159.585 133.279 159.683 133.426 159.781 133.523C159.927 133.621 160.122 133.621 160.268 133.523C160.61 133.279 169.098 127.464 180.562 142.124C180.659 142.221 180.757 142.27 180.903 142.27C180.952 142.27 181.05 142.27 181.098 142.221C181.293 142.124 181.391 141.928 181.342 141.733C180.854 139.827 176.464 123.213 171.537 123.213ZM165.147 131.422C163.147 131.422 161.586 131.911 160.707 132.351C162.61 126.487 167.439 124.19 171.488 124.044H171.537C174.757 124.044 178.367 134.305 180.025 140.071C174.025 133.084 168.805 131.422 165.147 131.422Z" fill="#E8AE37"/>
<path d="M143.439 105.573C141.926 105.915 141.048 106.159 141.048 106.159C141.048 106.159 150.073 134.403 157 133.621C161.878 133.084 169.391 115.981 171 106.355C151.975 130.836 143.439 105.573 143.439 105.573Z" fill="#F9C09D"/>
<path d="M170.61 106.062C164.61 113.831 159.098 117.301 154.219 116.519C147.244 115.346 143.829 105.573 143.829 105.475C143.78 105.28 143.536 105.133 143.341 105.182L140.951 105.769C140.853 105.817 140.756 105.866 140.658 105.964C140.609 106.062 140.609 106.208 140.609 106.306C140.999 107.479 149.585 134.061 156.659 134.061C156.756 134.061 156.854 134.061 157 134.061C162.415 133.426 169.878 115.395 171.391 106.453C171.439 106.257 171.342 106.062 171.147 106.013C170.952 105.817 170.757 105.866 170.61 106.062ZM156.902 133.181C156.805 133.181 156.756 133.181 156.659 133.181C151.39 133.181 144.122 114.369 141.536 106.453L143.146 106.062C143.829 107.919 147.292 116.177 154.073 117.301C159 118.131 164.415 114.955 170.22 107.87C168.025 118.131 161 132.693 156.902 133.181Z" fill="#F9C09D"/>
<path d="M169.244 99.9049C163.781 100.882 149.195 104.205 143.439 105.573C143.439 105.573 151.975 130.836 170.952 106.306C171.635 102.25 171.293 99.5628 169.244 99.9049Z" fill="#E68262"/>
<path d="M169.195 99.5139C163.976 100.442 150.756 103.472 143.341 105.182C143.243 105.231 143.146 105.28 143.048 105.378C143 105.475 143 105.622 143 105.72C143.146 106.159 146.561 116.079 154.073 117.349C154.561 117.447 155.098 117.496 155.634 117.496C160.464 117.496 165.683 113.831 171.293 106.599C171.342 106.55 171.342 106.501 171.391 106.404C171.976 103.081 171.781 100.882 170.854 100.003C170.561 99.6605 170.025 99.3185 169.195 99.5139ZM170.22 100.54C170.61 100.931 171.196 102.201 170.561 106.111C164.61 113.782 159.098 117.252 154.219 116.47C148.122 115.444 144.756 107.772 143.975 105.866C150.219 104.4 164.073 101.224 169.293 100.296C169.732 100.247 170.025 100.345 170.22 100.54Z" fill="#E68262"/>
<path d="M160.025 133.181C170.122 113.342 180.903 141.879 180.903 141.879C180.903 141.879 183.976 116.421 182.415 112.316C180.903 108.212 171.244 102.543 171.244 102.543C171.244 102.543 172.22 105.378 167 116.177C161.781 126.976 160.025 133.181 160.025 133.181Z" fill="#2893D0"/>
<path d="M159.634 133.084C159.585 133.279 159.683 133.524 159.878 133.572C160.073 133.67 160.317 133.572 160.415 133.377C162.756 128.735 165.342 126.438 168.025 126.585C174.757 126.927 180.464 141.831 180.513 142.026C180.562 142.173 180.757 142.319 180.903 142.319H180.952C181.147 142.319 181.293 142.124 181.342 141.928C181.489 140.902 184.415 116.323 182.854 112.17C181.293 107.967 171.927 102.397 171.488 102.153C171.342 102.055 171.147 102.104 171 102.201C170.854 102.299 170.805 102.495 170.854 102.641C170.854 102.69 171.635 105.622 166.659 115.932C161.537 126.634 159.634 132.986 159.634 133.084ZM171.781 103.325C174.025 104.694 180.854 109.189 182.074 112.463C183.342 115.835 181.342 134.55 180.708 140.169C179.001 136.211 174.074 126.047 168.122 125.754C168.025 125.754 167.927 125.754 167.83 125.754C165.683 125.754 163.634 127.073 161.732 129.614C162.805 126.731 164.659 122.187 167.439 116.323C171.147 108.603 171.732 104.84 171.781 103.325Z" fill="#2893D0"/>
<path d="M196.562 76.352C197.099 68.9735 205.733 27.4387 169.927 16.9817C134.121 6.52475 101.779 19.8159 97.3396 50.4051C97.3396 50.4051 97.9249 72.8827 106.901 78.6976C115.877 84.5124 116.608 106.99 111.291 109.873C108.267 111.534 115.584 110.704 122.365 109.678C126.023 104.84 123.243 93.5524 121.243 91.2069C119.096 88.6171 117.047 80.359 115.486 75.9123C113.925 71.4656 115.438 67.3121 115.438 67.3121C115.438 67.3121 133.78 90.8649 139.975 102.934C141.341 101.908 142.268 101.224 142.268 101.224H163.634C164.903 93.6501 172.269 64.9667 172.269 64.9667C172.269 64.9667 177.147 65.9928 180.903 67.3121C184.659 68.6315 186.708 86.3694 180.22 93.3081C175.976 97.9014 177.342 104.742 178.806 108.945C181.537 110.117 184.562 111.046 187.83 111.388C187.83 111.388 183.879 100.54 187.83 95.6535C191.879 90.8159 196.026 83.7794 196.562 76.352Z" fill="#4461AB"/>
<path d="M197.001 76.4009C197.05 75.7656 197.148 74.8372 197.294 73.6644C198.709 61.9369 203.05 26.2171 170.025 16.5908C149.341 10.5805 129.438 12.2907 115.389 21.3307C105.096 27.9274 98.7054 37.9934 96.9005 50.4538C96.9493 51.3822 97.5835 73.2247 106.657 79.0884C111.974 82.5578 114.462 92.3795 114.169 100.296C113.974 105.084 112.803 108.603 111.096 109.531C110.755 109.726 110.023 110.117 110.218 110.704C110.364 111.192 110.608 111.925 122.462 110.117C122.56 110.117 122.657 110.02 122.755 109.971C126.609 104.84 123.633 93.3569 121.633 90.9625C120.121 89.1545 118.56 84.1215 117.34 80.0657C116.852 78.502 116.413 77.0361 115.974 75.8145C114.901 72.6383 115.389 69.6087 115.73 68.2405C118.706 72.1008 134.17 92.3796 139.731 103.179C139.78 103.276 139.878 103.374 140.024 103.374C140.121 103.423 140.268 103.374 140.365 103.325C141.487 102.543 142.268 101.908 142.56 101.664H163.781C163.976 101.664 164.171 101.517 164.22 101.322C165.391 94.3341 171.879 68.9734 172.757 65.5041C173.976 65.7973 177.879 66.6769 180.952 67.7519C181.879 68.0451 182.806 69.7553 183.391 72.2474C184.806 77.9157 184.708 88.1284 180.074 93.0637C175.83 97.657 176.903 104.302 178.562 109.14C178.61 109.238 178.708 109.336 178.806 109.384C181.928 110.704 185.001 111.534 187.928 111.877H187.977C188.123 111.877 188.221 111.828 188.318 111.73C188.416 111.632 188.416 111.486 188.367 111.339C188.318 111.241 184.513 100.638 188.318 95.9956C191.245 92.233 196.367 84.8056 197.001 76.4009ZM187.342 110.899C184.757 110.557 182.025 109.824 179.293 108.651C177.732 104.107 176.757 97.8523 180.659 93.6011C185.489 88.4215 185.635 77.8179 184.172 72.0031C183.781 70.3417 182.806 67.5076 181.196 66.9212C177.44 65.6019 172.561 64.5757 172.513 64.5757C172.269 64.5268 172.074 64.6734 172.025 64.8688C171.976 65.162 164.854 92.8193 163.439 100.833H142.463C142.365 100.833 142.268 100.882 142.219 100.931C142.219 100.931 141.487 101.517 140.317 102.348C133.975 90.2296 116.169 67.312 115.974 67.0677C115.877 66.97 115.73 66.8723 115.584 66.9212C115.438 66.9212 115.291 67.0677 115.243 67.2143C115.194 67.4098 113.682 71.5632 115.243 76.1076C115.633 77.2804 116.121 78.7464 116.56 80.31C117.877 84.659 119.389 89.5943 121.048 91.5489C122.853 93.6989 125.633 104.547 122.218 109.384C114.657 110.508 112.169 110.557 111.34 110.459C111.389 110.41 111.486 110.362 111.535 110.313C113.535 109.238 114.852 105.475 115.047 100.344C115.34 92.4284 112.999 82.1669 107.145 78.4044C98.4615 72.785 97.7786 50.6982 97.7786 50.5516C99.5347 38.3844 105.828 28.5626 115.877 22.0636C129.731 13.1703 149.39 11.46 169.83 17.4215C202.123 26.8523 197.879 62.0347 196.513 73.5667C196.367 74.7395 196.27 75.6679 196.221 76.3032C195.635 84.4635 190.611 91.7443 187.684 95.3603C184.074 99.7581 186.513 108.456 187.342 110.899Z" fill="#4461AB"/>
<path d="M132.267 108.114C134.95 106.599 138.024 104.449 140.073 102.983C133.877 90.9135 115.535 67.3609 115.535 67.3609C115.535 67.3609 114.023 71.5144 115.584 75.9611C117.145 80.4078 119.145 88.6658 121.34 91.2556C123.34 93.6011 126.072 104.889 122.462 109.726C127.487 108.993 132.267 108.114 132.267 108.114Z" fill="#283A84"/>
<path d="M122.023 109.922C122.121 110.069 122.218 110.117 122.365 110.117H122.414C127.438 109.384 132.267 108.505 132.316 108.505C132.365 108.505 132.414 108.456 132.463 108.456C135.146 106.941 138.17 104.84 140.268 103.276C140.414 103.179 140.512 102.934 140.414 102.739C134.268 90.767 116.023 67.2632 115.828 67.0189C115.73 66.9212 115.584 66.8234 115.438 66.8723C115.291 66.8723 115.145 67.019 115.096 67.1655C115.047 67.361 113.535 71.5145 115.096 76.0588C115.486 77.2316 115.974 78.6975 116.413 80.2611C117.73 84.6101 119.243 89.5454 120.901 91.4999C122.755 93.6988 125.536 104.742 121.974 109.482C121.974 109.629 121.926 109.775 122.023 109.922ZM121.633 90.9625C120.121 89.1545 118.56 84.1215 117.34 80.0657C116.852 78.502 116.413 77.0361 115.974 75.8145C114.901 72.6383 115.389 69.6087 115.73 68.2405C118.706 72.1008 133.877 91.9887 139.536 102.837C137.487 104.303 134.658 106.306 132.17 107.674C131.585 107.772 127.633 108.456 123.292 109.14C126.316 103.716 123.536 93.2103 121.633 90.9625Z" fill="#283A84"/>
<path d="M181.001 67.361C177.196 66.0417 172.366 65.0155 172.366 65.0155C172.366 65.0155 165 93.7478 163.732 101.273H166.854C166.854 101.273 171.781 105.915 178.903 108.994C177.44 104.791 176.074 97.9501 180.318 93.3569C186.806 86.3693 184.806 68.6315 181.001 67.361Z" fill="#283A84"/>
<path d="M184.123 72.0031C183.733 70.3417 182.757 67.5076 181.147 66.9213C177.391 65.6019 172.513 64.5758 172.464 64.5758C172.22 64.5269 172.025 64.6734 171.976 64.8689C171.879 65.1621 164.561 93.6989 163.342 101.175C163.342 101.273 163.342 101.419 163.439 101.517C163.537 101.615 163.634 101.664 163.781 101.664H166.756C167.586 102.397 172.318 106.55 178.806 109.336C178.854 109.336 178.903 109.384 178.952 109.384C179.049 109.384 179.147 109.336 179.245 109.287C179.342 109.189 179.391 108.993 179.342 108.847C177.732 104.254 176.659 97.9013 180.659 93.6501C185.489 88.4216 185.586 77.8669 184.123 72.0031ZM178.22 108.212C171.683 105.231 167.195 101.029 167.147 100.98C167.049 100.882 166.952 100.882 166.854 100.882H164.22C165.586 93.3081 171.781 68.9247 172.659 65.553C173.879 65.8462 177.781 66.7257 180.854 67.8007C181.781 68.0939 182.708 69.8043 183.294 72.2964C184.708 77.9646 184.611 88.1772 179.976 93.1126C176.025 97.3638 176.757 103.521 178.22 108.212Z" fill="#283A84"/>
<path d="M112.267 76.3519C110.657 84.268 121.438 88.2748 124.706 86.6134C127.926 85.0009 119.291 70.7325 119.291 70.7325C119.291 70.7325 113.925 68.4359 112.267 76.3519Z" fill="#F9AE82"/>
<path d="M119.487 70.3905C119.389 70.3416 117.389 69.511 115.34 70.586C113.633 71.4656 112.462 73.4202 111.877 76.3032C111.242 79.4793 112.462 82.5089 115.34 84.7078C117.535 86.4181 120.56 87.4443 122.853 87.4443C123.633 87.4443 124.365 87.2977 124.901 87.0533C125.34 86.8579 125.584 86.467 125.731 85.9783C126.755 82.3624 119.926 71.0747 119.633 70.586C119.633 70.4883 119.535 70.4394 119.487 70.3905ZM124.95 85.734C124.853 86.0272 124.755 86.1737 124.511 86.2715C122.853 87.1021 118.804 86.3204 115.828 84.0238C113.974 82.6067 111.925 80.1146 112.657 76.4498C113.194 73.8111 114.218 72.1008 115.682 71.319C116.316 70.977 116.95 70.8792 117.535 70.8792C118.218 70.8792 118.804 71.0257 118.999 71.1235C120.999 74.3974 125.731 83.0465 124.95 85.734Z" fill="#F9AE82"/>
<path d="M121.487 22.65C121.487 22.65 145.292 12.4862 161.683 19.3761C178.074 26.2172 189.782 51.3823 192.123 62.1813C194.465 72.9804 199.148 45.6652 199.148 45.6652C199.148 45.6652 164.317 -11.7506 121.487 22.65Z" fill="#283A84"/>
<path d="M156.219 11.8509C144.268 9.74974 132.511 13.268 121.243 22.3568C121.096 22.5034 121.048 22.6989 121.145 22.8943C121.243 23.0898 121.487 23.1386 121.682 23.0897C121.926 22.992 145.487 13.0725 161.537 19.8158C177.635 26.5591 189.343 51.2357 191.733 62.3279C192.172 64.2825 192.708 65.1621 193.44 65.1621C196.026 65.1132 198.757 50.3072 199.538 45.8117C199.538 45.714 199.538 45.6163 199.489 45.5186C199.294 45.1277 181.586 16.3464 156.219 11.8509ZM193.391 64.2337C193.391 64.2337 192.952 64.1848 192.465 62.0348C190.025 50.796 178.171 25.7773 161.781 18.9363C157.634 17.1771 153 16.5419 148.366 16.5419C138.414 16.5419 128.56 19.5715 123.975 21.1841C134.365 13.5612 145.146 10.6782 156.024 12.6328C180.123 16.884 197.294 43.6128 198.66 45.714C196.709 57.1483 194.416 64.2337 193.391 64.2337Z" fill="#283A84"/>
<path d="M130.999 3.44635C102.364 13.3658 96.0712 36.4788 94.0712 52.3597C92.0711 68.2407 101.291 50.8938 101.291 50.8938C101.291 50.8938 102.169 40.2413 108.852 33.0093C115.535 25.7774 131.536 11.167 159.634 16.591C187.733 22.0149 195.294 49.6722 195.294 49.6722L202.465 46.5448C202.465 46.5448 198.367 30.8593 188.806 20.4023C179.245 9.9453 159.683 -6.47313 130.999 3.44635Z" fill="#504566"/>
<path d="M130.902 3.05529C109.047 10.6293 96.9006 26.7546 93.6809 52.3107C93.0956 56.8551 93.3882 59.054 94.559 59.4449C94.6566 59.4938 94.7541 59.4937 94.8517 59.4937C97.0469 59.4937 100.559 53.1414 101.632 51.138C101.681 51.0891 101.681 51.0402 101.681 50.9914C101.681 50.8936 102.657 40.3878 109.145 33.4002C122.657 18.7408 139.634 13.268 159.537 17.1283C187.05 22.4056 194.806 49.6232 194.855 49.9164C194.904 50.0141 194.952 50.1118 195.099 50.1607C195.196 50.2096 195.343 50.2096 195.44 50.1607L202.611 47.0333C202.806 46.9356 202.904 46.7401 202.855 46.5447C202.806 46.3981 198.611 30.6149 189.099 20.2068C172.269 1.63827 152.122 -4.27437 130.902 3.05529ZM195.587 49.1345C194.416 45.4697 185.781 21.2329 159.732 16.1999C139.487 12.2907 122.267 17.8612 108.559 32.7649C102.218 39.6548 100.998 49.7209 100.901 50.796C98.7543 54.8517 95.8273 58.9563 94.8517 58.6143C94.6566 58.5654 93.8273 57.9789 94.559 52.4084C97.6811 27.1943 109.681 11.3134 131.194 3.83717C137.292 1.736 143.048 0.807602 148.366 0.807602C166.122 0.807602 179.635 10.9225 188.562 20.6954C197.148 30.1262 201.343 43.9549 202.026 46.3492L195.587 49.1345Z" fill="#504566"/>
<path d="M197.782 53.3369C191.001 55.5358 188.318 66.0417 191.83 76.7919C195.343 87.4932 203.684 94.3831 210.465 92.1842C217.246 89.9853 219.929 79.4794 216.417 68.7292C212.904 57.9791 204.562 51.0892 197.782 53.3369Z" fill="#191446"/>
<path d="M208.563 55.829C204.953 52.8482 201.05 51.7732 197.635 52.8971C194.221 54.021 191.684 57.1483 190.513 61.7416C189.391 66.2371 189.684 71.6122 191.391 76.8896C193.099 82.1669 196.026 86.6625 199.587 89.6432C202.27 91.8421 205.099 93.0148 207.733 93.0148C208.66 93.0148 209.636 92.8683 210.514 92.5751C217.49 90.2785 220.319 79.5283 216.709 68.6315C215.051 63.3053 212.172 58.8097 208.563 55.829ZM210.319 91.7443C207.197 92.7705 203.587 91.7932 200.172 88.9591C196.709 86.1249 193.879 81.7271 192.221 76.5963C190.562 71.4656 190.221 66.2859 191.342 61.937C192.416 57.6369 194.757 54.754 197.879 53.7279C198.709 53.4836 199.538 53.3369 200.416 53.3369C202.904 53.3369 205.538 54.412 208.026 56.5131C211.49 59.3473 214.319 63.7451 215.977 68.8759C219.392 79.3328 216.856 89.5943 210.319 91.7443Z" fill="#191446"/>
<path d="M203.148 51.5778C196.367 53.7767 193.684 64.2825 197.196 75.0327C200.709 85.7829 209.05 92.6239 215.831 90.425C222.612 88.2261 225.295 77.7203 221.783 66.9701C218.27 56.2199 209.929 49.33 203.148 51.5778Z" fill="#924260"/>
<path d="M213.929 54.0699C210.319 51.0892 206.416 50.0142 203.001 51.1381C196.026 53.4347 193.196 64.1849 196.806 75.0816C198.514 80.359 201.44 84.8545 205.001 87.8352C207.684 90.0341 210.514 91.2069 213.148 91.2069C214.124 91.2069 215.051 91.0602 215.929 90.767C219.343 89.6432 221.88 86.5159 223.051 81.9227C224.173 77.4271 223.88 72.052 222.173 66.7747C220.417 61.5462 217.538 57.0507 213.929 54.0699ZM222.222 81.776C221.148 86.0761 218.807 88.9591 215.685 89.9853C212.563 91.0114 208.953 90.0342 205.538 87.2C202.075 84.3659 199.245 79.9681 197.587 74.8373C194.172 64.3803 196.709 54.0698 203.245 51.9198C204.075 51.6755 204.904 51.529 205.782 51.529C208.27 51.529 210.904 52.604 213.392 54.7052C216.856 57.5393 219.685 61.937 221.343 67.0678C223.002 72.1986 223.344 77.4271 222.222 81.776Z" fill="#924260"/>
<path d="M235.978 102.69C230.758 105.133 223.197 110.557 225.929 111.534C249.393 120.086 270.565 96.3865 268.76 93.6012C266.857 90.8648 241.149 100.247 235.978 102.69Z" fill="#191446"/>
<path d="M235.783 102.299C231.929 104.107 224.807 108.652 224.905 110.899C224.905 111.192 225.051 111.681 225.734 111.925C229.149 113.196 232.71 113.782 236.32 113.782C241.198 113.782 246.174 112.658 251.101 110.411C258.418 107.088 264.125 101.957 267.003 98.2922C268.077 96.924 269.735 94.4808 269.004 93.4058C266.808 90.0341 239.1 100.784 235.783 102.299ZM266.369 97.8036C259.735 106.257 242.954 117.349 226.027 111.192C225.734 111.095 225.734 110.948 225.734 110.899C225.685 109.58 231.198 105.426 236.124 103.13C241.783 100.491 261.491 93.5524 267.003 93.5524C267.735 93.5524 268.174 93.65 268.369 93.9432C268.565 94.1387 268.174 95.4581 266.369 97.8036Z" fill="#504566"/>
<path d="M216.124 91.4023C216.124 91.4023 220.856 102.641 233.393 102.641C234.759 102.641 237.442 116.177 237.442 116.177L269.345 103.325C268.516 97.2173 263.686 85.05 259.491 79.6261C255.296 74.2021 237.198 51.871 229.1 49.4278C221.002 46.9846 209.246 44.1504 202.465 46.5937C195.733 49.0369 187.196 55.7802 183.537 57.8325C179.879 59.8848 185.684 65.6996 192.026 62.1814C197.538 59.1029 202.562 56.2688 206.709 57.7348C208.904 57.3927 211.782 57.637 210.563 57.5882C209.733 57.5393 208.709 57.9302 207.928 58.3211C208.124 58.4188 208.319 58.5166 208.465 58.6631C208.465 58.6631 183.684 72.3941 192.952 82.5579C196.709 76.3033 213.002 67.1656 213.002 67.1656C213.002 67.1656 197.977 76.9873 193.928 83.4863C194.074 83.6329 194.269 83.7794 194.416 83.926C194.416 83.926 192.952 88.9102 198.855 91.0114C199.05 89.5455 199.44 87.3954 200.27 86.5159C201.099 85.6363 205.88 82.1181 209.636 79.4305C212.172 77.5737 214.221 76.1566 214.221 76.1566C214.221 76.1566 212.172 77.6226 209.636 79.4305C205.88 82.2158 201.05 86.125 200.465 88.2751C200.075 89.6433 199.928 90.6206 199.879 91.3535C200.123 91.4024 200.318 91.5001 200.611 91.5489C200.611 91.5489 201.148 98.5854 208.026 97.1194C214.856 95.6535 214.124 93.6501 213.587 91.891C211.685 91.2557 208.953 91.7444 209.928 91.5C211.148 91.158 215.685 90.0341 215.685 90.0341C215.685 90.0341 215.636 90.5717 215.587 91.3046C215.978 91.3046 216.124 91.4023 216.124 91.4023Z" fill="#F9C09D"/>
<path d="M215.538 91.5979C215.636 91.6467 215.734 91.6467 215.782 91.6956C216.417 93.0638 221.49 103.032 233.295 103.032C233.295 103.032 233.295 103.032 233.344 103.032C234.124 103.521 235.832 110.117 237.051 116.226C237.1 116.372 237.149 116.47 237.246 116.519C237.295 116.568 237.393 116.568 237.442 116.568C237.49 116.568 237.539 116.568 237.588 116.519L269.491 103.667C269.687 103.619 269.784 103.423 269.735 103.228C268.955 97.2172 264.174 85.05 259.784 79.3328C259.589 79.0397 238.368 51.7733 229.197 49.0369C216.612 45.2743 207.587 44.297 202.319 46.2027C197.635 47.913 192.025 51.6756 187.977 54.4609C186.123 55.7314 184.464 56.8552 183.342 57.4905C182.025 58.2234 181.635 59.5916 182.367 60.911C183.586 63.1587 187.83 65.0155 192.269 62.5723L192.611 62.3769C197.831 59.4939 202.758 56.7575 206.66 58.1257C206.709 58.1746 206.806 58.1746 206.855 58.1257C207.148 58.0769 207.392 58.0768 207.685 58.0279C207.636 58.0768 207.587 58.1745 207.587 58.2722C207.587 58.4188 207.636 58.5166 207.733 58.6144C204.709 60.3735 191.977 68.2407 190.66 76.2056C190.269 78.6488 190.952 80.8477 192.708 82.8023C192.806 82.9 192.952 82.9488 193.05 82.9488C193.196 82.9488 193.294 82.8511 193.391 82.7534C194.904 80.2613 198.416 77.2805 202.123 74.6418C198.66 77.476 195.294 80.6034 193.635 83.2909C193.538 83.4864 193.538 83.6818 193.733 83.8284L193.879 83.975C193.928 84.0238 193.977 84.0727 194.026 84.1216C193.83 85.2455 193.391 89.5455 198.806 91.4513C198.904 91.5001 199.05 91.5001 199.148 91.4023C199.245 91.3535 199.343 91.207 199.343 91.1092C199.587 89.0081 200.075 87.4444 200.66 86.8091C200.757 86.6625 201.001 86.4671 201.294 86.2228C200.66 87.0046 200.27 87.6399 200.123 88.1774C199.782 89.399 199.587 90.4251 199.538 91.3535C199.538 91.549 199.684 91.7444 199.879 91.7933L200.123 91.8422C200.172 91.8422 200.27 91.891 200.318 91.891C200.465 92.7705 200.953 95.2138 202.904 96.6797C204.27 97.7059 206.075 97.999 208.221 97.5104C211.538 96.7774 213.392 95.8978 214.124 94.6762C214.709 93.6501 214.368 92.6239 214.124 91.7444C214.075 91.5978 213.977 91.5001 213.88 91.4513C213.538 91.3047 213.148 91.2558 212.758 91.2069C213.734 90.9626 214.758 90.6693 215.392 90.5228C215.392 90.7182 215.343 90.9626 215.343 91.2069C215.295 91.4024 215.392 91.549 215.538 91.5979ZM209.928 91.0603C209.733 91.1092 209.343 91.207 209.441 91.5979C209.489 91.9888 209.831 91.9888 210.27 91.9399C210.953 91.9399 212.319 91.8422 213.392 92.1842C213.636 92.9172 213.782 93.6013 213.441 94.2365C212.855 95.2138 211.099 95.9956 208.124 96.6797C206.221 97.0706 204.66 96.8752 203.489 95.9957C201.489 94.4809 201.197 91.549 201.197 91.549C201.197 91.3535 201.05 91.2069 200.855 91.158C200.757 91.1092 200.611 91.1092 200.514 91.0603C200.562 90.3273 200.757 89.399 201.05 88.4217C201.489 86.858 204.709 83.7795 210.075 79.8215C212.612 78.0135 214.66 76.5476 214.66 76.5476C214.856 76.401 214.904 76.1567 214.758 75.9612C214.612 75.7658 214.368 75.7168 214.173 75.8634C214.173 75.8634 212.075 77.2806 209.538 79.1374C203.928 83.1443 200.757 85.5386 200.075 86.2716C199.294 87.1511 198.855 88.9592 198.611 90.474C193.733 88.4705 194.855 84.2681 194.904 84.0727C194.952 83.9261 194.904 83.7307 194.757 83.6329C194.66 83.5841 194.611 83.4863 194.513 83.4374C198.709 77.085 213.099 67.6054 213.246 67.5077C213.441 67.3611 213.49 67.1168 213.392 66.9213C213.294 66.7259 213.002 66.677 212.807 66.7747C212.172 67.1168 197.196 75.5703 192.952 81.825C191.635 80.1636 191.099 78.3555 191.44 76.3521C192.855 67.8497 208.563 59.0541 208.709 59.0052C208.855 58.9563 208.904 58.8098 208.904 58.6632C208.904 58.5654 208.855 58.4678 208.807 58.37C209.489 58.0769 210.124 57.9302 210.563 57.9791C210.904 57.9791 211.099 58.0279 211.246 57.7836C211.343 57.637 211.294 57.4904 211.246 57.3438C211.197 57.295 211.05 57.2461 210.855 57.1972V57.1484C210.807 57.1484 210.758 57.1484 210.611 57.1484C210.563 57.1484 210.563 57.1484 210.514 57.1484C209.392 57.0507 207.294 57.2461 206.758 57.2949C202.514 55.8779 197.489 58.6632 192.123 61.6439L191.782 61.8394C187.83 64.0383 184.123 62.4257 183.05 60.52C182.757 59.9825 182.415 58.9563 183.684 58.2722C184.855 57.637 186.464 56.5131 188.367 55.2427C192.416 52.5062 197.928 48.7437 202.514 47.0823C207.587 45.2255 216.465 46.2028 228.856 49.9165C236.271 52.1642 253.149 72.3453 259.052 79.9681C263.247 85.3432 267.882 97.2172 268.76 103.13L237.637 115.688C236.368 109.482 234.661 102.299 233.295 102.299C221.148 102.299 216.417 91.4512 216.368 91.3046C216.319 91.2069 216.27 91.1092 216.173 91.0603C216.173 91.0603 216.124 91.0114 216.026 91.0114C216.026 90.4739 216.075 90.083 216.075 90.083C216.075 89.9364 216.026 89.7898 215.929 89.6921C215.831 89.5944 215.685 89.5455 215.538 89.5944C215.685 89.5455 211.148 90.7183 209.928 91.0603Z" fill="#F9C09D"/>
<path d="M194.026 83.4862C198.026 76.9872 213.099 67.1655 213.099 67.1655C213.099 67.1655 196.806 76.3032 193.05 82.5578C193.343 82.851 193.635 83.193 194.026 83.4862Z" fill="#DA6249"/>
<path d="M212.855 66.7747C212.172 67.1656 196.416 76.0589 192.66 82.3136C192.562 82.4602 192.562 82.6556 192.708 82.8022C193.001 83.1443 193.343 83.4375 193.733 83.7795C193.83 83.8284 193.928 83.8772 194.026 83.8772H194.074C194.172 83.8772 194.318 83.7794 194.367 83.6817C198.27 77.3293 213.148 67.5565 213.294 67.4587C213.49 67.3121 213.538 67.0678 213.441 66.8724C213.294 66.7258 213.051 66.6769 212.855 66.7747ZM193.928 82.851C193.782 82.7533 193.684 82.6067 193.586 82.509C195.148 80.0658 198.611 77.2316 202.172 74.6418C198.855 77.3293 195.635 80.3101 193.928 82.851Z" fill="#DA6249"/>
<path d="M214.368 76.1566C214.368 76.1566 212.319 77.5248 209.782 79.4305C210.612 78.8441 211.392 78.2578 212.075 77.7692C213.441 76.7919 214.368 76.1566 214.368 76.1566Z" fill="#DA6249"/>
<path d="M214.124 75.8146C214.124 75.8146 212.026 77.2316 209.49 79.0885C209.294 79.2351 209.246 79.4794 209.392 79.6748C209.489 79.7725 209.587 79.8703 209.733 79.8703C209.831 79.8703 209.929 79.8214 209.977 79.7725L212.27 78.1601C213.636 77.1828 214.563 76.5475 214.563 76.5475C214.758 76.4009 214.807 76.1566 214.66 75.9612C214.612 75.7169 214.319 75.668 214.124 75.8146Z" fill="#DA6249"/>
<path d="M200.026 91.3535C200.075 90.6205 200.221 89.6432 200.611 88.275C201.197 86.125 206.026 82.2158 209.782 79.4305C206.026 82.118 201.197 85.6363 200.416 86.5158C199.587 87.4443 199.197 89.5454 199.001 91.0113C199.294 91.1579 199.636 91.2557 200.026 91.3535Z" fill="#DA6249"/>
<path d="M209.538 79.0884C203.928 83.0953 200.757 85.4897 200.075 86.2227C199.196 87.2 198.757 89.35 198.562 90.9625C198.514 91.158 198.66 91.3534 198.855 91.4022C199.196 91.5 199.538 91.6465 199.928 91.7443C199.977 91.7443 199.977 91.7443 200.026 91.7443C200.123 91.7443 200.221 91.6954 200.27 91.6466C200.367 91.5488 200.416 91.4512 200.465 91.3534C200.514 90.5227 200.709 89.5454 201.001 88.3727C201.44 86.809 204.66 83.7305 210.026 79.7725C210.221 79.6259 210.27 79.3816 210.124 79.1861C209.977 78.9907 209.733 78.9418 209.538 79.0884ZM200.172 88.1773C199.879 89.1545 199.733 90.0341 199.635 90.8159C199.587 90.8159 199.489 90.767 199.44 90.767C199.684 88.8124 200.172 87.4443 200.709 86.809C200.806 86.6624 201.05 86.467 201.343 86.2227C200.709 86.9556 200.318 87.6397 200.172 88.1773Z" fill="#DA6249"/>
<path d="M215.734 91.2069C215.734 90.5228 215.831 89.9363 215.831 89.9363C215.831 89.9363 211.294 91.1091 210.075 91.4023C209.099 91.6955 211.88 91.158 213.734 91.7932V91.7443C213.294 90.425 214.904 90.9137 215.734 91.2069Z" fill="#DA6249"/>
<path d="M215.538 91.5978C215.685 91.6467 215.831 91.6466 215.929 91.5489C216.026 91.4511 216.124 91.3534 216.124 91.2068C216.124 90.5227 216.221 89.9852 216.221 89.9852C216.221 89.8386 216.173 89.692 216.075 89.5943C215.977 89.4966 215.831 89.4477 215.685 89.4966C215.685 89.4966 211.148 90.6693 209.928 90.9625C209.733 91.0114 209.343 91.109 209.441 91.5C209.489 91.8909 209.831 91.891 210.27 91.8421C211.002 91.7932 212.465 91.7443 213.587 92.1352C213.636 92.1352 213.636 92.1352 213.685 92.1352C213.782 92.1352 213.929 92.0863 213.977 91.9886C214.075 91.8909 214.124 91.6955 214.075 91.5489C213.977 91.3046 214.026 91.2068 214.026 91.2068C214.124 91.3046 214.514 91.2069 215.538 91.5978ZM215.294 90.5227C215.294 90.5715 215.294 90.6205 215.294 90.6205C215.197 90.6205 215.148 90.5716 215.051 90.5716C215.148 90.5716 215.246 90.5227 215.294 90.5227ZM213.246 91.2556C213.099 91.2068 212.904 91.2068 212.709 91.1579C212.904 91.1091 213.099 91.0602 213.294 91.0113C213.246 91.109 213.246 91.2068 213.246 91.2556Z" fill="#DA6249"/>
<path d="M208.026 58.2722C208.855 57.8812 209.88 57.4903 210.66 57.5392C211.831 57.5881 209.002 57.3438 206.806 57.6858C207.197 57.8324 207.636 58.0278 208.026 58.2722Z" fill="#DA6249"/>
<path d="M210.904 57.1485C210.855 57.1485 210.807 57.1485 210.66 57.1485C210.611 57.1485 210.611 57.1485 210.563 57.1485C209.343 57.0507 206.904 57.2461 206.709 57.295C206.514 57.3438 206.367 57.4904 206.367 57.6859C206.367 57.8814 206.465 58.0769 206.66 58.1257C207.002 58.2723 207.392 58.4189 207.831 58.6632C207.88 58.712 207.977 58.7121 208.026 58.7121C208.075 58.7121 208.172 58.712 208.221 58.6632C209.246 58.1745 210.075 57.9303 210.66 57.9791C211.002 57.9791 211.197 58.0279 211.343 57.7836C211.441 57.637 211.392 57.4905 211.343 57.3439C211.246 57.2461 211.099 57.1973 210.904 57.1485Z" fill="#DA6249"/>
<path d="M134.609 101.419C134.609 101.419 128.414 107.625 128.17 112.267C127.926 116.909 135.39 147.547 136.414 143.785C137.146 141.146 136.853 126.878 147.146 130.103C153.293 132.009 154.61 133.572 154.61 133.572C154.61 133.572 141.048 107.381 142.073 103.227C143.097 99.074 134.609 101.419 134.609 101.419Z" fill="#2893D0"/>
<path d="M142.024 101.175C140.268 99.4649 135.097 100.882 134.511 101.029C134.463 101.029 134.365 101.078 134.316 101.126C134.072 101.371 128.023 107.528 127.78 112.267C127.633 115.688 133.829 144.176 136.121 144.567C136.17 144.567 136.17 144.567 136.219 144.567C136.414 144.567 136.707 144.469 136.853 143.932C136.999 143.492 137.048 142.759 137.194 141.83C137.585 138.508 138.316 132.986 141.536 130.885C143 129.956 144.853 129.81 147.097 130.543C152.951 132.4 154.366 133.866 154.366 133.866C154.512 134.012 154.756 134.061 154.902 133.914C155.097 133.817 155.146 133.572 155.049 133.377C151.292 126.145 141.731 106.599 142.512 103.325C142.707 102.446 142.56 101.713 142.024 101.175ZM153.439 132.253C152.317 131.618 150.414 130.738 147.244 129.712C144.756 128.93 142.658 129.077 140.999 130.152C137.438 132.448 136.707 138.215 136.316 141.684C136.219 142.368 136.17 143.003 136.073 143.443C134.17 140.413 128.414 116.519 128.609 112.267C128.804 108.114 134.121 102.495 134.853 101.762C136.414 101.371 140.268 100.638 141.439 101.713C141.731 102.006 141.829 102.446 141.682 103.081C140.756 106.844 150.561 126.536 153.439 132.253Z" fill="#2893D0"/>
<path d="M140.365 36.1854C135.487 61.4972 118.755 67.361 115.73 68.2406C117.145 74.0554 126.17 107.967 147.244 108.163C153.341 108.212 158.171 107.186 162.073 105.622C174.025 97.3149 173.683 73.1758 171.537 63.4518C168.074 61.7416 163.488 59.1517 158.805 55.4869C150.805 52.8971 140.365 36.1854 140.365 36.1854Z" fill="#F9C09D"/>
<path d="M171.732 63.0609C167.098 60.7643 162.854 58.1256 159.098 55.1449C159.049 55.096 159 55.096 158.951 55.096C151.146 52.6039 140.853 36.1366 140.756 35.99C140.658 35.8434 140.512 35.7456 140.317 35.7945C140.17 35.8434 140.024 35.9412 139.975 36.1367C135.194 61.1064 118.852 66.9212 115.633 67.8496C115.438 67.8985 115.291 68.1428 115.34 68.3383C116.023 71.1724 118.657 81.2384 123.731 90.5227C130.267 102.446 138.17 108.505 147.244 108.554C147.39 108.554 147.536 108.554 147.634 108.554C153.097 108.554 158.024 107.674 162.317 105.915C174.025 97.8035 174.366 74.1531 171.976 63.3052C171.927 63.2075 171.83 63.1098 171.732 63.0609ZM161.927 105.182C157.732 106.892 152.707 107.772 147.244 107.674C138.512 107.625 130.853 101.664 124.462 90.083C119.633 81.2874 117.047 71.7588 116.218 68.4849C120.218 67.2633 135.633 60.9597 140.56 37.2604C142.853 40.7787 151.488 53.4834 158.561 55.8289C162.317 58.7608 166.512 61.4484 171.098 63.6962C173.488 74.4463 173.098 97.3637 161.927 105.182Z" fill="#F9C09D"/>
<path d="M162.073 105.573C172.952 101.175 176.318 92.233 177.488 89.1546C179.098 85.0011 180.025 69.853 177.488 66.2371C177.635 66.0905 175.196 65.2109 171.537 63.4029C173.683 73.1269 174.025 97.266 162.073 105.573Z" fill="#F9AE82"/>
<path d="M161.829 105.231C161.634 105.329 161.586 105.573 161.683 105.768C161.781 105.915 161.927 106.013 162.073 106.013C162.122 106.013 162.171 106.013 162.22 105.964C173.147 101.517 176.562 92.7705 177.83 89.4477L177.879 89.3011C179.489 85.1476 180.513 70.0974 177.879 66.0905C177.781 65.7973 177.537 65.6996 175.927 64.9667C174.854 64.478 173.44 63.8428 171.683 63.0121C171.537 62.9632 171.342 62.9632 171.244 63.0609C171.098 63.1586 171.049 63.3053 171.098 63.5007C173.488 74.1532 173.196 97.3149 161.829 105.231ZM172.122 64.1848C173.537 64.8689 174.708 65.4064 175.635 65.7974C176.269 66.0905 176.903 66.3837 177.147 66.4814V66.5303C179.586 69.9997 178.61 85.1965 177.098 89.0568L177.049 89.2034C175.927 92.0864 173.098 99.3672 164.756 103.912C173.781 94.5785 174.171 74.4952 172.122 64.1848Z" fill="#F9AE82"/>
<path d="M115.535 67.3609C115.535 67.3609 115.584 67.703 115.73 68.2405C118.804 67.361 135.536 61.4972 140.365 36.1854C140.365 36.1854 150.756 52.897 158.805 55.4869C151.39 49.6231 143.878 41.0231 140.56 28.5626C140.56 28.5626 140.56 60.6665 115.535 67.3609Z" fill="#F9AE82"/>
<path d="M140.951 28.4161C140.902 28.2206 140.707 28.074 140.512 28.1229C140.317 28.1717 140.121 28.3184 140.121 28.5627C140.121 28.8559 139.829 60.4223 115.389 66.9701C115.194 67.019 115.047 67.2633 115.096 67.4588C115.096 67.4588 115.145 67.8008 115.291 68.3383C115.34 68.4361 115.389 68.5338 115.486 68.5827C115.535 68.6315 115.633 68.6316 115.682 68.6316C115.73 68.6316 115.779 68.6316 115.779 68.6316C119.048 67.7031 135.39 61.8882 140.512 37.3094C142.804 40.8277 151.488 53.6301 158.61 55.8779C158.805 55.9268 159 55.8291 159.098 55.6825C159.195 55.487 159.146 55.2915 159 55.1449C149.829 47.8153 143.78 38.8731 140.951 28.4161ZM116.023 67.6543C116.316 67.5566 116.608 67.4588 116.901 67.361C116.608 67.5076 116.267 67.6054 116.023 67.6543ZM140.756 35.9412C140.658 35.7946 140.56 35.7458 140.414 35.7458C140.365 35.7458 140.365 35.7458 140.317 35.7458C140.609 33.8889 140.804 32.2276 140.902 31.0059C143.634 39.4595 148.561 46.9357 155.683 53.2881C148.512 48.3528 140.853 36.0878 140.756 35.9412Z" fill="#F9AE82"/>
<path d="M147.878 57.7836C146.024 58.4677 144.414 58.3699 142.902 57.5392C138.902 55.2915 137.438 48.2551 137.438 48.2062C137.341 47.7664 136.902 47.4732 136.463 47.522C136.024 47.6198 135.731 48.0595 135.78 48.4993C135.829 48.8414 137.39 56.3177 142.073 58.9564C143.146 59.5428 144.268 59.8848 145.487 59.8848C146.414 59.8848 147.439 59.6894 148.463 59.3473C148.902 59.2007 149.146 58.712 148.951 58.2722C148.805 57.8324 148.317 57.637 147.878 57.7836Z" fill="#F9AE82"/>
<path d="M157.146 56.7573C154.171 57.5391 151.488 57.197 149.097 55.7311C142.512 51.6265 140.317 40.1922 140.268 40.0945C140.17 39.6547 139.731 39.3615 139.292 39.4104C138.853 39.5081 138.56 39.9479 138.609 40.3877C138.707 40.8763 140.999 52.6527 148.17 57.1482C149.975 58.2721 151.975 58.8585 154.073 58.8585C155.195 58.8585 156.366 58.7119 157.537 58.3698C157.976 58.2721 158.268 57.7834 158.122 57.3436C158.073 56.9038 157.585 56.6107 157.146 56.7573Z" fill="#F9AE82"/>
<path d="M140.414 26.999C139.926 26.999 139.585 27.39 139.585 27.8298C139.585 28.6604 139.585 48.4994 149.097 55.4382C151.244 57.0018 153.683 57.7836 156.366 57.7836C158.122 57.7836 159.976 57.4415 161.976 56.8063C162.415 56.6597 162.659 56.1711 162.512 55.7313C162.366 55.2915 161.878 55.0473 161.439 55.1938C156.951 56.6598 153.146 56.3177 150.073 54.0699C141.292 47.6687 141.292 28.0252 141.292 27.8298C141.243 27.39 140.853 26.999 140.414 26.999Z" fill="#4461AB"/>
<path d="M151.341 55.2915C148.805 57.0017 146.609 57.3926 144.804 56.5131C139.146 53.7278 138.17 39.6059 138.17 39.4593C138.121 39.0195 137.78 38.6287 137.292 38.6775C136.853 38.7264 136.463 39.1173 136.512 39.5571C136.56 40.1924 137.536 54.7539 144.073 57.979C144.951 58.4188 145.878 58.6143 146.805 58.6143C148.512 58.6143 150.317 57.979 152.268 56.6597C152.658 56.4154 152.756 55.8778 152.512 55.4869C152.219 55.1448 151.683 55.0471 151.341 55.2915Z" fill="#4461AB"/>
<path d="M138.658 84.0238C138.121 85.05 138.463 85.7341 138.707 86.0761C139.341 86.9068 140.804 87.1511 142.219 87.1511C143.536 87.1511 144.804 86.9556 145.439 86.8579C145.878 86.7602 146.219 86.3204 146.122 85.8806C146.024 85.4408 145.585 85.0988 145.146 85.1965C142.609 85.6363 140.317 85.4897 140.073 85.0988C140.073 85.0988 140.073 85.0011 140.17 84.8056C140.414 84.3658 140.756 83.8284 141.146 83.2909C143.195 80.359 146.268 75.9611 139.487 68.778C139.195 68.436 138.658 68.4361 138.316 68.7292C137.975 69.0713 137.975 69.5599 138.268 69.9019C144.122 76.1077 141.731 79.5283 139.78 82.3136C139.341 82.9 138.902 83.4863 138.658 84.0238Z" fill="#62392C"/>
<path d="M128.609 62.7678C128.17 62.9633 127.975 63.4518 128.17 63.8916C128.316 64.2336 128.609 64.4291 128.95 64.4291C129.048 64.4291 129.194 64.4291 129.292 64.3802C130.267 63.9893 132.072 63.2564 132.902 63.3542C133.389 63.3053 133.731 63.0121 133.78 62.5235C133.78 62.0837 133.438 61.6928 132.95 61.6439C131.487 61.5462 128.902 62.6701 128.609 62.7678Z" fill="#62392C"/>
<path d="M152.219 59.5916C151.78 59.7382 151.536 60.1779 151.634 60.6177C151.731 60.9598 152.073 61.2041 152.414 61.2041C152.512 61.2041 152.561 61.2041 152.658 61.1553C153.634 60.8621 155.439 60.4711 156.219 60.6177C156.658 60.7154 157.098 60.4222 157.195 59.9824C157.293 59.5427 157 59.1029 156.561 59.0052C155.146 58.712 152.512 59.4939 152.219 59.5916Z" fill="#62392C"/>
<path d="M156.902 66.6281C153.488 67.361 151.585 71.9054 152.61 76.743C153.634 81.5806 157.244 84.9522 160.659 84.2193C164.073 83.4863 165.976 78.9419 164.951 74.1044C163.927 69.2668 160.268 65.8951 156.902 66.6281Z" fill="white"/>
<path d="M156.805 66.2371C155 66.628 153.536 67.9473 152.707 69.9996C151.878 72.0031 151.683 74.4463 152.219 76.8407C153.195 81.4339 156.415 84.7568 159.732 84.7568C160.073 84.7568 160.415 84.7078 160.756 84.659C162.561 84.2681 164.025 82.9488 164.854 80.8964C165.683 78.893 165.878 76.4498 165.342 74.0554C164.805 71.6122 163.683 69.4622 162.073 67.9963C160.464 66.4815 158.561 65.8462 156.805 66.2371ZM164.073 80.5544C163.342 82.3135 162.073 83.4863 160.561 83.8283C157.39 84.5124 154.024 81.2874 153 76.6942C152.512 74.4464 152.658 72.1498 153.439 70.3418C154.171 68.5827 155.439 67.4098 156.951 67.0678C157.244 67.0189 157.537 66.9701 157.829 66.9701C159.098 66.9701 160.366 67.5565 161.488 68.5826C162.951 69.9508 164.025 71.9054 164.512 74.202C165 76.4498 164.854 78.6976 164.073 80.5544Z" fill="white"/>
<path d="M129.048 69.0713C125.633 69.8043 123.731 74.3487 124.755 79.1862C125.779 84.0238 129.389 87.3955 132.804 86.6625C136.219 85.9296 138.121 81.3852 137.097 76.5476C136.073 71.71 132.463 68.3384 129.048 69.0713Z" fill="white"/>
<path d="M128.95 68.6803C127.145 69.0712 125.682 70.3906 124.853 72.4429C124.023 74.4463 123.828 76.8895 124.365 79.2839C124.901 81.7271 126.023 83.8772 127.633 85.3431C128.95 86.5648 130.414 87.2 131.877 87.2C132.219 87.2 132.56 87.1511 132.902 87.1022C134.707 86.7113 136.17 85.392 136.999 83.3397C137.829 81.3362 138.024 78.893 137.487 76.4986C136.951 74.0554 135.829 71.9054 134.219 70.4395C132.609 68.8758 130.755 68.2894 128.95 68.6803ZM136.219 82.9976C135.487 84.7567 134.219 85.9295 132.707 86.2715C131.194 86.5647 129.584 86.0272 128.17 84.7079C126.706 83.3397 125.633 81.3851 125.145 79.0885C124.658 76.8407 124.804 74.5441 125.584 72.7361C126.316 70.977 127.584 69.8042 129.097 69.4622C129.389 69.4133 129.682 69.3645 129.975 69.3645C131.243 69.3645 132.511 69.9508 133.633 70.9769C135.097 72.3451 136.17 74.2997 136.658 76.5963C137.146 78.893 136.999 81.1408 136.219 82.9976Z" fill="white"/>
<path d="M130.121 70.1951C127.975 71.0258 127.145 74.0554 128.219 76.8895C129.341 79.7725 131.975 81.434 134.121 80.6033C136.268 79.7726 137.097 76.7429 136.024 73.9087C134.951 71.0257 132.316 69.3644 130.121 70.1951Z" fill="#191446"/>
<path d="M133.731 70.3419C132.511 69.5601 131.194 69.4135 130.024 69.8533C128.853 70.293 127.975 71.3191 127.584 72.7362C127.194 74.1044 127.292 75.6681 127.877 77.134C128.463 78.5999 129.438 79.8216 130.609 80.6034C131.389 81.0921 132.219 81.3364 132.999 81.3364C133.438 81.3364 133.877 81.2387 134.316 81.0921C136.658 80.1637 137.634 76.9385 136.463 73.8112C135.877 72.2964 134.902 71.0749 133.731 70.3419ZM134.024 80.2613C133.097 80.6033 132.072 80.4568 131.048 79.8216C130.024 79.1863 129.145 78.1113 128.658 76.792C128.17 75.4726 128.072 74.1044 128.414 72.9316C128.755 71.8077 129.389 70.9771 130.316 70.635C130.658 70.4884 130.999 70.4396 131.341 70.4396C131.975 70.4396 132.658 70.6351 133.292 71.0749C134.316 71.7101 135.194 72.7851 135.682 74.1044C136.658 76.7431 135.926 79.5283 134.024 80.2613Z" fill="#191446"/>
<path d="M157.878 66.9701C155.732 67.8008 154.902 70.8304 155.976 73.6645C157.098 76.5475 159.732 78.2089 161.878 77.3782C164.025 76.5476 164.854 73.518 163.781 70.6838C162.707 67.8497 160.073 66.1394 157.878 66.9701Z" fill="#191446"/>
<path d="M157.732 66.5792C156.561 67.019 155.732 68.0452 155.293 69.4622C154.902 70.8305 155 72.3941 155.585 73.86C156.171 75.326 157.146 76.5475 158.317 77.3294C159.098 77.818 159.927 78.0623 160.707 78.0623C161.146 78.0623 161.585 77.9646 162.025 77.818C164.366 76.8896 165.342 73.6646 164.171 70.5372C163 67.4099 160.122 65.6507 157.732 66.5792ZM161.781 76.9873C160.854 77.3294 159.829 77.1828 158.805 76.5476C157.78 75.9124 156.902 74.8374 156.415 73.518C155.927 72.1987 155.829 70.8304 156.171 69.6577C156.512 68.5338 157.146 67.7031 158.073 67.3611C158.415 67.2145 158.756 67.1656 159.098 67.1656C160.805 67.1656 162.61 68.6316 163.439 70.8305C164.415 73.4692 163.683 76.2544 161.781 76.9873Z" fill="#191446"/>
<path d="M146.122 96.3864C145.683 96.2887 145.244 96.5819 145.146 97.0216C145.048 97.4614 145.341 97.9012 145.78 97.9989C146.707 98.1944 148.17 98.7319 148.561 99.2695C148.707 99.5138 149 99.6115 149.244 99.6115C149.39 99.6115 149.585 99.5626 149.731 99.4649C150.122 99.2205 150.219 98.6831 149.927 98.2922C149.048 97.0706 146.609 96.4841 146.122 96.3864Z" fill="#91241E"/>
<path d="M126.316 77.2805C126.316 78.3067 127.145 79.1374 128.17 79.1374C129.194 79.1374 130.024 78.3067 130.024 77.2805C130.024 76.2544 129.194 75.4236 128.17 75.4236C127.145 75.4236 126.316 76.2544 126.316 77.2805Z" fill="white"/>
<path d="M125.926 77.2805C125.926 78.551 126.95 79.5771 128.219 79.5771C129.487 79.5771 130.511 78.551 130.511 77.2805C130.511 76.01 129.487 74.9839 128.219 74.9839C126.95 75.0328 125.926 76.01 125.926 77.2805ZM129.633 77.2805C129.633 78.0623 128.999 78.6975 128.219 78.6975C127.438 78.6975 126.804 78.0623 126.804 77.2805C126.804 76.4987 127.438 75.8634 128.219 75.8634C128.999 75.8634 129.633 76.4987 129.633 77.2805Z" fill="white"/>
<path d="M154.415 74.5441C154.415 75.5702 155.244 76.4009 156.268 76.4009C157.293 76.4009 158.122 75.5702 158.122 74.5441C158.122 73.5179 157.293 72.6872 156.268 72.6872C155.244 72.6872 154.415 73.5179 154.415 74.5441Z" fill="white"/>
<path d="M154.024 74.544C154.024 75.8145 155.049 76.8406 156.317 76.8406C157.585 76.8406 158.61 75.8145 158.61 74.544C158.61 73.2736 157.585 72.2474 156.317 72.2474C155.049 72.2474 154.024 73.2736 154.024 74.544ZM157.732 74.544C157.732 75.3259 157.098 76.01 156.268 76.01C155.488 76.01 154.805 75.3747 154.805 74.544C154.805 73.7622 155.439 73.0781 156.268 73.0781C157.098 73.0781 157.732 73.7133 157.732 74.544Z" fill="white"/>
<path d="M102.803 66.1882C106.706 65.8951 116.316 66.0417 115.73 61.0575C115.145 56.0733 112.706 55.7801 112.706 55.7801C112.706 55.7801 112.755 55.5846 112.755 55.2915C109.73 55.2426 105.437 55.6823 99.047 57.0994C87.0954 59.787 84.0709 65.9439 84.0709 65.9439C84.0709 65.9439 86.266 60.1779 99.925 56.3664C106.072 54.6562 110.072 54.0209 112.706 53.8743C112.364 51.5288 110.462 47.9129 101.925 49.0368C89.5344 50.6493 84.4123 55.0471 81.339 58.9563C78.217 62.8654 73.9242 66.3837 72.4119 78.6487C70.9485 90.9137 66.8508 100.247 66.8508 100.247L85.0953 111.339C85.0953 111.339 104.267 98.341 96.9981 82.8999C96.9981 82.8999 105.291 80.2123 109.145 80.7498C112.999 81.2384 116.462 76.1565 110.901 73.7133C105.34 71.2701 91.2906 72.8827 91.2906 72.8827C91.2906 72.8827 91.6808 72.5406 92.315 72.052C88.8027 72.7361 84.7538 73.9087 84.7538 73.9087C88.8515 72.1985 91.7296 71.3678 93.6809 70.9769C96.2664 69.12 100.266 66.3837 102.803 66.1882Z" fill="#F9C09D"/>
<path d="M93.9736 71.4168C97.8762 68.4849 100.998 66.7746 102.852 66.628C103.291 66.5792 103.779 66.5792 104.315 66.5303C107.925 66.3349 113.389 66.0905 115.438 63.6472C116.072 62.9143 116.316 61.9858 116.218 60.9597C115.73 56.8551 114.023 55.7313 113.242 55.4381C113.242 55.3892 113.242 55.3404 113.242 55.2915C113.242 55.1938 113.194 55.0471 113.145 54.9983C113.047 54.9005 112.95 54.8516 112.852 54.8516C110.706 54.8028 108.169 55.0471 105.242 55.4869C108.267 54.8028 110.803 54.4119 112.803 54.3142C112.901 54.3142 113.047 54.2653 113.096 54.1676C113.194 54.0699 113.194 53.9721 113.194 53.8256C112.852 51.3823 110.901 47.4731 101.925 48.6459C89.1929 50.3073 84.0708 54.9005 81.0463 58.7608C80.6561 59.2983 80.2171 59.787 79.778 60.3245C76.8999 63.6962 73.3388 67.8985 72.0704 78.6487C70.607 90.6694 66.6069 100.051 66.5581 100.1C66.4605 100.296 66.5581 100.54 66.7044 100.638L84.9489 111.73C84.9977 111.779 85.0953 111.779 85.1441 111.779C85.2416 111.779 85.2904 111.73 85.388 111.73C85.5831 111.583 104.413 98.5854 97.6322 83.2419C99.3884 82.7044 105.925 80.7987 109.145 81.2384C111.34 81.5316 113.584 80.1146 114.121 78.1112C114.657 76.2054 113.535 74.4464 111.096 73.3713C106.511 71.3679 96.3639 72.052 92.6565 72.394C92.754 72.2474 92.8028 72.1008 92.7053 71.9542C92.6565 71.8565 92.6077 71.8076 92.5101 71.7588C92.9492 71.6611 93.3882 71.5633 93.7785 71.4655C93.8272 71.4655 93.876 71.4656 93.9736 71.4168ZM84.6074 73.6157C84.4123 73.7134 84.3147 73.9088 84.3635 74.1531C84.4611 74.3486 84.6562 74.4951 84.8513 74.3974C84.9001 74.3974 87.8271 73.5179 90.9003 72.8827C90.8515 72.9804 90.9003 73.0781 90.9003 73.1758C90.9979 73.3224 91.1442 73.4201 91.3393 73.4201C91.4857 73.4201 105.34 71.8565 110.706 74.202C112.755 75.0816 113.682 76.4498 113.242 77.9158C112.852 79.3328 111.145 80.701 109.145 80.4078C105.242 79.9191 97.1444 82.4601 96.8029 82.6067C96.7054 82.6555 96.6078 82.7533 96.559 82.851C96.5103 82.9487 96.5103 83.0953 96.559 83.193C103.193 97.2171 87.0953 109.433 85.0465 110.948L67.3386 100.198C68.0703 98.3899 71.4363 89.692 72.7534 78.8441C74.0217 68.3383 77.3389 64.4291 80.2658 60.9597C80.7049 60.4222 81.1439 59.9336 81.5829 59.3961C84.5099 55.6824 89.4856 51.2357 101.925 49.6232C109.633 48.597 111.681 51.5289 112.169 53.6789C109.096 53.8744 104.95 54.7051 99.7787 56.1711C86.0709 59.9825 83.7294 65.7484 83.6806 65.9928C83.583 66.1882 83.6806 66.4326 83.9245 66.5303C84.1196 66.628 84.3635 66.5302 84.4611 66.3348C84.5099 66.2859 87.5831 60.3245 99.1933 57.6858C104.462 56.4642 108.901 55.8778 112.316 55.8778C112.316 55.9756 112.316 56.0733 112.413 56.1711C112.462 56.2688 112.56 56.3176 112.706 56.3176C112.706 56.3176 114.804 56.6596 115.34 61.204C115.438 61.9858 115.243 62.67 114.755 63.2564C112.95 65.4065 107.486 65.6508 104.267 65.7973C103.73 65.8462 103.242 65.8462 102.803 65.895C100.266 66.0905 96.4127 68.6315 93.5833 70.7815C91.0467 71.1724 88.071 72.1497 84.6074 73.6157Z" fill="#F9C09D"/>
<path d="M93.6809 71.0748C91.7296 71.4657 88.8027 72.2964 84.7538 74.0066C84.7538 74.0066 88.8027 72.8339 92.315 72.1498C92.7053 71.8566 93.1443 71.4657 93.6809 71.0748Z" fill="#DA6249"/>
<path d="M93.6321 70.6349C91.1442 71.1235 88.1197 72.1008 84.6074 73.5668C84.4123 73.6645 84.3147 73.86 84.3635 74.1043C84.4123 74.2998 84.6074 74.3974 84.7538 74.3974C84.8025 74.3974 84.8513 74.3974 84.8513 74.3974C84.9001 74.3974 88.9002 73.2248 92.3638 72.5407C92.4126 72.5407 92.5101 72.4917 92.5589 72.4428C92.9491 72.1497 93.3882 71.7588 93.9248 71.3679C94.0712 71.2701 94.1199 71.0258 94.0711 70.8792C94.0224 70.7326 93.7784 70.6349 93.6321 70.6349Z" fill="#DA6249"/>
<path d="M84.0709 65.9928C84.0709 65.9928 87.0954 59.836 99.047 57.1484C105.437 55.6825 109.73 55.2915 112.755 55.3403C112.755 54.9983 112.803 54.5097 112.706 53.9722C110.023 54.1188 106.072 54.754 99.925 56.4642C86.2661 60.2268 84.0709 65.9928 84.0709 65.9928Z" fill="#DA6249"/>
<path d="M112.706 53.5323C109.633 53.6789 105.291 54.5097 99.8274 56.0245C86.1197 59.8359 83.7782 65.6018 83.7294 65.8462C83.6318 66.0416 83.7294 66.286 83.9733 66.3837C84.0221 66.4326 84.0708 66.4326 84.1196 66.4326C84.266 66.4326 84.4123 66.3349 84.5099 66.1883C84.5587 66.1394 87.6319 60.1779 99.2421 57.5392C104.754 56.2687 109.34 55.6824 112.852 55.7312C113.096 55.7312 113.243 55.5358 113.291 55.3403C113.34 54.8517 113.291 54.363 113.243 53.8744C113.096 53.6789 112.901 53.5323 112.706 53.5323ZM112.364 54.9006C110.316 54.9006 107.925 55.0961 105.193 55.5358C108.023 54.9006 110.413 54.5097 112.364 54.4119C112.364 54.5585 112.364 54.754 112.364 54.9006Z" fill="#DA6249"/>
<path d="M65.7287 169.097C53.4845 191.672 39.1426 244.788 55.6309 241.416C75.1925 237.409 90.1198 206.82 95.1443 197.438C98.5103 191.135 100.754 174.227 99.6323 161.327C94.2662 167.875 76.2657 197.927 74.8998 207.358C73.8754 214.589 65.7775 187.519 65.7287 169.097Z" fill="#2893D0"/>
<path d="M99.7786 160.887C99.6323 160.839 99.4372 160.887 99.3396 161.034C93.6809 167.924 75.9242 197.731 74.5583 207.26C74.4608 207.846 74.3632 208.042 74.3632 208.091C72.4607 207.358 66.2654 185.32 66.2166 169.097C66.2166 168.901 66.0702 168.755 65.9239 168.706C65.7288 168.657 65.5336 168.755 65.4361 168.901C54.6065 188.838 42.9475 230.226 50.0697 239.852C51.1429 241.27 52.5576 242.002 54.3138 242.002C54.8016 242.002 55.2894 241.954 55.826 241.856C74.2656 238.093 88.4612 211.218 94.5102 199.735C94.9004 198.953 95.2907 198.269 95.6322 197.634C99.0957 191.135 101.291 173.837 100.169 161.278C100.023 161.083 99.925 160.936 99.7786 160.887ZM94.8029 197.243C94.4614 197.878 94.1199 198.562 93.6809 199.344C87.6807 210.729 73.6315 237.311 55.5333 241.025C53.3869 241.465 51.7771 240.927 50.6551 239.364C44.1183 230.519 54.8504 190.988 65.3385 170.758C65.7775 184.098 71.046 208.726 74.2656 208.97C75.0949 209.019 75.29 207.797 75.3388 207.407C76.6072 198.513 93.1931 170.465 99.2908 162.402C100.218 174.716 98.12 191.037 94.8029 197.243Z" fill="#2893D0"/>
<path d="M65.7288 169.097C65.7775 187.47 73.8754 214.541 74.9486 207.309C76.3145 197.878 94.3151 167.826 99.6811 161.278C99.0957 154.926 97.7298 149.502 95.1931 146.863C95.1931 146.863 84.3635 150.479 72.1192 160.203C70.2167 161.767 68.0215 164.943 65.7288 169.097Z" fill="#4461AB"/>
<path d="M95.0468 146.521C94.9492 146.57 84.022 150.284 71.8753 159.959C69.9728 161.474 67.7776 164.503 65.3873 168.95C65.3385 168.999 65.3385 169.097 65.3385 169.146C65.3873 181.948 70.9484 208.726 74.3144 208.97H74.3632C75.1437 208.97 75.3388 207.797 75.3876 207.407C76.7047 198.22 94.559 168.266 100.023 161.572C100.071 161.474 100.12 161.376 100.12 161.278C99.6811 156.343 98.5103 149.746 95.5346 146.619C95.3883 146.521 95.1931 146.473 95.0468 146.521ZM99.1933 161.181C93.437 168.315 75.8754 197.78 74.5095 207.26C74.412 207.846 74.3144 208.042 74.3144 208.091C72.4119 207.358 66.2166 185.417 66.1678 169.194C68.4606 164.943 70.607 161.963 72.4119 160.545C83.4366 151.799 93.3882 147.987 95.0956 147.352C97.1444 149.795 98.6079 154.535 99.1933 161.181Z" fill="#4461AB"/>
<path d="M217.295 117.691C207.928 122.04 198.367 149.795 209.441 173.983C220.514 198.171 255.54 241.123 265.784 229.542C276.028 218.01 234.954 122.382 234.954 122.382C234.954 122.382 226.661 113.342 217.295 117.691Z" fill="#2893D0"/>
<path d="M235.246 122.089C235.149 121.992 226.661 112.903 217.1 117.301C207.733 121.649 197.635 149.258 209.05 174.13C218.563 194.848 245.735 229.64 259.979 231.79C260.418 231.839 260.906 231.888 261.296 231.888C263.247 231.888 264.808 231.204 266.028 229.835C276.321 218.206 236.954 126.145 235.246 122.236C235.295 122.138 235.295 122.138 235.246 122.089ZM265.491 229.249C264.174 230.715 262.418 231.252 260.174 230.959C246.369 228.907 219.051 193.871 209.88 173.788C199.099 150.186 208.27 122.334 217.49 118.033C219.246 117.252 220.904 116.91 222.563 116.91C229.002 116.91 234.076 121.992 234.612 122.578C235.881 125.656 275.296 218.157 265.491 229.249Z" fill="#2893D0"/>
<path d="M223.783 131.569C220.905 137.481 224.953 155.561 225.002 162.696C225.002 167.924 249.784 211.658 253.491 205.012C257.247 198.318 231.88 124.532 231.88 124.532C231.88 124.532 226.661 125.656 223.783 131.569Z" fill="#4461AB"/>
<path d="M231.783 124.141C231.539 124.19 226.319 125.363 223.392 131.422C221.392 135.478 222.563 144.811 223.636 153.02C224.124 156.832 224.563 160.448 224.563 162.744C224.563 167.777 245.149 204.328 251.832 206.087C252.027 206.136 252.223 206.185 252.369 206.185C253.003 206.185 253.491 205.892 253.832 205.256C257.637 198.513 233.295 127.464 232.271 124.435C232.222 124.19 232.027 124.093 231.783 124.141ZM253.149 204.817C252.906 205.257 252.564 205.354 252.076 205.256C245.832 203.644 225.441 167.435 225.441 162.744C225.441 160.35 224.953 156.734 224.514 152.923C223.539 145.251 222.319 135.673 224.222 131.813C226.563 127.024 230.466 125.461 231.685 125.119C240.417 150.626 256.028 199.686 253.149 204.817Z" fill="#4461AB"/>
<path d="M211.294 122.871C211.392 122.92 221.88 129.272 225.734 139.925L228.905 138.801C224.661 127.024 213.49 120.281 213.051 119.988L211.294 122.871Z" fill="#504566"/>
<path d="M284.321 233.158C304.858 227.001 308.468 207.895 305.932 192.014C303.395 176.133 287.541 98.4388 269.345 108.993C251.149 119.499 232.417 125.265 232.417 125.265C225.197 128.49 223.685 138.556 225.88 147.45C228.075 156.294 241.051 189.864 245.735 197.096C250.418 204.328 248.613 224.509 248.613 224.509C248.613 224.509 263.784 239.266 284.321 233.158Z" fill="#2893D0"/>
<path d="M248.369 224.802C248.515 224.949 259.052 235.064 274.37 235.064C277.54 235.064 280.906 234.624 284.467 233.549C309.737 226.024 307.639 199.784 306.371 191.965C303.883 176.182 291.346 115.688 275.931 108.358C273.638 107.283 271.394 107.381 269.15 108.651C251.198 119.011 232.515 124.826 232.319 124.923H232.271C224.612 128.393 223.392 139.094 225.49 147.596C227.685 156.343 240.71 190.109 245.393 197.389C249.93 204.426 248.222 224.362 248.222 224.558C248.222 224.558 248.271 224.704 248.369 224.802ZM246.125 196.852C241.442 189.62 228.466 156.05 226.319 147.352C224.27 139.192 225.392 128.93 232.612 125.705C233.393 125.461 251.881 119.646 269.589 109.384C271.54 108.261 273.54 108.163 275.589 109.14C281.98 112.17 288.809 125.656 295.395 148.036C301.005 167.044 304.614 186.297 305.541 192.112C306.761 199.784 308.81 225.437 284.224 232.767C265.199 238.435 250.71 225.78 249.1 224.362C249.247 222.066 250.613 203.791 246.125 196.852Z" fill="#2893D0"/>
<path d="M140.219 221.137C142.374 221.137 144.122 219.387 144.122 217.228C144.122 215.069 142.374 213.319 140.219 213.319C138.064 213.319 136.316 215.069 136.316 217.228C136.316 219.387 138.064 221.137 140.219 221.137Z" fill="#E46790"/>
<path d="M135.877 217.228C135.877 219.623 137.829 221.577 140.219 221.577C142.609 221.577 144.561 219.623 144.561 217.228C144.561 214.834 142.609 212.879 140.219 212.879C137.829 212.879 135.877 214.834 135.877 217.228ZM143.731 217.228C143.731 219.183 142.17 220.746 140.219 220.746C138.268 220.746 136.707 219.183 136.707 217.228C136.707 215.274 138.268 213.71 140.219 213.71C142.17 213.71 143.731 215.323 143.731 217.228Z" fill="#E46790"/>
<path d="M145.341 184.44C147.496 184.44 149.244 182.69 149.244 180.531C149.244 178.372 147.496 176.622 145.341 176.622C143.186 176.622 141.439 178.372 141.439 180.531C141.439 182.69 143.186 184.44 145.341 184.44Z" fill="#E46790"/>
<path d="M141 180.531C141 182.925 142.951 184.88 145.341 184.88C147.731 184.88 149.683 182.925 149.683 180.531C149.683 178.137 147.731 176.182 145.341 176.182C142.951 176.182 141 178.137 141 180.531ZM148.805 180.531C148.805 182.486 147.244 184.049 145.292 184.049C143.341 184.049 141.78 182.486 141.78 180.531C141.78 178.577 143.341 177.013 145.292 177.013C147.244 177.013 148.805 178.577 148.805 180.531Z" fill="#E46790"/>
<path d="M145 143.932C144.902 146.082 146.561 147.938 148.707 148.085C150.853 148.232 152.707 146.521 152.853 144.371C152.951 142.221 151.292 140.365 149.146 140.218C146.951 140.12 145.097 141.782 145 143.932Z" fill="#E46790"/>
<path d="M144.561 143.932C144.414 146.326 146.268 148.378 148.658 148.525C148.756 148.525 148.805 148.525 148.902 148.525C151.195 148.525 153.097 146.717 153.244 144.42C153.39 142.026 151.536 139.974 149.146 139.827C146.707 139.729 144.707 141.537 144.561 143.932ZM151.488 141.83C152.122 142.514 152.414 143.443 152.366 144.371C152.317 145.3 151.927 146.179 151.195 146.766C150.512 147.401 149.585 147.743 148.658 147.645C147.731 147.596 146.853 147.205 146.268 146.472C145.683 145.739 145.341 144.86 145.39 143.932C145.439 143.003 145.829 142.124 146.561 141.537C147.195 140.951 148.024 140.658 148.902 140.658C148.951 140.658 149.049 140.658 149.097 140.658C150.024 140.706 150.902 141.146 151.488 141.83Z" fill="#E46790"/>
<path d="M70.9485 99.2695C65.4849 97.1195 64.3629 99.2695 63.2897 102.543C62.2165 105.768 58.8018 111.583 55.5334 115.004L97.2908 139.192C97.2908 139.192 105.437 128.93 104.901 125.656C104.364 122.334 76.4608 101.42 70.9485 99.2695Z" fill="#504566"/>
<path d="M71.1436 98.8786C68.6557 97.9013 66.8996 97.7058 65.6312 98.341C64.1678 99.0251 63.4848 100.638 62.8994 102.397C61.875 105.524 58.5578 111.192 55.2406 114.711C55.1431 114.808 55.0943 114.955 55.1431 115.053C55.1431 115.199 55.2407 115.297 55.3382 115.346L97.0957 139.534C97.1444 139.583 97.242 139.583 97.2908 139.583C97.4371 139.583 97.5347 139.534 97.6323 139.436C98.4615 138.361 105.876 128.93 105.291 125.559C104.706 121.845 76.2657 100.931 71.1436 98.8786ZM97.1932 138.605L56.2163 114.857C59.4359 111.29 62.6555 105.768 63.68 102.641C64.2166 101.029 64.7532 99.6115 65.9239 99.074C66.9971 98.5854 68.5582 98.7809 70.8021 99.6605C76.1194 101.762 103.974 122.676 104.462 125.656C104.901 128.1 99.5835 135.576 97.1932 138.605Z" fill="#504566"/>
<path d="M69.2411 116.128C60.2164 112.414 53.826 109.775 48.7038 116.128C26.9471 143.247 -3.15147 194.164 0.799873 215.469C4.75122 236.774 37.1913 244.348 53.7772 241.807C70.3631 239.266 73.9729 219.085 75.0949 205.745C76.2657 192.405 102.413 149.111 101.486 142.612C100.51 136.064 78.2658 119.841 69.2411 116.128Z" fill="#2893D0"/>
<path d="M69.3874 115.737L69.2899 115.688C60.2164 111.974 53.6796 109.287 48.3624 115.883C25.7275 144.078 -3.59053 194.409 0.36082 215.567C3.92191 234.82 30.0691 242.687 47.2404 242.687C49.6307 242.687 51.8747 242.54 53.826 242.247C66.4605 240.341 73.5339 228.369 75.4852 205.794C76.0706 198.758 83.8757 182.974 90.754 169.097C96.9493 156.539 102.315 145.691 101.876 142.563C100.901 135.722 78.4609 119.499 69.3874 115.737ZM90.0222 168.706C83.144 182.681 75.2901 198.513 74.6559 205.696C72.7534 227.881 65.8751 239.559 53.6796 241.416C37.9718 243.811 5.19025 236.823 1.19012 215.42C-1.05385 203.4 7.72692 183.121 15.4345 168.217C24.5079 150.773 37.3376 130.934 48.9965 116.421C51.1429 113.733 53.4845 112.707 56.2163 112.707C59.7286 112.707 63.8263 114.417 68.8996 116.47L68.9972 116.519C78.656 120.477 100.071 136.553 100.949 142.612C101.437 145.544 95.8761 156.783 90.0222 168.706Z" fill="#2893D0"/>
<path d="M245.052 127.367C253.54 124.923 276.223 114.711 275.199 109.384C274.126 103.716 273.687 102.983 272.516 100.198C271.296 97.3149 267.394 90.816 268.125 94.0899C269.589 100.442 250.271 108.31 241.783 111.388C233.295 114.515 227.441 113.44 225.88 110.704C225.88 110.704 223.295 109.629 226.905 118.033C230.563 126.438 230.417 128.588 230.417 128.588C230.417 128.588 236.515 129.81 245.052 127.367Z" fill="#504566"/>
<path d="M230.368 129.028C230.514 129.077 232.027 129.37 234.563 129.37C237.149 129.37 240.856 129.077 245.149 127.806C249.296 126.634 257.052 123.506 263.881 119.841C269.54 116.812 276.223 112.512 275.638 109.287C274.711 104.205 274.223 103.081 273.296 100.882L272.906 100.002C272.857 99.9047 269.54 92.7705 268.125 92.7705C268.077 92.7705 268.028 92.7705 268.028 92.7705C267.443 92.966 267.638 93.7477 267.735 94.1875C269.199 100.442 248.125 108.651 241.637 110.997C233.49 113.978 227.734 113 226.27 110.508C226.222 110.411 226.173 110.362 226.075 110.313C225.831 110.215 225.344 110.166 224.953 110.508C224.417 111.046 224.027 112.414 226.563 118.18C230.075 126.243 230.027 128.539 230.027 128.539C230.027 128.784 230.173 128.979 230.368 129.028ZM225.539 111.144C225.587 111.095 225.588 111.095 225.636 111.095C227.344 113.733 233.1 115.004 241.93 111.779C252.466 107.918 269.833 100.54 268.565 94.0898C269.491 95.3114 271.296 98.341 272.126 100.296L272.516 101.175C273.443 103.325 273.882 104.4 274.809 109.433C275.199 111.486 271.052 115.004 263.491 119.06C256.71 122.676 249.003 125.754 244.905 126.927C237.685 128.979 232.173 128.393 230.807 128.197C230.71 127.269 230.173 124.435 227.295 117.838C224.905 112.267 225.392 111.29 225.539 111.144Z" fill="#504566"/>
<path d="M279.101 133.181C274.321 114.711 268.369 114.369 267.296 114.466L267.443 116.128V117.789C267.491 117.789 271.784 118.376 275.833 133.963L276.467 136.455C294.663 206.527 299.785 217.375 302.614 218.694L304.127 215.714C302.078 214.101 296.175 198.904 279.736 135.625L279.101 133.181Z" fill="#504566"/>
<path d="M81.5829 157.272C98.2664 134.256 88.6563 123.799 88.2661 123.36L85.827 125.705C85.9245 125.803 93.7784 134.794 78.8999 155.317C63.3872 176.72 42.7036 224.509 46.5574 243.078L49.8746 242.393C48.216 234.477 51.4844 219.329 58.8505 200.859C65.1922 184.636 74.1681 167.533 81.5829 157.272Z" fill="#504566"/>
</svg>
